999
dxfrw 0.6.3
  0
SECTION
  2
HEADER
  9
$ACADVER
  1
AC1021
  9
$DWGCODEPAGE
  3
ANSI_1252
  9
$INSBASE
 10
0
 20
0
 30
0
  9
$EXTMIN
 10
5.450135074235909
 20
-6.483659333133962
 30
0
  9
$EXTMAX
 10
9.958009247464256
 20
-1.975154844944987
 30
0
  9
$LIMMIN
 10
0
 20
0
  9
$LIMMAX
 10
420
 20
297
  9
$ORTHOMODE
 70
    0
  9
$REGENMODE
 70
    1
  9
$FILLMODE
 70
    1
  9
$QTEXTMODE
 70
    0
  9
$MIRRTEXT
 70
    0
  9
$LTSCALE
 40
1
  9
$ATTMODE
 70
    0
  9
$TEXTSIZE
 40
2.5
  9
$TRACEWID
 40
15.68
  9
$TEXTSTYLE
  7
STANDARD
  9
$CLAYER
  8
0
  9
$CELTYPE
  6
BYLAYER
  9
$CECOLOR
 62
  256
  9
$CELTSCALE
 40
1
  9
$DISPSILH
 70
    0
  9
$DIMSCALE
 40
2.5
  9
$DIMASZ
 40
2.5
  9
$DIMEXO
 40
0.625
  9
$DIMDLI
 40
3.75
  9
$DIMRND
 40
0
  9
$DIMDLE
 40
0
  9
$DIMEXE
 40
1.25
  9
$DIMTP
 40
0
  9
$DIMTM
 40
0
  9
$DIMTXT
 40
2.5
  9
$DIMCEN
 40
2.5
  9
$DIMTSZ
 40
0
  9
$DIMTOL
 70
    0
  9
$DIMLIM
 70
    0
  9
$DIMTIH
 70
    0
  9
$DIMTOH
 70
    0
  9
$DIMSE1
 70
    0
  9
$DIMSE2
 70
    0
  9
$DIMTAD
 70
    1
  9
$DIMZIN
 70
    8
  9
$DIMBLK
  1

  9
$DIMASO
 70
    1
  9
$DIMSHO
 70
    1
  9
$DIMPOST
  1

  9
$DIMAPOST
  1

  9
$DIMALT
 70
    0
  9
$DIMALTD
 70
    3
  9
$DIMALTF
 40
0.03937
  9
$DIMLFAC
 40
1
  9
$DIMTOFL
 70
    1
  9
$DIMTVP
 40
0
  9
$DIMTIX
 70
    0
  9
$DIMSOXD
 70
    0
  9
$DIMSAH
 70
    0
  9
$DIMBLK1
  1

  9
$DIMBLK2
  1

  9
$DIMSTYLE
  2
Standard
  9
$DIMCLRD
 70
    0
  9
$DIMCLRE
 70
    0
  9
$DIMCLRT
 70
    0
  9
$DIMTFAC
 40
1
  9
$DIMGAP
 40
0.625
  9
$DIMJUST
 70
    0
  9
$DIMSD1
 70
    0
  9
$DIMSD2
 70
    0
  9
$DIMTOLJ
 70
    0
  9
$DIMTZIN
 70
    8
  9
$DIMALTZ
 70
    0
  9
$DIMALTTZ
 70
    0
  9
$DIMUPT
 70
    0
  9
$DIMDEC
 70
    2
  9
$DIMTDEC
 70
    2
  9
$DIMALTU
 70
    2
  9
$DIMALTTD
 70
    3
  9
$DIMTXSTY
  7
STANDARD
  9
$DIMAUNIT
 70
    0
  9
$DIMADEC
 70
    0
  9
$DIMALTRND
 40
0
  9
$DIMAZIN
 70
    0
  9
$DIMDSEP
 70
   44
  9
$DIMATFIT
 70
    3
  9
$DIMFRAC
 70
    0
  9
$DIMLDRBLK
  1
STANDARD
  9
$DIMLUNIT
 70
    2
  9
$DIMLWD
 70
   -2
  9
$DIMLWE
 70
   -2
  9
$DIMTMOVE
 70
    0
  9
$DIMFXL
 40
1
  9
$DIMFXLON
 70
    0
  9
$DIMJOGANG
 40
0.7854
  9
$DIMTFILL
 70
    0
  9
$DIMTFILLCLR
 70
    0
  9
$DIMARCSYM
 70
    0
  9
$DIMLTYPE
  6

  9
$DIMLTEX1
  6

  9
$DIMLTEX2
  6

  9
$LUNITS
 70
    2
  9
$LUPREC
 70
    4
  9
$SKETCHINC
 40
1
  9
$FILLETRAD
 40
0
  9
$AUNITS
 70
    0
  9
$AUPREC
 70
    2
  9
$MENU
  1
.
  9
$ELEVATION
 40
0
  9
$PELEVATION
 40
0
  9
$THICKNESS
 40
0
  9
$LIMCHECK
 70
    0
  9
$CHAMFERA
 40
0
  9
$CHAMFERB
 40
0
  9
$CHAMFERC
 40
0
  9
$CHAMFERD
 40
0
  9
$SKPOLY
 70
    0
  9
$USRTIMER
 70
    1
  9
$ANGBASE
 50
0
  9
$ANGDIR
 70
    1
  9
$PDMODE
 70
   96
  9
$PDSIZE
 40
-2
  9
$PLINEWID
 40
0
  9
$SPLFRAME
 70
    0
  9
$SPLINETYPE
 70
    2
  9
$SPLINESEGS
 70
    8
  9
$HANDSEED
  5
20000
  9
$SURFTAB1
 70
    6
  9
$SURFTAB2
 70
    6
  9
$SURFTYPE
 70
    6
  9
$SURFU
 70
    6
  9
$SURFV
 70
    6
  9
$UCSBASE
  2

  9
$UCSNAME
  2

  9
$UCSORG
 10
0
 20
0
 30
0
  9
$UCSXDIR
 10
1
 20
0
 30
0
  9
$UCSYDIR
 10
0
 20
1
 30
0
  9
$UCSORTHOREF
  2

  9
$UCSORTHOVIEW
 70
    0
  9
$UCSORGTOP
 10
0
 20
0
 30
0
  9
$UCSORGBOTTOM
 10
0
 20
0
 30
0
  9
$UCSORGLEFT
 10
0
 20
0
 30
0
  9
$UCSORGRIGHT
 10
0
 20
0
 30
0
  9
$UCSORGFRONT
 10
0
 20
0
 30
0
  9
$UCSORGBACK
 10
0
 20
0
 30
0
  9
$PUCSBASE
  2

  9
$PUCSNAME
  2

  9
$PUCSORG
 10
0
 20
0
 30
0
  9
$PUCSXDIR
 10
1
 20
0
 30
0
  9
$PUCSYDIR
 10
0
 20
1
 30
0
  9
$PUCSORTHOREF
  2

  9
$PUCSORTHOVIEW
 70
    0
  9
$PUCSORGTOP
 10
0
 20
0
 30
0
  9
$PUCSORGBOTTOM
 10
0
 20
0
 30
0
  9
$PUCSORGLEFT
 10
0
 20
0
 30
0
  9
$PUCSORGRIGHT
 10
0
 20
0
 30
0
  9
$PUCSORGFRONT
 10
0
 20
0
 30
0
  9
$PUCSORGBACK
 10
0
 20
0
 30
0
  9
$USERI1
 70
    0
  9
$USERI2
 70
    0
  9
$USERI3
 70
    0
  9
$USERI4
 70
    0
  9
$USERI5
 70
    0
  9
$USERR1
 40
0
  9
$USERR2
 40
0
  9
$USERR3
 40
0
  9
$USERR4
 40
0
  9
$USERR5
 40
0
  9
$WORLDVIEW
 70
    1
  9
$SHADEDGE
 70
    3
  9
$SHADEDIF
 70
   70
  9
$TILEMODE
 70
    1
  9
$MAXACTVP
 70
   64
  9
$PINSBASE
 10
0
 20
0
 30
0
  9
$PLIMCHECK
 70
    0
  9
$PEXTMIN
 10
0
 20
0
 30
0
  9
$PEXTMAX
 10
0
 20
0
 30
0
  9
$SNAPSTYLE
 70
    0
  9
$PLIMMIN
 10
0
 20
0
  9
$PLIMMAX
 10
210
 20
297
  9
$UNITMODE
 70
    0
  9
$VISRETAIN
 70
    1
  9
$PLINEGEN
 70
    0
  9
$PSLTSCALE
 70
    1
  9
$TREEDEPTH
 70
 3020
  9
$CMLSTYLE
  2
Standard
  9
$CMLJUST
 70
    0
  9
$CMLSCALE
 40
20
  9
$PROXYGRAPHICS
 70
    1
  9
$MEASUREMENT
 70
    1
  9
$CELWEIGHT
370
   -1
  9
$ENDCAPS
280
    0
  9
$JOINSTYLE
280
    0
  9
$LWDISPLAY
290
    0
  9
$INSUNITS
 70
    0
  9
$HYPERLINKBASE
  1

  9
$STYLESHEET
  1

  9
$XEDIT
290
    1
  9
$CEPSNTYPE
380
    0
  9
$PSTYLEMODE
290
    1
  9
$EXTNAMES
290
    1
  9
$PSVPSCALE
 40
1
  9
$OLESTARTUP
290
    0
  9
$SORTENTS
280
  127
  9
$INDEXCTL
280
    0
  9
$HIDETEXT
280
    1
  9
$XCLIPFRAME
290
    0
  9
$HALOGAP
280
    0
  9
$OBSCOLOR
 70
  257
  9
$OBSLTYPE
280
    0
  9
$INTERSECTIONDISPLAY
280
    0
  9
$INTERSECTIONCOLOR
 70
  257
  9
$DIMASSOC
280
    1
  9
$PROJECTNAME
  1

  9
$CAMERADISPLAY
290
    0
  9
$LENSLENGTH
 40
50
  9
$CAMERAHEIGHT
 40
0
  9
$STEPSPERSEC
 40
2
  9
$STEPSIZE
 40
50
  9
$3DDWFPREC
 40
2
  9
$PSOLWIDTH
 40
5
  9
$PSOLHEIGHT
 40
80
  9
$LOFTANG1
 40
1.570796326794897
  9
$LOFTANG2
 40
1.570796326794897
  9
$LOFTMAG1
 40
0
  9
$LOFTMAG2
 40
0
  9
$LOFTPARAM
 70
    7
  9
$LOFTNORMALS
280
    1
  9
$LATITUDE
 40
1
  9
$LONGITUDE
 40
1
  9
$NORTHDIRECTION
 40
0
  9
$TIMEZONE
 70
-8000
  9
$LIGHTGLYPHDISPLAY
280
    1
  9
$TILEMODELIGHTSYNCH
280
    1
  9
$SOLIDHIST
280
    1
  9
$SHOWHIST
280
    1
  9
$DWFFRAME
280
    2
  9
$DGNFRAME
280
    0
  9
$REALWORLDSCALE
290
    1
  9
$INTERFERECOLOR
 62
    1
  9
$CSHADOW
280
    0
  9
$SHADOWPLANELOCATION
 40
0
  0
ENDSEC
  0
SECTION
  2
CLASSES
  0
ENDSEC
  0
SECTION
  2
TABLES
  0
TABLE
  2
VPORT
  5
8
330
0
100
AcDbSymbolTable
 70
    1
  0
VPORT
  5
31
330
2
100
AcDbSymbolTableRecord
100
AcDbViewportTableRecord
  2
*ACTIVE
 70
    0
 10
0
 20
0
 11
1
 21
1
 12
6.88065493855032
 22
-0.562004714209442
 13
0
 23
0
 14
10
 24
10
 15
10
 25
10
 16
0
 26
0
 36
1
 17
0
 27
0
 37
0
 40
6.174246235273174
 41
1.763590391908976
 42
50
 43
0
 44
0
 50
0
 51
0
 71
    0
 72
  100
 73
    1
 74
    3
 75
    0
 76
    1
 77
    0
 78
    0
281
    0
 65
    1
110
0
120
0
130
0
111
1
121
0
131
0
112
0
122
1
132
0
 79
    0
146
0
348
10020
 60
    7
 61
    5
292
1
282
    1
141
0
142
0
 63
  250
421
3358443
  0
ENDTAB
  0
TABLE
  2
LTYPE
  5
5
330
0
100
AcDbSymbolTable
 70
    4
  0
LTYPE
  5
14
330
5
100
AcDbSymbolTableRecord
100
AcDbLinetypeTableRecord
  2
ByBlock
 70
    0
  3

 72
   65
 73
    0
 40
0
  0
LTYPE
  5
15
330
5
100
AcDbSymbolTableRecord
100
AcDbLinetypeTableRecord
  2
ByLayer
 70
    0
  3

 72
   65
 73
    0
 40
0
  0
LTYPE
  5
16
330
5
100
AcDbSymbolTableRecord
100
AcDbLinetypeTableRecord
  2
Continuous
 70
    0
  3
Solid line
 72
   65
 73
    0
 40
0
  0
LTYPE
  5
32
330
5
100
AcDbSymbolTableRecord
100
AcDbLinetypeTableRecord
  2
DOT
 70
    0
  3
Dot . . . . . . . . . . . . . . . . . . . . . .
 72
   65
 73
    2
 40
6.35
 49
0
 74
    0
 49
-6.35
 74
    0
  0
LTYPE
  5
33
330
5
100
AcDbSymbolTableRecord
100
AcDbLinetypeTableRecord
  2
DOTTINY
 70
    0
  3
Dot (.15x) .....................................
 72
   65
 73
    2
 40
0.9525
 49
0
 74
    0
 49
-0.9525
 74
    0
  0
LTYPE
  5
34
330
5
100
AcDbSymbolTableRecord
100
AcDbLinetypeTableRecord
  2
DOT2
 70
    0
  3
Dot (.5x) .....................................
 72
   65
 73
    2
 40
3.175
 49
0
 74
    0
 49
-3.175
 74
    0
  0
LTYPE
  5
35
330
5
100
AcDbSymbolTableRecord
100
AcDbLinetypeTableRecord
  2
DOTX2
 70
    0
  3
Dot (2x) .  .  .  .  .  .  .  .  .  .  .  .  .
 72
   65
 73
    2
 40
12.7
 49
0
 74
    0
 49
-12.7
 74
    0
  0
LTYPE
  5
36
330
5
100
AcDbSymbolTableRecord
100
AcDbLinetypeTableRecord
  2
DASHED
 70
    0
  3
Dashed _ _ _ _ _ _ _ _ _ _ _ _ _ _ _ _ _
 72
   65
 73
    2
 40
19.05
 49
12.7
 74
    0
 49
-6.35
 74
    0
  0
LTYPE
  5
37
330
5
100
AcDbSymbolTableRecord
100
AcDbLinetypeTableRecord
  2
DASHEDTINY
 70
    0
  3
Dashed (.15x) _ _ _ _ _ _ _ _ _ _ _ _ _ _ _ _ _
 72
   65
 73
    2
 40
2.8575
 49
1.905
 74
    0
 49
-0.9525
 74
    0
  0
LTYPE
  5
38
330
5
100
AcDbSymbolTableRecord
100
AcDbLinetypeTableRecord
  2
DASHED2
 70
    0
  3
Dashed (.5x) _ _ _ _ _ _ _ _ _ _ _ _ _ _ _ _ _
 72
   65
 73
    2
 40
9.524999999999999
 49
6.35
 74
    0
 49
-3.175
 74
    0
  0
LTYPE
  5
39
330
5
100
AcDbSymbolTableRecord
100
AcDbLinetypeTableRecord
  2
DASHEDX2
 70
    0
  3
Dashed (2x) ____  ____  ____  ____  ____  ___
 72
   65
 73
    2
 40
38.09999999999999
 49
25.4
 74
    0
 49
-12.7
 74
    0
  0
LTYPE
  5
3A
330
5
100
AcDbSymbolTableRecord
100
AcDbLinetypeTableRecord
  2
DASHDOT
 70
    0
  3
Dash dot __ . __ . __ . __ . __ . __ . __ . __
 72
   65
 73
    4
 40
25.4
 49
12.7
 74
    0
 49
-6.35
 74
    0
 49
0
 74
    0
 49
-6.35
 74
    0
  0
LTYPE
  5
3B
330
5
100
AcDbSymbolTableRecord
100
AcDbLinetypeTableRecord
  2
DASHDOTTINY
 70
    0
  3
Dash dot (.15x) _._._._._._._._._._._._._._._.
 72
   65
 73
    4
 40
3.81
 49
1.905
 74
    0
 49
-0.9525
 74
    0
 49
0
 74
    0
 49
-0.9525
 74
    0
  0
LTYPE
  5
3C
330
5
100
AcDbSymbolTableRecord
100
AcDbLinetypeTableRecord
  2
DASHDOT2
 70
    0
  3
Dash dot (.5x) _._._._._._._._._._._._._._._.
 72
   65
 73
    4
 40
12.7
 49
6.35
 74
    0
 49
-3.175
 74
    0
 49
0
 74
    0
 49
-3.175
 74
    0
  0
LTYPE
  5
3D
330
5
100
AcDbSymbolTableRecord
100
AcDbLinetypeTableRecord
  2
DASHDOTX2
 70
    0
  3
Dash dot (2x) ____  .  ____  .  ____  .  ___
 72
   65
 73
    4
 40
50.8
 49
25.4
 74
    0
 49
-12.7
 74
    0
 49
0
 74
    0
 49
-12.7
 74
    0
  0
LTYPE
  5
3E
330
5
100
AcDbSymbolTableRecord
100
AcDbLinetypeTableRecord
  2
DIVIDE
 70
    0
  3
Divide ____ . . ____ . . ____ . . ____ . . ____
 72
   65
 73
    6
 40
31.75
 49
12.7
 74
    0
 49
-6.35
 74
    0
 49
0
 74
    0
 49
-6.35
 74
    0
 49
0
 74
    0
 49
-6.35
 74
    0
  0
LTYPE
  5
3F
330
5
100
AcDbSymbolTableRecord
100
AcDbLinetypeTableRecord
  2
DIVIDETINY
 70
    0
  3
Divide (.15x) __..__..__..__..__..__..__..__.._
 72
   65
 73
    6
 40
4.7625
 49
1.905
 74
    0
 49
-0.9525
 74
    0
 49
0
 74
    0
 49
-0.9525
 74
    0
 49
0
 74
    0
 49
-0.9525
 74
    0
  0
LTYPE
  5
40
330
5
100
AcDbSymbolTableRecord
100
AcDbLinetypeTableRecord
  2
DIVIDE2
 70
    0
  3
Divide (.5x) __..__..__..__..__..__..__..__.._
 72
   65
 73
    6
 40
15.875
 49
6.35
 74
    0
 49
-3.175
 74
    0
 49
0
 74
    0
 49
-3.175
 74
    0
 49
0
 74
    0
 49
-3.175
 74
    0
  0
LTYPE
  5
41
330
5
100
AcDbSymbolTableRecord
100
AcDbLinetypeTableRecord
  2
DIVIDEX2
 70
    0
  3
Divide (2x) ________  .  .  ________  .  .  _
 72
   65
 73
    6
 40
63.5
 49
25.4
 74
    0
 49
-12.7
 74
    0
 49
0
 74
    0
 49
-12.7
 74
    0
 49
0
 74
    0
 49
-12.7
 74
    0
  0
LTYPE
  5
42
330
5
100
AcDbSymbolTableRecord
100
AcDbLinetypeTableRecord
  2
BORDER
 70
    0
  3
Border __ __ . __ __ . __ __ . __ __ . __ __ .
 72
   65
 73
    6
 40
44.45
 49
12.7
 74
    0
 49
-6.35
 74
    0
 49
12.7
 74
    0
 49
-6.35
 74
    0
 49
0
 74
    0
 49
-6.35
 74
    0
  0
LTYPE
  5
43
330
5
100
AcDbSymbolTableRecord
100
AcDbLinetypeTableRecord
  2
BORDERTINY
 70
    0
  3
Border (.15x) __.__.__.__.__.__.__.__.__.__.__.
 72
   65
 73
    6
 40
6.6675
 49
1.905
 74
    0
 49
-0.9525
 74
    0
 49
1.905
 74
    0
 49
-0.9525
 74
    0
 49
0
 74
    0
 49
-0.9525
 74
    0
  0
LTYPE
  5
44
330
5
100
AcDbSymbolTableRecord
100
AcDbLinetypeTableRecord
  2
BORDER2
 70
    0
  3
Border (.5x) __.__.__.__.__.__.__.__.__.__.__.
 72
   65
 73
    6
 40
22.225
 49
6.35
 74
    0
 49
-3.175
 74
    0
 49
6.35
 74
    0
 49
-3.175
 74
    0
 49
0
 74
    0
 49
-3.175
 74
    0
  0
LTYPE
  5
45
330
5
100
AcDbSymbolTableRecord
100
AcDbLinetypeTableRecord
  2
BORDERX2
 70
    0
  3
Border (2x) ____  ____  .  ____  ____  .  ___
 72
   65
 73
    6
 40
88.89999999999999
 49
25.4
 74
    0
 49
-12.7
 74
    0
 49
25.4
 74
    0
 49
-12.7
 74
    0
 49
0
 74
    0
 49
-12.7
 74
    0
  0
LTYPE
  5
46
330
5
100
AcDbSymbolTableRecord
100
AcDbLinetypeTableRecord
  2
CENTER
 70
    0
  3
Center ____ _ ____ _ ____ _ ____ _ ____ _ ____
 72
   65
 73
    4
 40
50.8
 49
31.75
 74
    0
 49
-6.35
 74
    0
 49
6.35
 74
    0
 49
-6.35
 74
    0
  0
LTYPE
  5
47
330
5
100
AcDbSymbolTableRecord
100
AcDbLinetypeTableRecord
  2
CENTERTINY
 70
    0
  3
Center (.15x) ___ _ ___ _ ___ _ ___ _ ___ _ ___
 72
   65
 73
    4
 40
7.619999999999999
 49
4.7625
 74
    0
 49
-0.9525
 74
    0
 49
0.9525
 74
    0
 49
-0.9525
 74
    0
  0
LTYPE
  5
48
330
5
100
AcDbSymbolTableRecord
100
AcDbLinetypeTableRecord
  2
CENTER2
 70
    0
  3
Center (.5x) ___ _ ___ _ ___ _ ___ _ ___ _ ___
 72
   65
 73
    4
 40
28.575
 49
19.05
 74
    0
 49
-3.175
 74
    0
 49
3.175
 74
    0
 49
-3.175
 74
    0
  0
LTYPE
  5
49
330
5
100
AcDbSymbolTableRecord
100
AcDbLinetypeTableRecord
  2
CENTERX2
 70
    0
  3
Center (2x) ________  __  ________  __  _____
 72
   65
 73
    4
 40
101.6
 49
63.5
 74
    0
 49
-12.7
 74
    0
 49
12.7
 74
    0
 49
-12.7
 74
    0
  0
ENDTAB
  0
TABLE
  2
LAYER
  5
2
330
0
100
AcDbSymbolTable
 70
    1
  0
LAYER
  5
10
330
2
100
AcDbSymbolTableRecord
100
AcDbLayerTableRecord
  2
0
 70
    0
 62
    7
  6
CONTINUOUS
370
   25
390
F
  0
LAYER
  5
4A
330
2
100
AcDbSymbolTableRecord
100
AcDbLayerTableRecord
  2
BLACK
 70
    0
 62
    7
  6
CONTINUOUS
370
   -3
390
F
  0
ENDTAB
  0
TABLE
  2
STYLE
  5
3
330
0
100
AcDbSymbolTable
 70
    3
  0
STYLE
  5
4B
330
2
100
AcDbSymbolTableRecord
100
AcDbTextStyleTableRecord
  2
Standard
 70
    0
 40
0
 41
1
 50
0
 71
    0
 42
1
  3
txt
  4

  0
ENDTAB
  0
TABLE
  2
VIEW
  5
6
330
0
100
AcDbSymbolTable
 70
    0
  0
ENDTAB
  0
TABLE
  2
UCS
  5
7
330
0
100
AcDbSymbolTable
 70
    0
  0
ENDTAB
  0
TABLE
  2
APPID
  5
9
330
0
100
AcDbSymbolTable
 70
    1
  0
APPID
  5
12
330
9
100
AcDbSymbolTableRecord
100
AcDbRegAppTableRecord
  2
ACAD
 70
    0
  0
APPID
  5
4C
330
9
100
AcDbSymbolTableRecord
100
AcDbRegAppTableRecord
  2
LibreCad
 70
    0
  0
ENDTAB
  0
TABLE
  2
DIMSTYLE
  5
A
330
0
100
AcDbSymbolTable
 70
    1
100
AcDbDimStyleTable
 71
    1
  0
DIMSTYLE
105
4D
330
A
100
AcDbSymbolTableRecord
100
AcDbDimStyleTableRecord
  2
Standard
 70
    0
 40
1
 41
2.5
 42
0.625
 43
0.38
 44
1.25
 45
0
 46
0
 47
0
 48
0
 49
1
140
2.5
141
0.09
142
2.5
143
25.4
144
1
145
0
146
1
147
0.625
148
0
 71
    0
 72
    0
 73
    0
 74
    1
 75
    0
 76
    0
 77
    0
 78
    1
 79
    0
170
    0
171
    2
172
    0
173
    0
174
    0
175
    0
176
    0
177
    0
178
    0
179
    0
271
    2
272
    4
273
    2
274
    2
275
    0
276
    0
277
    2
278
    0
279
    0
280
    0
281
    0
282
    0
283
    1
284
    0
285
    0
286
    0
288
    0
289
    3
340
4B
  0
ENDTAB
  0
TABLE
  2
BLOCK_RECORD
  5
1
330
0
100
AcDbSymbolTable
 70
    2
  0
BLOCK_RECORD
  5
1F
330
1
100
AcDbSymbolTableRecord
100
AcDbBlockTableRecord
  2
*Model_Space
 70
    0
280
    1
281
    0
  0
BLOCK_RECORD
  5
1E
330
1
100
AcDbSymbolTableRecord
100
AcDbBlockTableRecord
  2
*Paper_Space
 70
    0
280
    1
281
    0
  0
ENDTAB
  0
ENDSEC
  0
SECTION
  2
BLOCKS
  0
BLOCK
  5
20
330
1F
100
AcDbEntity
  8
0
100
AcDbBlockBegin
  2
*Model_Space
 70
    0
 10
0
 20
0
 30
0
  3
*Model_Space
  1

  0
ENDBLK
  5
21
330
1F
100
AcDbEntity
  8
0
100
AcDbBlockEnd
  0
BLOCK
  5
1C
330
1B
100
AcDbEntity
  8
0
100
AcDbBlockBegin
  2
*Paper_Space
 70
    0
 10
0
 20
0
 30
0
  3
*Paper_Space
  1

  0
ENDBLK
  5
1D
330
1F
100
AcDbEntity
  8
0
100
AcDbBlockEnd
  0
ENDSEC
  0
SECTION
  2
ENTITIES
  0
LINE
  5
4E
100
AcDbEntity
  8
BLACK
  6
CONTINUOUS
 62
  256
370
   -1
100
AcDbLine
 10
6.977187987621738
 20
-1.977421852819003
 11
6.998410822267408
 21
-1.982250592976483
  0
LINE
  5
4F
100
AcDbEntity
  8
BLACK
  6
CONTINUOUS
 62
  256
370
   -1
100
AcDbLine
 10
6.998410822267408
 20
-1.982250592976483
 11
7.018907593920948
 21
-1.989572167779633
  0
LINE
  5
50
100
AcDbEntity
  8
BLACK
  6
CONTINUOUS
 62
  256
370
   -1
100
AcDbLine
 10
7.018907593920948
 20
-1.989572167779633
 11
7.03838664903906
 21
-1.999282482740263
  0
LINE
  5
51
100
AcDbEntity
  8
BLACK
  6
CONTINUOUS
 62
  256
370
   -1
100
AcDbLine
 10
7.03838664903906
 20
-1.999282482740263
 11
7.056570743527248
 21
-2.011243348881995
  0
LINE
  5
52
100
AcDbEntity
  8
BLACK
  6
CONTINUOUS
 62
  256
370
   -1
100
AcDbLine
 10
7.056570743527248
 20
-2.011243348881995
 11
7.07320105848788
 21
-2.025284529984357
  0
LINE
  5
53
100
AcDbEntity
  8
BLACK
  6
CONTINUOUS
 62
  256
370
   -1
100
AcDbLine
 10
7.07320105848788
 20
-2.025284529984357
 11
7.08804105848788
 21
-2.041206183527664
  0
LINE
  5
54
100
AcDbEntity
  8
BLACK
  6
CONTINUOUS
 62
  256
370
   -1
100
AcDbLine
 10
7.08804105848788
 20
-2.041206183527664
 11
7.100879404944573
 21
-2.058781774078846
  0
LINE
  5
55
100
AcDbEntity
  8
BLACK
  6
CONTINUOUS
 62
  256
370
   -1
100
AcDbLine
 10
7.100879404944573
 20
-2.058781774078846
 11
7.100876570298903
 21
-2.058783585102467
  0
LINE
  5
56
100
AcDbEntity
  8
BLACK
  6
CONTINUOUS
 62
  256
370
   -1
100
AcDbLine
 10
7.100876570298903
 20
-2.058783585102467
 11
7.100920113605989
 21
-2.058949333133964
  0
LINE
  5
57
100
AcDbEntity
  8
BLACK
  6
CONTINUOUS
 62
  256
370
   -1
100
AcDbLine
 10
7.100920113605989
 20
-2.058949333133964
 11
7.101111688409139
 21
-2.059203900063098
  0
LINE
  5
58
100
AcDbEntity
  8
BLACK
  6
CONTINUOUS
 62
  256
370
   -1
100
AcDbLine
 10
7.101111688409139
 20
-2.059203900063098
 11
7.171546097857957
 21
-2.205467600850499
  0
LINE
  5
59
100
AcDbEntity
  8
BLACK
  6
CONTINUOUS
 62
  256
370
   -1
100
AcDbLine
 10
7.171546097857957
 20
-2.205467600850499
 11
8.236742160850083
 21
-2.205467600850499
  0
LINE
  5
5A
100
AcDbEntity
  8
BLACK
  6
CONTINUOUS
 62
  256
370
   -1
100
AcDbLine
 10
8.236742160850083
 20
-2.205467600850499
 11
8.317128538802839
 21
-2.059017758330814
  0
LINE
  5
5B
100
AcDbEntity
  8
BLACK
  6
CONTINUOUS
 62
  256
370
   -1
100
AcDbLine
 10
8.317128538802839
 20
-2.059017758330814
 11
8.317242318330399
 21
-2.058882089039475
  0
LINE
  5
5C
100
AcDbEntity
  8
BLACK
  6
CONTINUOUS
 62
  256
370
   -1
100
AcDbLine
 10
8.317242318330399
 20
-2.058882089039475
 11
8.317268223842211
 21
-2.05878382132294
  0
LINE
  5
5D
100
AcDbEntity
  8
BLACK
  6
CONTINUOUS
 62
  256
370
   -1
100
AcDbLine
 10
8.317268223842211
 20
-2.05878382132294
 11
8.317268223842211
 21
-2.058783900063097
  0
LINE
  5
5E
100
AcDbEntity
  8
BLACK
  6
CONTINUOUS
 62
  256
370
   -1
100
AcDbLine
 10
8.317268223842211
 20
-2.058783900063097
 11
8.330106570298904
 21
-2.041208781952861
  0
LINE
  5
5F
100
AcDbEntity
  8
BLACK
  6
CONTINUOUS
 62
  256
370
   -1
100
AcDbLine
 10
8.330106570298904
 20
-2.041208781952861
 11
8.344946255338273
 21
-2.025287443370184
  0
LINE
  5
60
100
AcDbEntity
  8
BLACK
  6
CONTINUOUS
 62
  256
370
   -1
100
AcDbLine
 10
8.344946255338273
 20
-2.025287443370184
 11
8.36157633407843
 21
-2.011246498488295
  0
LINE
  5
61
100
AcDbEntity
  8
BLACK
  6
CONTINUOUS
 62
  256
370
   -1
100
AcDbLine
 10
8.36157633407843
 20
-2.011246498488295
 11
8.379759956125673
 21
-1.99928571108672
  0
LINE
  5
62
100
AcDbEntity
  8
BLACK
  6
CONTINUOUS
 62
  256
370
   -1
100
AcDbLine
 10
8.379759956125673
 20
-1.99928571108672
 11
8.399238460062682
 21
-1.989575238645775
  0
LINE
  5
63
100
AcDbEntity
  8
BLACK
  6
CONTINUOUS
 62
  256
370
   -1
100
AcDbLine
 10
8.399238460062682
 20
-1.989575238645775
 11
8.419734680535123
 21
-1.982253348881995
  0
LINE
  5
64
100
AcDbEntity
  8
BLACK
  6
CONTINUOUS
 62
  256
370
   -1
100
AcDbLine
 10
8.419734680535123
 20
-1.982253348881995
 11
8.440956963999691
 21
-1.97742413628357
  0
LINE
  5
65
100
AcDbEntity
  8
BLACK
  6
CONTINUOUS
 62
  256
370
   -1
100
AcDbLine
 10
8.440956963999691
 20
-1.97742413628357
 11
8.462603263212289
 21
-1.97515634100798
  0
LINE
  5
66
100
AcDbEntity
  8
BLACK
  6
CONTINUOUS
 62
  256
370
   -1
100
AcDbLine
 10
8.462603263212289
 20
-1.97515634100798
 11
8.484365625417011
 21
-1.97548224651979
  0
LINE
  5
67
100
AcDbEntity
  8
BLACK
  6
CONTINUOUS
 62
  256
370
   -1
100
AcDbLine
 10
8.484365625417011
 20
-1.97548224651979
 11
8.484365861637484
 21
-1.975478545732389
  0
LINE
  5
68
100
AcDbEntity
  8
BLACK
  6
CONTINUOUS
 62
  256
370
   -1
100
AcDbLine
 10
8.484365861637484
 20
-1.975478545732389
 11
8.484845940377644
 21
-1.975675238645775
  0
LINE
  5
69
100
AcDbEntity
  8
BLACK
  6
CONTINUOUS
 62
  256
370
   -1
100
AcDbLine
 10
8.484845940377644
 20
-1.975675238645775
 11
8.485365152976067
 21
-1.975685868567035
  0
LINE
  5
6A
100
AcDbEntity
  8
BLACK
  6
CONTINUOUS
 62
  256
370
   -1
100
AcDbLine
 10
8.485365152976067
 20
-1.975685868567035
 11
8.485365152976067
 21
-1.975685947307193
  0
LINE
  5
6B
100
AcDbEntity
  8
BLACK
  6
CONTINUOUS
 62
  256
370
   -1
100
AcDbLine
 10
8.485365152976067
 20
-1.975685947307193
 11
8.563452397070558
 21
-2.004372089039476
  0
LINE
  5
6C
100
AcDbEntity
  8
BLACK
  6
CONTINUOUS
 62
  256
370
   -1
100
AcDbLine
 10
8.563452397070558
 20
-2.004372089039476
 11
8.640489956125675
 21
-2.035768466992231
  0
LINE
  5
6D
100
AcDbEntity
  8
BLACK
  6
CONTINUOUS
 62
  256
370
   -1
100
AcDbLine
 10
8.640489956125675
 20
-2.035768466992231
 11
8.716383735653233
 21
-2.069836734708767
  0
LINE
  5
6E
100
AcDbEntity
  8
BLACK
  6
CONTINUOUS
 62
  256
370
   -1
100
AcDbLine
 10
8.716383735653233
 20
-2.069836734708767
 11
8.791041215968194
 21
-2.106535238645775
  0
LINE
  5
6F
100
AcDbEntity
  8
BLACK
  6
CONTINUOUS
 62
  256
370
   -1
100
AcDbLine
 10
8.791041215968194
 20
-2.106535238645775
 11
8.864371215968193
 21
-2.145819254393806
  0
LINE
  5
70
100
AcDbEntity
  8
BLACK
  6
CONTINUOUS
 62
  256
370
   -1
100
AcDbLine
 10
8.864371215968193
 20
-2.145819254393806
 11
8.936284208094177
 21
-2.187640829196956
  0
LINE
  5
71
100
AcDbEntity
  8
BLACK
  6
CONTINUOUS
 62
  256
370
   -1
100
AcDbLine
 10
8.936284208094177
 20
-2.187640829196956
 11
9.006692397070557
 21
-2.231948860693019
  0
LINE
  5
72
100
AcDbEntity
  8
BLACK
  6
CONTINUOUS
 62
  256
370
   -1
100
AcDbLine
 10
9.006692397070557
 20
-2.231948860693019
 11
9.075509877385516
 21
-2.278689333133963
  0
LINE
  5
73
100
AcDbEntity
  8
BLACK
  6
CONTINUOUS
 62
  256
370
   -1
100
AcDbLine
 10
9.075509877385516
 20
-2.278689333133963
 11
9.142652712031184
 21
-2.327805159905618
  0
LINE
  5
74
100
AcDbEntity
  8
BLACK
  6
CONTINUOUS
 62
  256
370
   -1
100
AcDbLine
 10
9.142652712031184
 20
-2.327805159905618
 11
9.208038775023313
 21
-2.379236341007979
  0
LINE
  5
75
100
AcDbEntity
  8
BLACK
  6
CONTINUOUS
 62
  256
370
   -1
100
AcDbLine
 10
9.208038775023313
 20
-2.379236341007979
 11
9.271588460062683
 21
-2.432920199275696
  0
LINE
  5
76
100
AcDbEntity
  8
BLACK
  6
CONTINUOUS
 62
  256
370
   -1
100
AcDbLine
 10
9.271588460062683
 20
-2.432920199275696
 11
9.33322412935402
 21
-2.488791222897743
  0
LINE
  5
77
100
AcDbEntity
  8
BLACK
  6
CONTINUOUS
 62
  256
370
   -1
100
AcDbLine
 10
9.33322412935402
 20
-2.488791222897743
 11
9.392870507306776
 21
-2.546781065417429
  0
LINE
  5
78
100
AcDbEntity
  8
BLACK
  6
CONTINUOUS
 62
  256
370
   -1
100
AcDbLine
 10
9.392870507306776
 20
-2.546781065417429
 11
9.450454838015437
 21
-2.606819096913492
  0
LINE
  5
79
100
AcDbEntity
  8
BLACK
  6
CONTINUOUS
 62
  256
370
   -1
100
AcDbLine
 10
9.450454838015437
 20
-2.606819096913492
 11
9.505906806519375
 21
-2.668832010299318
  0
LINE
  5
7A
100
AcDbEntity
  8
BLACK
  6
CONTINUOUS
 62
  256
370
   -1
100
AcDbLine
 10
9.505906806519375
 20
-2.668832010299318
 11
9.559158696283154
 21
-2.732744057543413
  0
LINE
  5
7B
100
AcDbEntity
  8
BLACK
  6
CONTINUOUS
 62
  256
370
   -1
100
AcDbLine
 10
9.559158696283154
 20
-2.732744057543413
 11
9.610145625417013
 21
-2.79847728588987
  0
LINE
  5
7C
100
AcDbEntity
  8
BLACK
  6
CONTINUOUS
 62
  256
370
   -1
100
AcDbLine
 10
9.610145625417013
 20
-2.79847728588987
 11
9.658805310456382
 21
-2.865951380378058
  0
LINE
  5
7D
100
AcDbEntity
  8
BLACK
  6
CONTINUOUS
 62
  256
370
   -1
100
AcDbLine
 10
9.658805310456382
 20
-2.865951380378058
 11
9.705078223842209
 21
-2.935084057543413
  0
LINE
  5
7E
100
AcDbEntity
  8
BLACK
  6
CONTINUOUS
 62
  256
370
   -1
100
AcDbLine
 10
9.705078223842209
 20
-2.935084057543413
 11
9.748908066361894
 21
-3.005790907937114
  0
LINE
  5
7F
100
AcDbEntity
  8
BLACK
  6
CONTINUOUS
 62
  256
370
   -1
100
AcDbLine
 10
9.748908066361894
 20
-3.005790907937114
 11
9.79024129470835
 21
-3.07798571108672
  0
LINE
  5
80
100
AcDbEntity
  8
BLACK
  6
CONTINUOUS
 62
  256
370
   -1
100
AcDbLine
 10
9.79024129470835
 20
-3.07798571108672
 11
9.829027436440635
 21
-3.151580199275696
  0
LINE
  5
81
100
AcDbEntity
  8
BLACK
  6
CONTINUOUS
 62
  256
370
   -1
100
AcDbLine
 10
9.829027436440635
 20
-3.151580199275696
 11
9.865219168724098
 21
-3.226484687464672
  0
LINE
  5
82
100
AcDbEntity
  8
BLACK
  6
CONTINUOUS
 62
  256
370
   -1
100
AcDbLine
 10
9.865219168724098
 20
-3.226484687464672
 11
9.898772239590242
 21
-3.302607679590656
  0
LINE
  5
83
100
AcDbEntity
  8
BLACK
  6
CONTINUOUS
 62
  256
370
   -1
100
AcDbLine
 10
9.898772239590242
 20
-3.302607679590656
 11
9.929645782897326
 21
-3.379856262267822
  0
LINE
  5
84
100
AcDbEntity
  8
BLACK
  6
CONTINUOUS
 62
  256
370
   -1
100
AcDbLine
 10
9.929645782897326
 20
-3.379856262267822
 11
9.957802160850084
 21
-3.458136104787507
  0
LINE
  5
85
100
AcDbEntity
  8
BLACK
  6
CONTINUOUS
 62
  256
370
   -1
100
AcDbLine
 10
9.957802160850084
 20
-3.458136104787507
 11
9.957799483684729
 21
-3.458136970929239
  0
LINE
  5
86
100
AcDbEntity
  8
BLACK
  6
CONTINUOUS
 62
  256
370
   -1
100
AcDbLine
 10
9.957799483684729
 20
-3.458136970929239
 11
9.957802554550872
 21
-3.458365711086719
  0
LINE
  5
87
100
AcDbEntity
  8
BLACK
  6
CONTINUOUS
 62
  256
370
   -1
100
AcDbLine
 10
9.957802554550872
 20
-3.458365711086719
 11
9.958009247464256
 21
-3.459404608724515
  0
LINE
  5
88
100
AcDbEntity
  8
BLACK
  6
CONTINUOUS
 62
  256
370
   -1
100
AcDbLine
 10
9.958009247464256
 20
-3.459404608724515
 11
9.958009247464256
 21
-4.229404529984357
  0
LINE
  5
89
100
AcDbEntity
  8
BLACK
  6
CONTINUOUS
 62
  256
370
   -1
100
AcDbLine
 10
9.958009247464256
 20
-4.229404529984357
 11
9.958009247464256
 21
-4.229404608724515
  0
LINE
  5
8A
100
AcDbEntity
  8
BLACK
  6
CONTINUOUS
 62
  256
370
   -1
100
AcDbLine
 10
9.958009247464256
 20
-4.229404608724515
 11
9.958009247464256
 21
-4.999404608724515
  0
LINE
  5
8B
100
AcDbEntity
  8
BLACK
  6
CONTINUOUS
 62
  256
370
   -1
100
AcDbLine
 10
9.958009247464256
 20
-4.999404608724515
 11
9.957803263212289
 21
-5.000439963055223
  0
LINE
  5
8C
100
AcDbEntity
  8
BLACK
  6
CONTINUOUS
 62
  256
370
   -1
100
AcDbLine
 10
9.957803263212289
 20
-5.000439963055223
 11
9.957800271086304
 21
-5.000670120535538
  0
LINE
  5
8D
100
AcDbEntity
  8
BLACK
  6
CONTINUOUS
 62
  256
370
   -1
100
AcDbLine
 10
9.957800271086304
 20
-5.000670120535538
 11
9.929564365574494
 21
-5.07926697092924
  0
LINE
  5
8E
100
AcDbEntity
  8
BLACK
  6
CONTINUOUS
 62
  256
370
   -1
100
AcDbLine
 10
9.929564365574494
 20
-5.07926697092924
 11
9.898575074235909
 21
-5.156819490614279
  0
LINE
  5
8F
100
AcDbEntity
  8
BLACK
  6
CONTINUOUS
 62
  256
370
   -1
100
AcDbLine
 10
9.898575074235909
 20
-5.156819490614279
 11
9.864870979747723
 21
-5.233231380378058
  0
LINE
  5
90
100
AcDbEntity
  8
BLACK
  6
CONTINUOUS
 62
  256
370
   -1
100
AcDbLine
 10
9.864870979747723
 20
-5.233231380378058
 11
9.828493971873707
 21
-5.308407443370184
  0
LINE
  5
91
100
AcDbEntity
  8
BLACK
  6
CONTINUOUS
 62
  256
370
   -1
100
AcDbLine
 10
9.828493971873707
 20
-5.308407443370184
 11
9.789489247464255
 21
-5.382254293763884
  0
LINE
  5
92
100
AcDbEntity
  8
BLACK
  6
CONTINUOUS
 62
  256
370
   -1
100
AcDbLine
 10
9.789489247464255
 20
-5.382254293763884
 11
9.747905310456384
 21
-5.454680199275696
  0
LINE
  5
93
100
AcDbEntity
  8
BLACK
  6
CONTINUOUS
 62
  256
370
   -1
100
AcDbLine
 10
9.747905310456384
 20
-5.454680199275696
 11
9.703793893133549
 21
-5.525595002425302
  0
LINE
  5
94
100
AcDbEntity
  8
BLACK
  6
CONTINUOUS
 62
  256
370
   -1
100
AcDbLine
 10
9.703793893133549
 20
-5.525595002425302
 11
9.65720979864536
 21
-5.594910592976483
  0
LINE
  5
95
100
AcDbEntity
  8
BLACK
  6
CONTINUOUS
 62
  256
370
   -1
100
AcDbLine
 10
9.65720979864536
 20
-5.594910592976483
 11
9.608210979747723
 21
-5.662540829196955
  0
LINE
  5
96
100
AcDbEntity
  8
BLACK
  6
CONTINUOUS
 62
  256
370
   -1
100
AcDbLine
 10
9.608210979747723
 20
-5.662540829196955
 11
9.556858302582368
 21
-5.728401537858373
  0
LINE
  5
97
100
AcDbEntity
  8
BLACK
  6
CONTINUOUS
 62
  256
370
   -1
100
AcDbLine
 10
9.556858302582368
 20
-5.728401537858373
 11
9.503215704157169
 21
-5.792410907937112
  0
LINE
  5
98
100
AcDbEntity
  8
BLACK
  6
CONTINUOUS
 62
  256
370
   -1
100
AcDbLine
 10
9.503215704157169
 20
-5.792410907937112
 11
9.447349798645361
 21
-5.854489333133964
  0
LINE
  5
99
100
AcDbEntity
  8
BLACK
  6
CONTINUOUS
 62
  256
370
   -1
100
AcDbLine
 10
9.447349798645361
 20
-5.854489333133964
 11
9.38933003486583
 21
-5.914559569354436
  0
LINE
  5
9A
100
AcDbEntity
  8
BLACK
  6
CONTINUOUS
 62
  256
370
   -1
100
AcDbLine
 10
9.38933003486583
 20
-5.914559569354436
 11
9.329228538802839
 21
-5.972547049669396
  0
LINE
  5
9B
100
AcDbEntity
  8
BLACK
  6
CONTINUOUS
 62
  256
370
   -1
100
AcDbLine
 10
9.329228538802839
 20
-5.972547049669396
 11
9.267120113605989
 21
-6.028379648094592
  0
LINE
  5
9C
100
AcDbEntity
  8
BLACK
  6
CONTINUOUS
 62
  256
370
   -1
100
AcDbLine
 10
9.267120113605989
 20
-6.028379648094592
 11
9.203081924629609
 21
-6.081987837070971
  0
LINE
  5
9D
100
AcDbEntity
  8
BLACK
  6
CONTINUOUS
 62
  256
370
   -1
100
AcDbLine
 10
9.203081924629609
 20
-6.081987837070971
 11
9.137193656913075
 21
-6.13330508116546
  0
LINE
  5
9E
100
AcDbEntity
  8
BLACK
  6
CONTINUOUS
 62
  256
370
   -1
100
AcDbLine
 10
9.137193656913075
 20
-6.13330508116546
 11
9.069537121480005
 21
-6.1822676008505
  0
LINE
  5
9F
100
AcDbEntity
  8
BLACK
  6
CONTINUOUS
 62
  256
370
   -1
100
AcDbLine
 10
9.069537121480005
 20
-6.1822676008505
 11
9.000196491558745
 21
-6.228814372504042
  0
LINE
  5
A0
100
AcDbEntity
  8
BLACK
  6
CONTINUOUS
 62
  256
370
   -1
100
AcDbLine
 10
9.000196491558745
 20
-6.228814372504042
 11
8.929257987621737
 21
-6.272887679590657
  0
LINE
  5
A1
100
AcDbEntity
  8
BLACK
  6
CONTINUOUS
 62
  256
370
   -1
100
AcDbLine
 10
8.929257987621737
 20
-6.272887679590657
 11
8.856809719905202
 21
-6.314432718960735
  0
LINE
  5
A2
100
AcDbEntity
  8
BLACK
  6
CONTINUOUS
 62
  256
370
   -1
100
AcDbLine
 10
8.856809719905202
 20
-6.314432718960735
 11
8.782941924629609
 21
-6.353397758330814
  0
LINE
  5
A3
100
AcDbEntity
  8
BLACK
  6
CONTINUOUS
 62
  256
370
   -1
100
AcDbLine
 10
8.782941924629609
 20
-6.353397758330814
 11
8.707746255338273
 21
-6.389734293763885
  0
LINE
  5
A4
100
AcDbEntity
  8
BLACK
  6
CONTINUOUS
 62
  256
370
   -1
100
AcDbLine
 10
8.707746255338273
 20
-6.389734293763885
 11
8.631316334078429
 21
-6.423397364630027
  0
LINE
  5
A5
100
AcDbEntity
  8
BLACK
  6
CONTINUOUS
 62
  256
370
   -1
100
AcDbLine
 10
8.631316334078429
 20
-6.423397364630027
 11
8.553747200220164
 21
-6.454344923685145
  0
LINE
  5
A6
100
AcDbEntity
  8
BLACK
  6
CONTINUOUS
 62
  256
370
   -1
100
AcDbLine
 10
8.553747200220164
 20
-6.454344923685145
 11
8.476933420692601
 21
-6.481893585102467
  0
LINE
  5
A7
100
AcDbEntity
  8
BLACK
  6
CONTINUOUS
 62
  256
370
   -1
100
AcDbLine
 10
8.476933420692601
 20
-6.481893585102467
 11
8.476617278960321
 21
-6.48240508116546
  0
LINE
  5
A8
100
AcDbEntity
  8
BLACK
  6
CONTINUOUS
 62
  256
370
   -1
100
AcDbLine
 10
8.476617278960321
 20
-6.48240508116546
 11
8.474365625417013
 21
-6.483327522110342
  0
LINE
  5
A9
100
AcDbEntity
  8
BLACK
  6
CONTINUOUS
 62
  256
370
   -1
100
AcDbLine
 10
8.474365625417013
 20
-6.483327522110342
 11
8.474365625417013
 21
-6.483327443370184
  0
LINE
  5
AA
100
AcDbEntity
  8
BLACK
  6
CONTINUOUS
 62
  256
370
   -1
100
AcDbLine
 10
8.474365625417013
 20
-6.483327443370184
 11
8.452603341952445
 21
-6.483653427622153
  0
LINE
  5
AB
100
AcDbEntity
  8
BLACK
  6
CONTINUOUS
 62
  256
370
   -1
100
AcDbLine
 10
8.452603341952445
 20
-6.483653427622153
 11
8.430957121480004
 21
-6.481385553606405
  0
LINE
  5
AC
100
AcDbEntity
  8
BLACK
  6
CONTINUOUS
 62
  256
370
   -1
100
AcDbLine
 10
8.430957121480004
 20
-6.481385553606405
 11
8.409734916755594
 21
-6.476556183527665
  0
LINE
  5
AD
100
AcDbEntity
  8
BLACK
  6
CONTINUOUS
 62
  256
370
   -1
100
AcDbLine
 10
8.409734916755594
 20
-6.476556183527665
 11
8.389238853763468
 21
-6.469234057543412
  0
LINE
  5
AE
100
AcDbEntity
  8
BLACK
  6
CONTINUOUS
 62
  256
370
   -1
100
AcDbLine
 10
8.389238853763468
 20
-6.469234057543412
 11
8.369760586046935
 21
-6.459523270141837
  0
LINE
  5
AF
100
AcDbEntity
  8
BLACK
  6
CONTINUOUS
 62
  256
370
   -1
100
AcDbLine
 10
8.369760586046935
 20
-6.459523270141837
 11
8.351577200220161
 21
-6.447562089039476
  0
LINE
  5
B0
100
AcDbEntity
  8
BLACK
  6
CONTINUOUS
 62
  256
370
   -1
100
AcDbLine
 10
8.351577200220161
 20
-6.447562089039476
 11
8.334947593920949
 21
-6.433520750456799
  0
LINE
  5
B1
100
AcDbEntity
  8
BLACK
  6
CONTINUOUS
 62
  256
370
   -1
100
AcDbLine
 10
8.334947593920949
 20
-6.433520750456799
 11
8.320108381322525
 21
-6.417599018173334
  0
LINE
  5
B2
100
AcDbEntity
  8
BLACK
  6
CONTINUOUS
 62
  256
370
   -1
100
AcDbLine
 10
8.320108381322525
 20
-6.417599018173334
 11
8.307270743527249
 21
-6.400023585102467
  0
LINE
  5
B3
100
AcDbEntity
  8
BLACK
  6
CONTINUOUS
 62
  256
370
   -1
100
AcDbLine
 10
8.307270743527249
 20
-6.400023585102467
 11
8.307267751401264
 21
-6.400025474866247
  0
LINE
  5
B4
100
AcDbEntity
  8
BLACK
  6
CONTINUOUS
 62
  256
370
   -1
100
AcDbLine
 10
8.307267751401264
 20
-6.400025474866247
 11
8.307224129354021
 21
-6.399859648094592
  0
LINE
  5
B5
100
AcDbEntity
  8
BLACK
  6
CONTINUOUS
 62
  256
370
   -1
100
AcDbLine
 10
8.307224129354021
 20
-6.399859648094592
 11
8.307032633291028
 21
-6.399605159905617
  0
LINE
  5
B6
100
AcDbEntity
  8
BLACK
  6
CONTINUOUS
 62
  256
370
   -1
100
AcDbLine
 10
8.307032633291028
 20
-6.399605159905617
 11
8.236598145102052
 21
-6.253341537858372
  0
LINE
  5
B7
100
AcDbEntity
  8
BLACK
  6
CONTINUOUS
 62
  256
370
   -1
100
AcDbLine
 10
8.236598145102052
 20
-6.253341537858372
 11
7.171402082109926
 21
-6.253341537858372
  0
LINE
  5
B8
100
AcDbEntity
  8
BLACK
  6
CONTINUOUS
 62
  256
370
   -1
100
AcDbLine
 10
7.171402082109926
 20
-6.253341537858372
 11
7.091015782897328
 21
-6.399791380378058
  0
LINE
  5
B9
100
AcDbEntity
  8
BLACK
  6
CONTINUOUS
 62
  256
370
   -1
100
AcDbLine
 10
7.091015782897328
 20
-6.399791380378058
 11
7.090902003369768
 21
-6.399926892189081
  0
LINE
  5
BA
100
AcDbEntity
  8
BLACK
  6
CONTINUOUS
 62
  256
370
   -1
100
AcDbLine
 10
7.090902003369768
 20
-6.399926892189081
 11
7.090876176598114
 21
-6.400025238645775
  0
LINE
  5
BB
100
AcDbEntity
  8
BLACK
  6
CONTINUOUS
 62
  256
370
   -1
100
AcDbLine
 10
7.090876176598114
 20
-6.400025238645775
 11
7.090876176598114
 21
-6.400025159905617
  0
LINE
  5
BC
100
AcDbEntity
  8
BLACK
  6
CONTINUOUS
 62
  256
370
   -1
100
AcDbLine
 10
7.090876176598114
 20
-6.400025159905617
 11
7.078038066361893
 21
-6.417600907937112
  0
LINE
  5
BD
100
AcDbEntity
  8
BLACK
  6
CONTINUOUS
 62
  256
370
   -1
100
AcDbLine
 10
7.078038066361893
 20
-6.417600907937112
 11
7.063198538802839
 21
-6.433522955181207
  0
LINE
  5
BE
100
AcDbEntity
  8
BLACK
  6
CONTINUOUS
 62
  256
370
   -1
100
AcDbLine
 10
7.063198538802839
 20
-6.433522955181207
 11
7.046568617542997
 21
-6.447564687464672
  0
LINE
  5
BF
100
AcDbEntity
  8
BLACK
  6
CONTINUOUS
 62
  256
370
   -1
100
AcDbLine
 10
7.046568617542997
 20
-6.447564687464672
 11
7.028384995495754
 21
-6.45952634100798
  0
LINE
  5
C0
100
AcDbEntity
  8
BLACK
  6
CONTINUOUS
 62
  256
370
   -1
100
AcDbLine
 10
7.028384995495754
 20
-6.45952634100798
 11
7.008906491558745
 21
-6.469237600850498
  0
LINE
  5
C1
100
AcDbEntity
  8
BLACK
  6
CONTINUOUS
 62
  256
370
   -1
100
AcDbLine
 10
7.008906491558745
 20
-6.469237600850498
 11
6.988410192346146
 21
-6.476560514236326
  0
LINE
  5
C2
100
AcDbEntity
  8
BLACK
  6
CONTINUOUS
 62
  256
370
   -1
100
AcDbLine
 10
6.988410192346146
 20
-6.476560514236326
 11
6.967187672661106
 21
-6.481390592976483
  0
LINE
  5
C3
100
AcDbEntity
  8
BLACK
  6
CONTINUOUS
 62
  256
370
   -1
100
AcDbLine
 10
6.967187672661106
 20
-6.481390592976483
 11
6.945541058487878
 21
-6.483659333133962
  0
LINE
  5
C4
100
AcDbEntity
  8
BLACK
  6
CONTINUOUS
 62
  256
370
   -1
100
AcDbLine
 10
6.945541058487878
 20
-6.483659333133962
 11
6.923778302582368
 21
-6.483334372504043
  0
LINE
  5
C5
100
AcDbEntity
  8
BLACK
  6
CONTINUOUS
 62
  256
370
   -1
100
AcDbLine
 10
6.923778302582368
 20
-6.483334372504043
 11
6.923778617542999
 21
-6.483330592976483
  0
LINE
  5
C6
100
AcDbEntity
  8
BLACK
  6
CONTINUOUS
 62
  256
370
   -1
100
AcDbLine
 10
6.923778617542999
 20
-6.483330592976483
 11
6.923298381322523
 21
-6.483133821322939
  0
LINE
  5
C7
100
AcDbEntity
  8
BLACK
  6
CONTINUOUS
 62
  256
370
   -1
100
AcDbLine
 10
6.923298381322523
 20
-6.483133821322939
 11
6.9227791687241
 21
-6.483123270141837
  0
LINE
  5
C8
100
AcDbEntity
  8
BLACK
  6
CONTINUOUS
 62
  256
370
   -1
100
AcDbLine
 10
6.9227791687241
 20
-6.483123270141837
 11
6.844691924629609
 21
-6.454437049669396
  0
LINE
  5
C9
100
AcDbEntity
  8
BLACK
  6
CONTINUOUS
 62
  256
370
   -1
100
AcDbLine
 10
6.844691924629609
 20
-6.454437049669396
 11
6.767654365574492
 21
-6.42304067171664
  0
LINE
  5
CA
100
AcDbEntity
  8
BLACK
  6
CONTINUOUS
 62
  256
370
   -1
100
AcDbLine
 10
6.767654365574492
 20
-6.42304067171664
 11
6.691760507306777
 21
-6.388972404000105
  0
LINE
  5
CB
100
AcDbEntity
  8
BLACK
  6
CONTINUOUS
 62
  256
370
   -1
100
AcDbLine
 10
6.691760507306777
 20
-6.388972404000105
 11
6.617103026991815
 21
-6.352273900063096
  0
LINE
  5
CC
100
AcDbEntity
  8
BLACK
  6
CONTINUOUS
 62
  256
370
   -1
100
AcDbLine
 10
6.617103026991815
 20
-6.352273900063096
 11
6.543773105731974
 21
-6.312989884315066
  0
LINE
  5
CD
100
AcDbEntity
  8
BLACK
  6
CONTINUOUS
 62
  256
370
   -1
100
AcDbLine
 10
6.543773105731974
 20
-6.312989884315066
 11
6.47186011360599
 21
-6.271168388252073
  0
LINE
  5
CE
100
AcDbEntity
  8
BLACK
  6
CONTINUOUS
 62
  256
370
   -1
100
AcDbLine
 10
6.47186011360599
 20
-6.271168388252073
 11
6.40145192462961
 21
-6.22686035675601
  0
LINE
  5
CF
100
AcDbEntity
  8
BLACK
  6
CONTINUOUS
 62
  256
370
   -1
100
AcDbLine
 10
6.40145192462961
 20
-6.22686035675601
 11
6.332634365574494
 21
-6.180119884315065
  0
LINE
  5
D0
100
AcDbEntity
  8
BLACK
  6
CONTINUOUS
 62
  256
370
   -1
100
AcDbLine
 10
6.332634365574494
 20
-6.180119884315065
 11
6.265491609668983
 21
-6.131004057543413
  0
LINE
  5
D1
100
AcDbEntity
  8
BLACK
  6
CONTINUOUS
 62
  256
370
   -1
100
AcDbLine
 10
6.265491609668983
 20
-6.131004057543413
 11
6.200105467936696
 21
-6.07957287644105
  0
LINE
  5
D2
100
AcDbEntity
  8
BLACK
  6
CONTINUOUS
 62
  256
370
   -1
100
AcDbLine
 10
6.200105467936696
 20
-6.07957287644105
 11
6.136555782897327
 21
-6.025888939433177
  0
LINE
  5
D3
100
AcDbEntity
  8
BLACK
  6
CONTINUOUS
 62
  256
370
   -1
100
AcDbLine
 10
6.136555782897327
 20
-6.025888939433177
 11
6.074920113605989
 21
-5.970017994551286
  0
LINE
  5
D4
100
AcDbEntity
  8
BLACK
  6
CONTINUOUS
 62
  256
370
   -1
100
AcDbLine
 10
6.074920113605989
 20
-5.970017994551286
 11
6.015273735653233
 21
-5.912028152031601
  0
LINE
  5
D5
100
AcDbEntity
  8
BLACK
  6
CONTINUOUS
 62
  256
370
   -1
100
AcDbLine
 10
6.015273735653233
 20
-5.912028152031601
 11
5.957689404944572
 21
-5.851990120535538
  0
LINE
  5
D6
100
AcDbEntity
  8
BLACK
  6
CONTINUOUS
 62
  256
370
   -1
100
AcDbLine
 10
5.957689404944572
 20
-5.851990120535538
 11
5.902237436440634
 21
-5.789977207149711
  0
LINE
  5
D7
100
AcDbEntity
  8
BLACK
  6
CONTINUOUS
 62
  256
370
   -1
100
AcDbLine
 10
5.902237436440634
 20
-5.789977207149711
 11
5.848985467936698
 21
-5.726065159905616
  0
LINE
  5
D8
100
AcDbEntity
  8
BLACK
  6
CONTINUOUS
 62
  256
370
   -1
100
AcDbLine
 10
5.848985467936698
 20
-5.726065159905616
 11
5.797998538802839
 21
-5.66033193155916
  0
LINE
  5
D9
100
AcDbEntity
  8
BLACK
  6
CONTINUOUS
 62
  256
370
   -1
100
AcDbLine
 10
5.797998538802839
 20
-5.66033193155916
 11
5.749338932503626
 21
-5.592857837070971
  0
LINE
  5
DA
100
AcDbEntity
  8
BLACK
  6
CONTINUOUS
 62
  256
370
   -1
100
AcDbLine
 10
5.749338932503626
 20
-5.592857837070971
 11
5.703065940377643
 21
-5.523725159905617
  0
LINE
  5
DB
100
AcDbEntity
  8
BLACK
  6
CONTINUOUS
 62
  256
370
   -1
100
AcDbLine
 10
5.703065940377643
 20
-5.523725159905617
 11
5.659236097857958
 21
-5.453018230771759
  0
LINE
  5
DC
100
AcDbEntity
  8
BLACK
  6
CONTINUOUS
 62
  256
370
   -1
100
AcDbLine
 10
5.659236097857958
 20
-5.453018230771759
 11
5.6179028695115
 21
-5.38082350636231
  0
LINE
  5
DD
100
AcDbEntity
  8
BLACK
  6
CONTINUOUS
 62
  256
370
   -1
100
AcDbLine
 10
5.6179028695115
 20
-5.38082350636231
 11
5.579116727779217
 21
-5.307228939433175
  0
LINE
  5
DE
100
AcDbEntity
  8
BLACK
  6
CONTINUOUS
 62
  256
370
   -1
100
AcDbLine
 10
5.579116727779217
 20
-5.307228939433175
 11
5.542924995495753
 21
-5.232324529984357
  0
LINE
  5
DF
100
AcDbEntity
  8
BLACK
  6
CONTINUOUS
 62
  256
370
   -1
100
AcDbLine
 10
5.542924995495753
 20
-5.232324529984357
 11
5.509371924629612
 21
-5.156201537858372
  0
LINE
  5
E0
100
AcDbEntity
  8
BLACK
  6
CONTINUOUS
 62
  256
370
   -1
100
AcDbLine
 10
5.509371924629612
 20
-5.156201537858372
 11
5.478498381322524
 21
-5.078952955181208
  0
LINE
  5
E1
100
AcDbEntity
  8
BLACK
  6
CONTINUOUS
 62
  256
370
   -1
100
AcDbLine
 10
5.478498381322524
 20
-5.078952955181208
 11
5.450342003369769
 21
-5.000673112661522
  0
LINE
  5
E2
100
AcDbEntity
  8
BLACK
  6
CONTINUOUS
 62
  256
370
   -1
100
AcDbLine
 10
5.450342003369769
 20
-5.000673112661522
 11
5.450344838015438
 21
-5.000672167779632
  0
LINE
  5
E3
100
AcDbEntity
  8
BLACK
  6
CONTINUOUS
 62
  256
370
   -1
100
AcDbLine
 10
5.450344838015438
 20
-5.000672167779632
 11
5.450341688409139
 21
-5.000443348881994
  0
LINE
  5
E4
100
AcDbEntity
  8
BLACK
  6
CONTINUOUS
 62
  256
370
   -1
100
AcDbLine
 10
5.450341688409139
 20
-5.000443348881994
 11
5.450135074235909
 21
-4.999404529984357
  0
LINE
  5
E5
100
AcDbEntity
  8
BLACK
  6
CONTINUOUS
 62
  256
370
   -1
100
AcDbLine
 10
5.450135074235909
 20
-4.999404529984357
 11
5.450135074235909
 21
-4.229404529984357
  0
LINE
  5
E6
100
AcDbEntity
  8
BLACK
  6
CONTINUOUS
 62
  256
370
   -1
100
AcDbLine
 10
5.450135074235909
 20
-4.229404529984357
 11
5.450135074235909
 21
-3.459404529984357
  0
LINE
  5
E7
100
AcDbEntity
  8
BLACK
  6
CONTINUOUS
 62
  256
370
   -1
100
AcDbLine
 10
5.450135074235909
 20
-3.459404529984357
 11
5.450340979747722
 21
-3.458369096913491
  0
LINE
  5
E8
100
AcDbEntity
  8
BLACK
  6
CONTINUOUS
 62
  256
370
   -1
100
AcDbLine
 10
5.450340979747722
 20
-3.458369096913491
 11
5.450344050613863
 21
-3.458139018173334
  0
LINE
  5
E9
100
AcDbEntity
  8
BLACK
  6
CONTINUOUS
 62
  256
370
   -1
100
AcDbLine
 10
5.450344050613863
 20
-3.458139018173334
 11
5.478579956125674
 21
-3.379542167779633
  0
LINE
  5
EA
100
AcDbEntity
  8
BLACK
  6
CONTINUOUS
 62
  256
370
   -1
100
AcDbLine
 10
5.478579956125674
 20
-3.379542167779633
 11
5.509569247464256
 21
-3.301989569354436
  0
LINE
  5
EB
100
AcDbEntity
  8
BLACK
  6
CONTINUOUS
 62
  256
370
   -1
100
AcDbLine
 10
5.509569247464256
 20
-3.301989569354436
 11
5.543273341952446
 21
-3.225577758330814
  0
LINE
  5
EC
100
AcDbEntity
  8
BLACK
  6
CONTINUOUS
 62
  256
370
   -1
100
AcDbLine
 10
5.543273341952446
 20
-3.225577758330814
 11
5.579650349826462
 21
-3.150401695338688
  0
LINE
  5
ED
100
AcDbEntity
  8
BLACK
  6
CONTINUOUS
 62
  256
370
   -1
100
AcDbLine
 10
5.579650349826462
 20
-3.150401695338688
 11
5.61865507423591
 21
-3.07655476620483
  0
LINE
  5
EE
100
AcDbEntity
  8
BLACK
  6
CONTINUOUS
 62
  256
370
   -1
100
AcDbLine
 10
5.61865507423591
 20
-3.07655476620483
 11
5.660238932503626
 21
-3.004128939433177
  0
LINE
  5
EF
100
AcDbEntity
  8
BLACK
  6
CONTINUOUS
 62
  256
370
   -1
100
AcDbLine
 10
5.660238932503626
 20
-3.004128939433177
 11
5.704350349826461
 21
-2.933214057543413
  0
LINE
  5
F0
100
AcDbEntity
  8
BLACK
  6
CONTINUOUS
 62
  256
370
   -1
100
AcDbLine
 10
5.704350349826461
 20
-2.933214057543413
 11
5.75093444431465
 21
-2.863898466992232
  0
LINE
  5
F1
100
AcDbEntity
  8
BLACK
  6
CONTINUOUS
 62
  256
370
   -1
100
AcDbLine
 10
5.75093444431465
 20
-2.863898466992232
 11
5.799933263212289
 21
-2.796268230771759
  0
LINE
  5
F2
100
AcDbEntity
  8
BLACK
  6
CONTINUOUS
 62
  256
370
   -1
100
AcDbLine
 10
5.799933263212289
 20
-2.796268230771759
 11
5.851285940377643
 21
-2.730407522110342
  0
LINE
  5
F3
100
AcDbEntity
  8
BLACK
  6
CONTINUOUS
 62
  256
370
   -1
100
AcDbLine
 10
5.851285940377643
 20
-2.730407522110342
 11
5.904928617542996
 21
-2.666398152031602
  0
LINE
  5
F4
100
AcDbEntity
  8
BLACK
  6
CONTINUOUS
 62
  256
370
   -1
100
AcDbLine
 10
5.904928617542996
 20
-2.666398152031602
 11
5.960794523054808
 21
-2.604319726834751
  0
LINE
  5
F5
100
AcDbEntity
  8
BLACK
  6
CONTINUOUS
 62
  256
370
   -1
100
AcDbLine
 10
5.960794523054808
 20
-2.604319726834751
 11
6.018814286834335
 21
-2.544249490614279
  0
LINE
  5
F6
100
AcDbEntity
  8
BLACK
  6
CONTINUOUS
 62
  256
370
   -1
100
AcDbLine
 10
6.018814286834335
 20
-2.544249490614279
 11
6.07891570415717
 21
-2.486262010299318
  0
LINE
  5
F7
100
AcDbEntity
  8
BLACK
  6
CONTINUOUS
 62
  256
370
   -1
100
AcDbLine
 10
6.07891570415717
 20
-2.486262010299318
 11
6.141024129354021
 21
-2.430429411874121
  0
LINE
  5
F8
100
AcDbEntity
  8
BLACK
  6
CONTINUOUS
 62
  256
370
   -1
100
AcDbLine
 10
6.141024129354021
 20
-2.430429411874121
 11
6.2050623183304
 21
-2.376821222897743
  0
LINE
  5
F9
100
AcDbEntity
  8
BLACK
  6
CONTINUOUS
 62
  256
370
   -1
100
AcDbLine
 10
6.2050623183304
 20
-2.376821222897743
 11
6.270950586046935
 21
-2.325503900063098
  0
LINE
  5
FA
100
AcDbEntity
  8
BLACK
  6
CONTINUOUS
 62
  256
370
   -1
100
AcDbLine
 10
6.270950586046935
 20
-2.325503900063098
 11
6.338607121480004
 21
-2.276541459118216
  0
LINE
  5
FB
100
AcDbEntity
  8
BLACK
  6
CONTINUOUS
 62
  256
370
   -1
100
AcDbLine
 10
6.338607121480004
 20
-2.276541459118216
 11
6.407947751401265
 21
-2.229994608724515
  0
LINE
  5
FC
100
AcDbEntity
  8
BLACK
  6
CONTINUOUS
 62
  256
370
   -1
100
AcDbLine
 10
6.407947751401265
 20
-2.229994608724515
 11
6.47888633407843
 21
-2.1859213016379
  0
LINE
  5
FD
100
AcDbEntity
  8
BLACK
  6
CONTINUOUS
 62
  256
370
   -1
100
AcDbLine
 10
6.47888633407843
 20
-2.1859213016379
 11
6.551334523054807
 21
-2.144376262267822
  0
LINE
  5
FE
100
AcDbEntity
  8
BLACK
  6
CONTINUOUS
 62
  256
370
   -1
100
AcDbLine
 10
6.551334523054807
 20
-2.144376262267822
 11
6.6252023183304
 21
-2.105411222897744
  0
LINE
  5
FF
100
AcDbEntity
  8
BLACK
  6
CONTINUOUS
 62
  256
370
   -1
100
AcDbLine
 10
6.6252023183304
 20
-2.105411222897744
 11
6.700397987621736
 21
-2.069074608724515
  0
LINE
  5
100
100
AcDbEntity
  8
BLACK
  6
CONTINUOUS
 62
  256
370
   -1
100
AcDbLine
 10
6.700397987621736
 20
-2.069074608724515
 11
6.776827908881581
 21
-2.035411616598531
  0
LINE
  5
101
100
AcDbEntity
  8
BLACK
  6
CONTINUOUS
 62
  256
370
   -1
100
AcDbLine
 10
6.776827908881581
 20
-2.035411616598531
 11
6.854397042739846
 21
-2.004463978803255
  0
LINE
  5
102
100
AcDbEntity
  8
BLACK
  6
CONTINUOUS
 62
  256
370
   -1
100
AcDbLine
 10
6.854397042739846
 20
-2.004463978803255
 11
6.931211058487877
 21
-1.976915159905617
  0
LINE
  5
103
100
AcDbEntity
  8
BLACK
  6
CONTINUOUS
 62
  256
370
   -1
100
AcDbLine
 10
6.931211058487877
 20
-1.976915159905617
 11
6.931526963999689
 21
-1.97640413628357
  0
LINE
  5
104
100
AcDbEntity
  8
BLACK
  6
CONTINUOUS
 62
  256
370
   -1
100
AcDbLine
 10
6.931526963999689
 20
-1.97640413628357
 11
6.933778460062682
 21
-1.975481616598531
  0
LINE
  5
105
100
AcDbEntity
  8
BLACK
  6
CONTINUOUS
 62
  256
370
   -1
100
AcDbLine
 10
6.933778460062682
 20
-1.975481616598531
 11
6.933778460062682
 21
-1.975481695338689
  0
LINE
  5
106
100
AcDbEntity
  8
BLACK
  6
CONTINUOUS
 62
  256
370
   -1
100
AcDbLine
 10
6.933778460062682
 20
-1.975481695338689
 11
6.955541215968195
 21
-1.975154844944987
  0
LINE
  5
107
100
AcDbEntity
  8
BLACK
  6
CONTINUOUS
 62
  256
370
   -1
100
AcDbLine
 10
6.955541215968195
 20
-1.975154844944987
 11
6.977187987621738
 21
-1.977421852819003
  0
LINE
  5
108
100
AcDbEntity
  8
BLACK
  6
CONTINUOUS
 62
  256
370
   -1
100
AcDbLine
 10
6.936252790771343
 20
-1.983193270141838
 11
6.935536176598115
 21
-1.983727837070972
  0
LINE
  5
109
100
AcDbEntity
  8
BLACK
  6
CONTINUOUS
 62
  256
370
   -1
100
AcDbLine
 10
6.935536176598115
 20
-1.983727837070972
 11
6.8961128695115
 21
-1.997086262267822
  0
LINE
  5
10A
100
AcDbEntity
  8
BLACK
  6
CONTINUOUS
 62
  256
370
   -1
100
AcDbLine
 10
6.8961128695115
 20
-1.997086262267822
 11
6.818257593920949
 21
-2.026567758330815
  0
LINE
  5
10B
100
AcDbEntity
  8
BLACK
  6
CONTINUOUS
 62
  256
370
   -1
100
AcDbLine
 10
6.818257593920949
 20
-2.026567758330815
 11
6.741490192346147
 21
-2.05877571108672
  0
LINE
  5
10C
100
AcDbEntity
  8
BLACK
  6
CONTINUOUS
 62
  256
370
   -1
100
AcDbLine
 10
6.741490192346147
 20
-2.05877571108672
 11
6.665905940377643
 21
-2.093670041795381
  0
LINE
  5
10D
100
AcDbEntity
  8
BLACK
  6
CONTINUOUS
 62
  256
370
   -1
100
AcDbLine
 10
6.665905940377643
 20
-2.093670041795381
 11
6.59159885376347
 21
-2.131207364630027
  0
LINE
  5
10E
100
AcDbEntity
  8
BLACK
  6
CONTINUOUS
 62
  256
370
   -1
100
AcDbLine
 10
6.59159885376347
 20
-2.131207364630027
 11
6.518661373448507
 21
-2.171341065417428
  0
LINE
  5
10F
100
AcDbEntity
  8
BLACK
  6
CONTINUOUS
 62
  256
370
   -1
100
AcDbLine
 10
6.518661373448507
 20
-2.171341065417428
 11
6.447184050613862
 21
-2.214021144157586
  0
LINE
  5
110
100
AcDbEntity
  8
BLACK
  6
CONTINUOUS
 62
  256
370
   -1
100
AcDbLine
 10
6.447184050613862
 20
-2.214021144157586
 11
6.377255940377642
 21
-2.259194687464672
  0
LINE
  5
111
100
AcDbEntity
  8
BLACK
  6
CONTINUOUS
 62
  256
370
   -1
100
AcDbLine
 10
6.377255940377642
 20
-2.259194687464672
 11
6.308963814393392
 21
-2.306805396126089
  0
LINE
  5
112
100
AcDbEntity
  8
BLACK
  6
CONTINUOUS
 62
  256
370
   -1
100
AcDbLine
 10
6.308963814393392
 20
-2.306805396126089
 11
6.242392633291027
 21
-2.35679413628357
  0
LINE
  5
113
100
AcDbEntity
  8
BLACK
  6
CONTINUOUS
 62
  256
370
   -1
100
AcDbLine
 10
6.242392633291027
 20
-2.35679413628357
 11
6.177625231716226
 21
-2.409098781952861
  0
LINE
  5
114
100
AcDbEntity
  8
BLACK
  6
CONTINUOUS
 62
  256
370
   -1
100
AcDbLine
 10
6.177625231716226
 20
-2.409098781952861
 11
6.114742082109926
 21
-2.463654215023727
  0
LINE
  5
115
100
AcDbEntity
  8
BLACK
  6
CONTINUOUS
 62
  256
370
   -1
100
AcDbLine
 10
6.114742082109926
 20
-2.463654215023727
 11
6.053821294708351
 21
-2.520392718960735
  0
LINE
  5
116
100
AcDbEntity
  8
BLACK
  6
CONTINUOUS
 62
  256
370
   -1
100
AcDbLine
 10
6.053821294708351
 20
-2.520392718960735
 11
5.994938696283155
 21
-2.579243663842625
  0
LINE
  5
117
100
AcDbEntity
  8
BLACK
  6
CONTINUOUS
 62
  256
370
   -1
100
AcDbLine
 10
5.994938696283155
 20
-2.579243663842625
 11
5.938167515180792
 21
-2.640133900063098
  0
LINE
  5
118
100
AcDbEntity
  8
BLACK
  6
CONTINUOUS
 62
  256
370
   -1
100
AcDbLine
 10
5.938167515180792
 20
-2.640133900063098
 11
5.883578302582366
 21
-2.702987758330814
  0
LINE
  5
119
100
AcDbEntity
  8
BLACK
  6
CONTINUOUS
 62
  256
370
   -1
100
AcDbLine
 10
5.883578302582366
 20
-2.702987758330814
 11
5.83123885376347
 21
-2.767727128409554
  0
LINE
  5
11A
100
AcDbEntity
  8
BLACK
  6
CONTINUOUS
 62
  256
370
   -1
100
AcDbLine
 10
5.83123885376347
 20
-2.767727128409554
 11
5.781214365574494
 21
-2.834271380378059
  0
LINE
  5
11B
100
AcDbEntity
  8
BLACK
  6
CONTINUOUS
 62
  256
370
   -1
100
AcDbLine
 10
5.781214365574494
 20
-2.834271380378059
 11
5.73356696399969
 21
-2.902537915811129
  0
LINE
  5
11C
100
AcDbEntity
  8
BLACK
  6
CONTINUOUS
 62
  256
370
   -1
100
AcDbLine
 10
5.73356696399969
 20
-2.902537915811129
 11
5.688355861637485
 21
-2.972441774078846
  0
LINE
  5
11D
100
AcDbEntity
  8
BLACK
  6
CONTINUOUS
 62
  256
370
   -1
100
AcDbLine
 10
5.688355861637485
 20
-2.972441774078846
 11
5.645637357700478
 21
-3.043896104787507
  0
LINE
  5
11E
100
AcDbEntity
  8
BLACK
  6
CONTINUOUS
 62
  256
370
   -1
100
AcDbLine
 10
5.645637357700478
 20
-3.043896104787507
 11
5.605464523054808
 21
-3.116812089039475
  0
LINE
  5
11F
100
AcDbEntity
  8
BLACK
  6
CONTINUOUS
 62
  256
370
   -1
100
AcDbLine
 10
5.605464523054808
 20
-3.116812089039475
 11
5.56788727896032
 21
-3.191098939433176
  0
LINE
  5
120
100
AcDbEntity
  8
BLACK
  6
CONTINUOUS
 62
  256
370
   -1
100
AcDbLine
 10
5.56788727896032
 20
-3.191098939433176
 11
5.532952318330398
 21
-3.2666644512442
  0
LINE
  5
121
100
AcDbEntity
  8
BLACK
  6
CONTINUOUS
 62
  256
370
   -1
100
AcDbLine
 10
5.532952318330398
 20
-3.2666644512442
 11
5.500703184472131
 21
-3.343414608724515
  0
LINE
  5
122
100
AcDbEntity
  8
BLACK
  6
CONTINUOUS
 62
  256
370
   -1
100
AcDbLine
 10
5.500703184472131
 20
-3.343414608724515
 11
5.471179877385516
 21
-3.421253978803255
  0
LINE
  5
123
100
AcDbEntity
  8
BLACK
  6
CONTINUOUS
 62
  256
370
   -1
100
AcDbLine
 10
5.471179877385516
 20
-3.421253978803255
 11
5.458009089983943
 21
-3.460054687464673
  0
LINE
  5
124
100
AcDbEntity
  8
BLACK
  6
CONTINUOUS
 62
  256
370
   -1
100
AcDbLine
 10
5.458009089983943
 20
-3.460054687464673
 11
5.458009089983943
 21
-4.229404529984357
  0
LINE
  5
125
100
AcDbEntity
  8
BLACK
  6
CONTINUOUS
 62
  256
370
   -1
100
AcDbLine
 10
5.458009089983943
 20
-4.229404529984357
 11
5.458009089983943
 21
-4.998762246519791
  0
LINE
  5
126
100
AcDbEntity
  8
BLACK
  6
CONTINUOUS
 62
  256
370
   -1
100
AcDbLine
 10
5.458009089983943
 20
-4.998762246519791
 11
5.471147436440635
 21
-5.037393270141838
  0
LINE
  5
127
100
AcDbEntity
  8
BLACK
  6
CONTINUOUS
 62
  256
370
   -1
100
AcDbLine
 10
5.471147436440635
 20
-5.037393270141838
 11
5.500573735653234
 21
-5.114923978803255
  0
LINE
  5
128
100
AcDbEntity
  8
BLACK
  6
CONTINUOUS
 62
  256
370
   -1
100
AcDbLine
 10
5.500573735653234
 20
-5.114923978803255
 11
5.532690349826462
 21
-5.191379490614278
  0
LINE
  5
129
100
AcDbEntity
  8
BLACK
  6
CONTINUOUS
 62
  256
370
   -1
100
AcDbLine
 10
5.532690349826462
 20
-5.191379490614278
 11
5.567458066361894
 21
-5.266666498488293
  0
LINE
  5
12A
100
AcDbEntity
  8
BLACK
  6
CONTINUOUS
 62
  256
370
   -1
100
AcDbLine
 10
5.567458066361894
 20
-5.266666498488293
 11
5.604834365574494
 21
-5.340693033921365
  0
LINE
  5
12B
100
AcDbEntity
  8
BLACK
  6
CONTINUOUS
 62
  256
370
   -1
100
AcDbLine
 10
5.604834365574494
 20
-5.340693033921365
 11
5.644773814393391
 21
-5.413368781952862
  0
LINE
  5
12C
100
AcDbEntity
  8
BLACK
  6
CONTINUOUS
 62
  256
370
   -1
100
AcDbLine
 10
5.644773814393391
 20
-5.413368781952862
 11
5.687227436440635
 21
-5.484605002425301
  0
LINE
  5
12D
100
AcDbEntity
  8
BLACK
  6
CONTINUOUS
 62
  256
370
   -1
100
AcDbLine
 10
5.687227436440635
 20
-5.484605002425301
 11
5.732143578172918
 21
-5.554314844944987
  0
LINE
  5
12E
100
AcDbEntity
  8
BLACK
  6
CONTINUOUS
 62
  256
370
   -1
100
AcDbLine
 10
5.732143578172918
 20
-5.554314844944987
 11
5.779467357700478
 21
-5.62241319140168
  0
LINE
  5
12F
100
AcDbEntity
  8
BLACK
  6
CONTINUOUS
 62
  256
370
   -1
100
AcDbLine
 10
5.779467357700478
 20
-5.62241319140168
 11
5.829141058487879
 21
-5.688816813448923
  0
LINE
  5
130
100
AcDbEntity
  8
BLACK
  6
CONTINUOUS
 62
  256
370
   -1
100
AcDbLine
 10
5.829141058487879
 20
-5.688816813448923
 11
5.881103971873706
 21
-5.753444766204829
  0
LINE
  5
131
100
AcDbEntity
  8
BLACK
  6
CONTINUOUS
 62
  256
370
   -1
100
AcDbLine
 10
5.881103971873706
 20
-5.753444766204829
 11
5.935292712031186
 21
-5.816218230771758
  0
LINE
  5
132
100
AcDbEntity
  8
BLACK
  6
CONTINUOUS
 62
  256
370
   -1
100
AcDbLine
 10
5.935292712031186
 20
-5.816218230771758
 11
5.991641137228036
 21
-5.87706035675601
  0
LINE
  5
133
100
AcDbEntity
  8
BLACK
  6
CONTINUOUS
 62
  256
370
   -1
100
AcDbLine
 10
5.991641137228036
 20
-5.87706035675601
 11
6.050080507306776
 21
-5.935897128409554
  0
LINE
  5
134
100
AcDbEntity
  8
BLACK
  6
CONTINUOUS
 62
  256
370
   -1
100
AcDbLine
 10
6.050080507306776
 20
-5.935897128409554
 11
6.110539404944573
 21
-5.992656577228452
  0
LINE
  5
135
100
AcDbEntity
  8
BLACK
  6
CONTINUOUS
 62
  256
370
   -1
100
AcDbLine
 10
6.110539404944573
 20
-5.992656577228452
 11
6.17294412935402
 21
-6.047269569354436
  0
LINE
  5
136
100
AcDbEntity
  8
BLACK
  6
CONTINUOUS
 62
  256
370
   -1
100
AcDbLine
 10
6.17294412935402
 20
-6.047269569354436
 11
6.237218460062683
 21
-6.099669254393806
  0
LINE
  5
137
100
AcDbEntity
  8
BLACK
  6
CONTINUOUS
 62
  256
370
   -1
100
AcDbLine
 10
6.237218460062683
 20
-6.099669254393806
 11
6.303283893133548
 21
-6.149791774078846
  0
LINE
  5
138
100
AcDbEntity
  8
BLACK
  6
CONTINUOUS
 62
  256
370
   -1
100
AcDbLine
 10
6.303283893133548
 20
-6.149791774078846
 11
6.371059956125675
 21
-6.197576026047349
  0
LINE
  5
139
100
AcDbEntity
  8
BLACK
  6
CONTINUOUS
 62
  256
370
   -1
100
AcDbLine
 10
6.371059956125675
 20
-6.197576026047349
 11
6.440463735653234
 21
-6.242963585102467
  0
LINE
  5
13A
100
AcDbEntity
  8
BLACK
  6
CONTINUOUS
 62
  256
370
   -1
100
AcDbLine
 10
6.440463735653234
 20
-6.242963585102467
 11
6.511410664787091
 21
-6.285899018173334
  0
LINE
  5
13B
100
AcDbEntity
  8
BLACK
  6
CONTINUOUS
 62
  256
370
   -1
100
AcDbLine
 10
6.511410664787091
 20
-6.285899018173334
 11
6.583814050613862
 21
-6.32633004179538
  0
LINE
  5
13C
100
AcDbEntity
  8
BLACK
  6
CONTINUOUS
 62
  256
370
   -1
100
AcDbLine
 10
6.583814050613862
 20
-6.32633004179538
 11
6.657585625417012
 21
-6.364207207149711
  0
LINE
  5
13D
100
AcDbEntity
  8
BLACK
  6
CONTINUOUS
 62
  256
370
   -1
100
AcDbLine
 10
6.657585625417012
 20
-6.364207207149711
 11
6.732635231716225
 21
-6.399484372504043
  0
LINE
  5
13E
100
AcDbEntity
  8
BLACK
  6
CONTINUOUS
 62
  256
370
   -1
100
AcDbLine
 10
6.732635231716225
 20
-6.399484372504043
 11
6.808871294708352
 21
-6.432118388252073
  0
LINE
  5
13F
100
AcDbEntity
  8
BLACK
  6
CONTINUOUS
 62
  256
370
   -1
100
AcDbLine
 10
6.808871294708352
 20
-6.432118388252073
 11
6.886200822267407
 21
-6.46206941187412
  0
LINE
  5
140
100
AcDbEntity
  8
BLACK
  6
CONTINUOUS
 62
  256
370
   -1
100
AcDbLine
 10
6.886200822267407
 20
-6.46206941187412
 11
6.924892003369768
 21
-6.475521459118216
  0
LINE
  5
141
100
AcDbEntity
  8
BLACK
  6
CONTINUOUS
 62
  256
370
   -1
100
AcDbLine
 10
6.924892003369768
 20
-6.475521459118216
 11
6.934767830141423
 21
-6.476255632346561
  0
LINE
  5
142
100
AcDbEntity
  8
BLACK
  6
CONTINUOUS
 62
  256
370
   -1
100
AcDbLine
 10
6.934767830141423
 20
-6.476255632346561
 11
6.95560948368473
 21
-6.475322404000105
  0
LINE
  5
143
100
AcDbEntity
  8
BLACK
  6
CONTINUOUS
 62
  256
370
   -1
100
AcDbLine
 10
6.95560948368473
 20
-6.475322404000105
 11
6.976191767149297
 21
-6.471914136283569
  0
LINE
  5
144
100
AcDbEntity
  8
BLACK
  6
CONTINUOUS
 62
  256
370
   -1
100
AcDbLine
 10
6.976191767149297
 20
-6.471914136283569
 11
6.996221767149295
 21
-6.466079254393806
  0
LINE
  5
145
100
AcDbEntity
  8
BLACK
  6
CONTINUOUS
 62
  256
370
   -1
100
AcDbLine
 10
6.996221767149295
 20
-6.466079254393806
 11
7.015414444314649
 21
-6.457900829196955
  0
LINE
  5
146
100
AcDbEntity
  8
BLACK
  6
CONTINUOUS
 62
  256
370
   -1
100
AcDbLine
 10
7.015414444314649
 20
-6.457900829196955
 11
7.033496806519375
 21
-6.447495159905618
  0
LINE
  5
147
100
AcDbEntity
  8
BLACK
  6
CONTINUOUS
 62
  256
370
   -1
100
AcDbLine
 10
7.033496806519375
 20
-6.447495159905618
 11
7.05021137344851
 21
-6.435010514236325
  0
LINE
  5
148
100
AcDbEntity
  8
BLACK
  6
CONTINUOUS
 62
  256
370
   -1
100
AcDbLine
 10
7.05021137344851
 20
-6.435010514236325
 11
7.065320507306778
 21
-6.420624293763884
  0
LINE
  5
149
100
AcDbEntity
  8
BLACK
  6
CONTINUOUS
 62
  256
370
   -1
100
AcDbLine
 10
7.065320507306778
 20
-6.420624293763884
 11
7.07860908998394
 21
-6.404541380378058
  0
LINE
  5
14A
100
AcDbEntity
  8
BLACK
  6
CONTINUOUS
 62
  256
370
   -1
100
AcDbLine
 10
7.07860908998394
 20
-6.404541380378058
 11
7.084182475810712
 21
-6.395876262267821
  0
LINE
  5
14B
100
AcDbEntity
  8
BLACK
  6
CONTINUOUS
 62
  256
370
   -1
100
AcDbLine
 10
7.084182475810712
 20
-6.395876262267821
 11
7.165620822267405
 21
-6.247510120535537
  0
LINE
  5
14C
100
AcDbEntity
  8
BLACK
  6
CONTINUOUS
 62
  256
370
   -1
100
AcDbLine
 10
7.165620822267405
 20
-6.247510120535537
 11
7.166608460062681
 21
-6.246333585102468
  0
LINE
  5
14D
100
AcDbEntity
  8
BLACK
  6
CONTINUOUS
 62
  256
370
   -1
100
AcDbLine
 10
7.166608460062681
 20
-6.246333585102468
 11
7.167159641165044
 21
-6.246173033921364
  0
LINE
  5
14E
100
AcDbEntity
  8
BLACK
  6
CONTINUOUS
 62
  256
370
   -1
100
AcDbLine
 10
7.167159641165044
 20
-6.246173033921364
 11
7.167565467936699
 21
-6.245767285889869
  0
LINE
  5
14F
100
AcDbEntity
  8
BLACK
  6
CONTINUOUS
 62
  256
370
   -1
100
AcDbLine
 10
7.167565467936699
 20
-6.245767285889869
 11
7.169072082109926
 21
-6.245467600850498
  0
LINE
  5
150
100
AcDbEntity
  8
BLACK
  6
CONTINUOUS
 62
  256
370
   -1
100
AcDbLine
 10
7.169072082109926
 20
-6.245467600850498
 11
8.239072082109926
 21
-6.24546752211034
  0
LINE
  5
151
100
AcDbEntity
  8
BLACK
  6
CONTINUOUS
 62
  256
370
   -1
100
AcDbLine
 10
8.239072082109926
 20
-6.24546752211034
 11
8.240578696283153
 21
-6.245767207149711
  0
LINE
  5
152
100
AcDbEntity
  8
BLACK
  6
CONTINUOUS
 62
  256
370
   -1
100
AcDbLine
 10
8.240578696283153
 20
-6.245767207149711
 11
8.241056963999691
 21
-6.246245474866246
  0
LINE
  5
153
100
AcDbEntity
  8
BLACK
  6
CONTINUOUS
 62
  256
370
   -1
100
AcDbLine
 10
8.241056963999691
 20
-6.246245474866246
 11
8.241695546676857
 21
-6.246468939433177
  0
LINE
  5
154
100
AcDbEntity
  8
BLACK
  6
CONTINUOUS
 62
  256
370
   -1
100
AcDbLine
 10
8.241695546676857
 20
-6.246468939433177
 11
8.242619247464257
 21
-6.247696341007979
  0
LINE
  5
155
100
AcDbEntity
  8
BLACK
  6
CONTINUOUS
 62
  256
370
   -1
100
AcDbLine
 10
8.242619247464257
 20
-6.247696341007979
 11
8.314009404944573
 21
-6.395944844944987
  0
LINE
  5
156
100
AcDbEntity
  8
BLACK
  6
CONTINUOUS
 62
  256
370
   -1
100
AcDbLine
 10
8.314009404944573
 20
-6.395944844944987
 11
8.319537672661108
 21
-6.40453972683475
  0
LINE
  5
157
100
AcDbEntity
  8
BLACK
  6
CONTINUOUS
 62
  256
370
   -1
100
AcDbLine
 10
8.319537672661108
 20
-6.40453972683475
 11
8.332825782897329
 21
-6.420622325259947
  0
LINE
  5
158
100
AcDbEntity
  8
BLACK
  6
CONTINUOUS
 62
  256
370
   -1
100
AcDbLine
 10
8.332825782897329
 20
-6.420622325259947
 11
8.347934523054809
 21
-6.435008073291444
  0
LINE
  5
159
100
AcDbEntity
  8
BLACK
  6
CONTINUOUS
 62
  256
370
   -1
100
AcDbLine
 10
8.347934523054809
 20
-6.435008073291444
 11
8.364648853763468
 21
-6.447492325259947
  0
LINE
  5
15A
100
AcDbEntity
  8
BLACK
  6
CONTINUOUS
 62
  256
370
   -1
100
AcDbLine
 10
8.364648853763468
 20
-6.447492325259947
 11
8.382730901007564
 21
-6.457897443370184
  0
LINE
  5
15B
100
AcDbEntity
  8
BLACK
  6
CONTINUOUS
 62
  256
370
   -1
100
AcDbLine
 10
8.382730901007564
 20
-6.457897443370184
 11
8.401923263212288
 21
-6.466075238645775
  0
LINE
  5
15C
100
AcDbEntity
  8
BLACK
  6
CONTINUOUS
 62
  256
370
   -1
100
AcDbLine
 10
8.401923263212288
 20
-6.466075238645775
 11
8.42195294825166
 21
-6.471909411874121
  0
LINE
  5
15D
100
AcDbEntity
  8
BLACK
  6
CONTINUOUS
 62
  256
370
   -1
100
AcDbLine
 10
8.42195294825166
 20
-6.471909411874121
 11
8.442534838015439
 21
-6.475316892189081
  0
LINE
  5
15E
100
AcDbEntity
  8
BLACK
  6
CONTINUOUS
 62
  256
370
   -1
100
AcDbLine
 10
8.442534838015439
 20
-6.475316892189081
 11
8.463376097857958
 21
-6.476249254393807
  0
LINE
  5
15F
100
AcDbEntity
  8
BLACK
  6
CONTINUOUS
 62
  256
370
   -1
100
AcDbLine
 10
8.463376097857958
 20
-6.476249254393807
 11
8.471891609668981
 21
-6.47561571108672
  0
LINE
  5
160
100
AcDbEntity
  8
BLACK
  6
CONTINUOUS
 62
  256
370
   -1
100
AcDbLine
 10
8.471891609668981
 20
-6.47561571108672
 11
8.472608145102052
 21
-6.4750813016379
  0
LINE
  5
161
100
AcDbEntity
  8
BLACK
  6
CONTINUOUS
 62
  256
370
   -1
100
AcDbLine
 10
8.472608145102052
 20
-6.4750813016379
 11
8.472608066361895
 21
-6.475081065417427
  0
LINE
  5
162
100
AcDbEntity
  8
BLACK
  6
CONTINUOUS
 62
  256
370
   -1
100
AcDbLine
 10
8.472608066361895
 20
-6.475081065417427
 11
8.51203137344851
 21
-6.461722640220577
  0
LINE
  5
163
100
AcDbEntity
  8
BLACK
  6
CONTINUOUS
 62
  256
370
   -1
100
AcDbLine
 10
8.51203137344851
 20
-6.461722640220577
 11
8.589886649039061
 21
-6.432241144157585
  0
LINE
  5
164
100
AcDbEntity
  8
BLACK
  6
CONTINUOUS
 62
  256
370
   -1
100
AcDbLine
 10
8.589886649039061
 20
-6.432241144157585
 11
8.666654050613863
 21
-6.400033191401679
  0
LINE
  5
165
100
AcDbEntity
  8
BLACK
  6
CONTINUOUS
 62
  256
370
   -1
100
AcDbLine
 10
8.666654050613863
 20
-6.400033191401679
 11
8.742238302582367
 21
-6.365138939433177
  0
LINE
  5
166
100
AcDbEntity
  8
BLACK
  6
CONTINUOUS
 62
  256
370
   -1
100
AcDbLine
 10
8.742238302582367
 20
-6.365138939433177
 11
8.81654538919654
 21
-6.32760161659853
  0
LINE
  5
167
100
AcDbEntity
  8
BLACK
  6
CONTINUOUS
 62
  256
370
   -1
100
AcDbLine
 10
8.81654538919654
 20
-6.32760161659853
 11
8.88948294825166
 21
-6.28746791581113
  0
LINE
  5
168
100
AcDbEntity
  8
BLACK
  6
CONTINUOUS
 62
  256
370
   -1
100
AcDbLine
 10
8.88948294825166
 20
-6.28746791581113
 11
8.960960192346148
 21
-6.244787837070971
  0
LINE
  5
169
100
AcDbEntity
  8
BLACK
  6
CONTINUOUS
 62
  256
370
   -1
100
AcDbLine
 10
8.960960192346148
 20
-6.244787837070971
 11
9.030888381322525
 21
-6.199614293763885
  0
LINE
  5
16A
100
AcDbEntity
  8
BLACK
  6
CONTINUOUS
 62
  256
370
   -1
100
AcDbLine
 10
9.030888381322525
 20
-6.199614293763885
 11
9.099180428566617
 21
-6.152003585102467
  0
LINE
  5
16B
100
AcDbEntity
  8
BLACK
  6
CONTINUOUS
 62
  256
370
   -1
100
AcDbLine
 10
9.099180428566617
 20
-6.152003585102467
 11
9.165751609668982
 21
-6.102014844944987
  0
LINE
  5
16C
100
AcDbEntity
  8
BLACK
  6
CONTINUOUS
 62
  256
370
   -1
100
AcDbLine
 10
9.165751609668982
 20
-6.102014844944987
 11
9.230519011243784
 21
-6.049710278015853
  0
LINE
  5
16D
100
AcDbEntity
  8
BLACK
  6
CONTINUOUS
 62
  256
370
   -1
100
AcDbLine
 10
9.230519011243784
 20
-6.049710278015853
 11
9.293402239590241
 21
-5.995154844944986
  0
LINE
  5
16E
100
AcDbEntity
  8
BLACK
  6
CONTINUOUS
 62
  256
370
   -1
100
AcDbLine
 10
9.293402239590241
 20
-5.995154844944986
 11
9.354322948251658
 21
-5.938416341007979
  0
LINE
  5
16F
100
AcDbEntity
  8
BLACK
  6
CONTINUOUS
 62
  256
370
   -1
100
AcDbLine
 10
9.354322948251658
 20
-5.938416341007979
 11
9.413205546676854
 21
-5.87956539612609
  0
LINE
  5
170
100
AcDbEntity
  8
BLACK
  6
CONTINUOUS
 62
  256
370
   -1
100
AcDbLine
 10
9.413205546676854
 20
-5.87956539612609
 11
9.469976806519375
 21
-5.818675159905617
  0
LINE
  5
171
100
AcDbEntity
  8
BLACK
  6
CONTINUOUS
 62
  256
370
   -1
100
AcDbLine
 10
9.469976806519375
 20
-5.818675159905617
 11
9.524566019117801
 21
-5.7558213016379
  0
LINE
  5
172
100
AcDbEntity
  8
BLACK
  6
CONTINUOUS
 62
  256
370
   -1
100
AcDbLine
 10
9.524566019117801
 20
-5.7558213016379
 11
9.576905389196542
 21
-5.691082010299318
  0
LINE
  5
173
100
AcDbEntity
  8
BLACK
  6
CONTINUOUS
 62
  256
370
   -1
100
AcDbLine
 10
9.576905389196542
 20
-5.691082010299318
 11
9.626929956125673
 21
-5.624537679590656
  0
LINE
  5
174
100
AcDbEntity
  8
BLACK
  6
CONTINUOUS
 62
  256
370
   -1
100
AcDbLine
 10
9.626929956125673
 20
-5.624537679590656
 11
9.674577357700477
 21
-5.556271222897744
  0
LINE
  5
175
100
AcDbEntity
  8
BLACK
  6
CONTINUOUS
 62
  256
370
   -1
100
AcDbLine
 10
9.674577357700477
 20
-5.556271222897744
 11
9.719788381322525
 21
-5.48636728588987
  0
LINE
  5
176
100
AcDbEntity
  8
BLACK
  6
CONTINUOUS
 62
  256
370
   -1
100
AcDbLine
 10
9.719788381322525
 20
-5.48636728588987
 11
9.762506963999689
 21
-5.414912955181208
  0
LINE
  5
177
100
AcDbEntity
  8
BLACK
  6
CONTINUOUS
 62
  256
370
   -1
100
AcDbLine
 10
9.762506963999689
 20
-5.414912955181208
 11
9.802679798645359
 21
-5.341997049669397
  0
LINE
  5
178
100
AcDbEntity
  8
BLACK
  6
CONTINUOUS
 62
  256
370
   -1
100
AcDbLine
 10
9.802679798645359
 20
-5.341997049669397
 11
9.840257042739848
 21
-5.267710199275696
  0
LINE
  5
179
100
AcDbEntity
  8
BLACK
  6
CONTINUOUS
 62
  256
370
   -1
100
AcDbLine
 10
9.840257042739848
 20
-5.267710199275696
 11
9.875192003369767
 21
-5.192144687464673
  0
LINE
  5
17A
100
AcDbEntity
  8
BLACK
  6
CONTINUOUS
 62
  256
370
   -1
100
AcDbLine
 10
9.875192003369767
 20
-5.192144687464673
 11
9.907441137228036
 21
-5.115394529984357
  0
LINE
  5
17B
100
AcDbEntity
  8
BLACK
  6
CONTINUOUS
 62
  256
370
   -1
100
AcDbLine
 10
9.907441137228036
 20
-5.115394529984357
 11
9.936964444314649
 21
-5.037555159905617
  0
LINE
  5
17C
100
AcDbEntity
  8
BLACK
  6
CONTINUOUS
 62
  256
370
   -1
100
AcDbLine
 10
9.936964444314649
 20
-5.037555159905617
 11
9.950135231716226
 21
-4.998754372504042
  0
LINE
  5
17D
100
AcDbEntity
  8
BLACK
  6
CONTINUOUS
 62
  256
370
   -1
100
AcDbLine
 10
9.950135231716226
 20
-4.998754372504042
 11
9.950135231716226
 21
-4.229404608724515
  0
LINE
  5
17E
100
AcDbEntity
  8
BLACK
  6
CONTINUOUS
 62
  256
370
   -1
100
AcDbLine
 10
9.950135231716226
 20
-4.229404608724515
 11
9.950135231716226
 21
-4.229404529984357
  0
LINE
  5
17F
100
AcDbEntity
  8
BLACK
  6
CONTINUOUS
 62
  256
370
   -1
100
AcDbLine
 10
9.950135231716226
 20
-4.229404529984357
 11
9.950135231716226
 21
-3.460047285889869
  0
LINE
  5
180
100
AcDbEntity
  8
BLACK
  6
CONTINUOUS
 62
  256
370
   -1
100
AcDbLine
 10
9.950135231716226
 20
-3.460047285889869
 11
9.936996727779219
 21
-3.421415868567034
  0
LINE
  5
181
100
AcDbEntity
  8
BLACK
  6
CONTINUOUS
 62
  256
370
   -1
100
AcDbLine
 10
9.936996727779219
 20
-3.421415868567034
 11
9.90757042856662
 21
-3.343885159905617
  0
LINE
  5
182
100
AcDbEntity
  8
BLACK
  6
CONTINUOUS
 62
  256
370
   -1
100
AcDbLine
 10
9.90757042856662
 20
-3.343885159905617
 11
9.87545381439339
 21
-3.267429648094593
  0
LINE
  5
183
100
AcDbEntity
  8
BLACK
  6
CONTINUOUS
 62
  256
370
   -1
100
AcDbLine
 10
9.87545381439339
 20
-3.267429648094593
 11
9.840686097857956
 21
-3.192142718960735
  0
LINE
  5
184
100
AcDbEntity
  8
BLACK
  6
CONTINUOUS
 62
  256
370
   -1
100
AcDbLine
 10
9.840686097857956
 20
-3.192142718960735
 11
9.80330979864536
 21
-3.118116183527664
  0
LINE
  5
185
100
AcDbEntity
  8
BLACK
  6
CONTINUOUS
 62
  256
370
   -1
100
AcDbLine
 10
9.80330979864536
 20
-3.118116183527664
 11
9.763370428566619
 21
-3.045440435496169
  0
LINE
  5
186
100
AcDbEntity
  8
BLACK
  6
CONTINUOUS
 62
  256
370
   -1
100
AcDbLine
 10
9.763370428566619
 20
-3.045440435496169
 11
9.720916727779217
 21
-2.974204215023728
  0
LINE
  5
187
100
AcDbEntity
  8
BLACK
  6
CONTINUOUS
 62
  256
370
   -1
100
AcDbLine
 10
9.720916727779217
 20
-2.974204215023728
 11
9.676000586046934
 21
-2.904494372504043
  0
LINE
  5
188
100
AcDbEntity
  8
BLACK
  6
CONTINUOUS
 62
  256
370
   -1
100
AcDbLine
 10
9.676000586046934
 20
-2.904494372504043
 11
9.628676806519374
 21
-2.836396026047349
  0
LINE
  5
189
100
AcDbEntity
  8
BLACK
  6
CONTINUOUS
 62
  256
370
   -1
100
AcDbLine
 10
9.628676806519374
 20
-2.836396026047349
 11
9.57900318447213
 21
-2.769992404000105
  0
LINE
  5
18A
100
AcDbEntity
  8
BLACK
  6
CONTINUOUS
 62
  256
370
   -1
100
AcDbLine
 10
9.57900318447213
 20
-2.769992404000105
 11
9.527040271086305
 21
-2.7053644512442
  0
LINE
  5
18B
100
AcDbEntity
  8
BLACK
  6
CONTINUOUS
 62
  256
370
   -1
100
AcDbLine
 10
9.527040271086305
 20
-2.7053644512442
 11
9.472851530928823
 21
-2.642590986677271
  0
LINE
  5
18C
100
AcDbEntity
  8
BLACK
  6
CONTINUOUS
 62
  256
370
   -1
100
AcDbLine
 10
9.472851530928823
 20
-2.642590986677271
 11
9.416503105731975
 21
-2.581748781952861
  0
LINE
  5
18D
100
AcDbEntity
  8
BLACK
  6
CONTINUOUS
 62
  256
370
   -1
100
AcDbLine
 10
9.416503105731975
 20
-2.581748781952861
 11
9.358063735653234
 21
-2.522912089039476
  0
LINE
  5
18E
100
AcDbEntity
  8
BLACK
  6
CONTINUOUS
 62
  256
370
   -1
100
AcDbLine
 10
9.358063735653234
 20
-2.522912089039476
 11
9.297604838015436
 21
-2.46615256148042
  0
LINE
  5
18F
100
AcDbEntity
  8
BLACK
  6
CONTINUOUS
 62
  256
370
   -1
100
AcDbLine
 10
9.297604838015436
 20
-2.46615256148042
 11
9.235200113605989
 21
-2.411539648094594
  0
LINE
  5
190
100
AcDbEntity
  8
BLACK
  6
CONTINUOUS
 62
  256
370
   -1
100
AcDbLine
 10
9.235200113605989
 20
-2.411539648094594
 11
9.170925782897326
 21
-2.359139963055223
  0
LINE
  5
191
100
AcDbEntity
  8
BLACK
  6
CONTINUOUS
 62
  256
370
   -1
100
AcDbLine
 10
9.170925782897326
 20
-2.359139963055223
 11
9.104860349826462
 21
-2.309017364630027
  0
LINE
  5
192
100
AcDbEntity
  8
BLACK
  6
CONTINUOUS
 62
  256
370
   -1
100
AcDbLine
 10
9.104860349826462
 20
-2.309017364630027
 11
9.037084286834334
 21
-2.261233191401681
  0
LINE
  5
193
100
AcDbEntity
  8
BLACK
  6
CONTINUOUS
 62
  256
370
   -1
100
AcDbLine
 10
9.037084286834334
 20
-2.261233191401681
 11
8.967680507306776
 21
-2.215845632346562
  0
LINE
  5
194
100
AcDbEntity
  8
BLACK
  6
CONTINUOUS
 62
  256
370
   -1
100
AcDbLine
 10
8.967680507306776
 20
-2.215845632346562
 11
8.896733578172919
 21
-2.172910120535538
  0
LINE
  5
195
100
AcDbEntity
  8
BLACK
  6
CONTINUOUS
 62
  256
370
   -1
100
AcDbLine
 10
8.896733578172919
 20
-2.172910120535538
 11
8.824330192346148
 21
-2.132479175653649
  0
LINE
  5
196
100
AcDbEntity
  8
BLACK
  6
CONTINUOUS
 62
  256
370
   -1
100
AcDbLine
 10
8.824330192346148
 20
-2.132479175653649
 11
8.750558696283155
 21
-2.094601931559161
  0
LINE
  5
197
100
AcDbEntity
  8
BLACK
  6
CONTINUOUS
 62
  256
370
   -1
100
AcDbLine
 10
8.750558696283155
 20
-2.094601931559161
 11
8.675509089983942
 21
-2.059324844944987
  0
LINE
  5
198
100
AcDbEntity
  8
BLACK
  6
CONTINUOUS
 62
  256
370
   -1
100
AcDbLine
 10
8.675509089983942
 20
-2.059324844944987
 11
8.599273026991815
 21
-2.026690829196956
  0
LINE
  5
199
100
AcDbEntity
  8
BLACK
  6
CONTINUOUS
 62
  256
370
   -1
100
AcDbLine
 10
8.599273026991815
 20
-2.026690829196956
 11
8.52194349943276
 21
-1.996739726834751
  0
LINE
  5
19A
100
AcDbEntity
  8
BLACK
  6
CONTINUOUS
 62
  256
370
   -1
100
AcDbLine
 10
8.52194349943276
 20
-1.996739726834751
 11
8.48328003486583
 21
-1.983297285889869
  0
LINE
  5
19B
100
AcDbEntity
  8
BLACK
  6
CONTINUOUS
 62
  256
370
   -1
100
AcDbLine
 10
8.48328003486583
 20
-1.983297285889869
 11
8.473376019117799
 21
-1.982560514236326
  0
LINE
  5
19C
100
AcDbEntity
  8
BLACK
  6
CONTINUOUS
 62
  256
370
   -1
100
AcDbLine
 10
8.473376019117799
 20
-1.982560514236326
 11
8.452534680535122
 21
-1.983492797700893
  0
LINE
  5
19D
100
AcDbEntity
  8
BLACK
  6
CONTINUOUS
 62
  256
370
   -1
100
AcDbLine
 10
8.452534680535122
 20
-1.983492797700893
 11
8.431952712031185
 21
-1.986900199275696
  0
LINE
  5
19E
100
AcDbEntity
  8
BLACK
  6
CONTINUOUS
 62
  256
370
   -1
100
AcDbLine
 10
8.431952712031185
 20
-1.986900199275696
 11
8.411922869511502
 21
-1.992734215023728
  0
LINE
  5
19F
100
AcDbEntity
  8
BLACK
  6
CONTINUOUS
 62
  256
370
   -1
100
AcDbLine
 10
8.411922869511502
 20
-1.992734215023728
 11
8.392730271086306
 21
-2.000911774078845
  0
LINE
  5
1A0
100
AcDbEntity
  8
BLACK
  6
CONTINUOUS
 62
  256
370
   -1
100
AcDbLine
 10
8.392730271086306
 20
-2.000911774078845
 11
8.374647987621737
 21
-2.011316577228452
  0
LINE
  5
1A1
100
AcDbEntity
  8
BLACK
  6
CONTINUOUS
 62
  256
370
   -1
100
AcDbLine
 10
8.374647987621737
 20
-2.011316577228452
 11
8.357933263212287
 21
-2.023800514236326
  0
LINE
  5
1A2
100
AcDbEntity
  8
BLACK
  6
CONTINUOUS
 62
  256
370
   -1
100
AcDbLine
 10
8.357933263212287
 20
-2.023800514236326
 11
8.342824050613862
 21
-2.038185947307193
  0
LINE
  5
1A3
100
AcDbEntity
  8
BLACK
  6
CONTINUOUS
 62
  256
370
   -1
100
AcDbLine
 10
8.342824050613862
 20
-2.038185947307193
 11
8.329535310456384
 21
-2.054268152031602
  0
LINE
  5
1A4
100
AcDbEntity
  8
BLACK
  6
CONTINUOUS
 62
  256
370
   -1
100
AcDbLine
 10
8.329535310456384
 20
-2.054268152031602
 11
8.323961452188668
 21
-2.062933348881995
  0
LINE
  5
1A5
100
AcDbEntity
  8
BLACK
  6
CONTINUOUS
 62
  256
370
   -1
100
AcDbLine
 10
8.323961452188668
 20
-2.062933348881995
 11
8.242523499432762
 21
-2.211299018173334
  0
LINE
  5
1A6
100
AcDbEntity
  8
BLACK
  6
CONTINUOUS
 62
  256
370
   -1
100
AcDbLine
 10
8.242523499432762
 20
-2.211299018173334
 11
8.241535861637486
 21
-2.212475553606405
  0
LINE
  5
1A7
100
AcDbEntity
  8
BLACK
  6
CONTINUOUS
 62
  256
370
   -1
100
AcDbLine
 10
8.241535861637486
 20
-2.212475553606405
 11
8.240984680535123
 21
-2.212636026047349
  0
LINE
  5
1A8
100
AcDbEntity
  8
BLACK
  6
CONTINUOUS
 62
  256
370
   -1
100
AcDbLine
 10
8.240984680535123
 20
-2.212636026047349
 11
8.240578853763468
 21
-2.213041931559161
  0
LINE
  5
1A9
100
AcDbEntity
  8
BLACK
  6
CONTINUOUS
 62
  256
370
   -1
100
AcDbLine
 10
8.240578853763468
 20
-2.213041931559161
 11
8.239072239590241
 21
-2.213341616598531
  0
LINE
  5
1AA
100
AcDbEntity
  8
BLACK
  6
CONTINUOUS
 62
  256
370
   -1
100
AcDbLine
 10
8.239072239590241
 20
-2.213341616598531
 11
7.169072239590241
 21
-2.213341616598531
  0
LINE
  5
1AB
100
AcDbEntity
  8
BLACK
  6
CONTINUOUS
 62
  256
370
   -1
100
AcDbLine
 10
7.169072239590241
 20
-2.213341616598531
 11
7.167565625417014
 21
-2.213041931559161
  0
LINE
  5
1AC
100
AcDbEntity
  8
BLACK
  6
CONTINUOUS
 62
  256
370
   -1
100
AcDbLine
 10
7.167565625417014
 20
-2.213041931559161
 11
7.167087200220161
 21
-2.21256350636231
  0
LINE
  5
1AD
100
AcDbEntity
  8
BLACK
  6
CONTINUOUS
 62
  256
370
   -1
100
AcDbLine
 10
7.167087200220161
 20
-2.21256350636231
 11
7.16644877502331
 21
-2.212340120535539
  0
LINE
  5
1AE
100
AcDbEntity
  8
BLACK
  6
CONTINUOUS
 62
  256
370
   -1
100
AcDbLine
 10
7.16644877502331
 20
-2.212340120535539
 11
7.16552507423591
 21
-2.211112718960736
  0
LINE
  5
1AF
100
AcDbEntity
  8
BLACK
  6
CONTINUOUS
 62
  256
370
   -1
100
AcDbLine
 10
7.16552507423591
 20
-2.211112718960736
 11
7.094110113605987
 21
-2.062813033921365
  0
LINE
  5
1B0
100
AcDbEntity
  8
BLACK
  6
CONTINUOUS
 62
  256
370
   -1
100
AcDbLine
 10
7.094110113605987
 20
-2.062813033921365
 11
7.088612239590242
 21
-2.05426571108672
  0
LINE
  5
1B1
100
AcDbEntity
  8
BLACK
  6
CONTINUOUS
 62
  256
370
   -1
100
AcDbLine
 10
7.088612239590242
 20
-2.05426571108672
 11
7.075323420692603
 21
-2.038183112661523
  0
LINE
  5
1B2
100
AcDbEntity
  8
BLACK
  6
CONTINUOUS
 62
  256
370
   -1
100
AcDbLine
 10
7.075323420692603
 20
-2.038183112661523
 11
7.060213971873706
 21
-2.023797443370185
  0
LINE
  5
1B3
100
AcDbEntity
  8
BLACK
  6
CONTINUOUS
 62
  256
370
   -1
100
AcDbLine
 10
7.060213971873706
 20
-2.023797443370185
 11
7.043498932503626
 21
-2.011313427622153
  0
LINE
  5
1B4
100
AcDbEntity
  8
BLACK
  6
CONTINUOUS
 62
  256
370
   -1
100
AcDbLine
 10
7.043498932503626
 20
-2.011313427622153
 11
7.025416176598116
 21
-2.000908703212704
  0
LINE
  5
1B5
100
AcDbEntity
  8
BLACK
  6
CONTINUOUS
 62
  256
370
   -1
100
AcDbLine
 10
7.025416176598116
 20
-2.000908703212704
 11
7.006223026991817
 21
-1.992731301637901
  0
LINE
  5
1B6
100
AcDbEntity
  8
BLACK
  6
CONTINUOUS
 62
  256
370
   -1
100
AcDbLine
 10
7.006223026991817
 20
-1.992731301637901
 11
6.986192790771343
 21
-1.986897758330815
  0
LINE
  5
1B7
100
AcDbEntity
  8
BLACK
  6
CONTINUOUS
 62
  256
370
   -1
100
AcDbLine
 10
6.986192790771343
 20
-1.986897758330815
 11
6.965610271086303
 21
-1.983490986677271
  0
LINE
  5
1B8
100
AcDbEntity
  8
BLACK
  6
CONTINUOUS
 62
  256
370
   -1
100
AcDbLine
 10
6.965610271086303
 20
-1.983490986677271
 11
6.944768617542996
 21
-1.982559411874121
  0
LINE
  5
1B9
100
AcDbEntity
  8
BLACK
  6
CONTINUOUS
 62
  256
370
   -1
100
AcDbLine
 10
6.944768617542996
 20
-1.982559411874121
 11
6.936252790771343
 21
-1.983193270141838
  0
ENDSEC
  0
SECTION
  2
OBJECTS
  0
DICTIONARY
  5
C
330
0
100
AcDbDictionary
281
    1
  3
ACAD_GROUP
350
D
  0
DICTIONARY
  5
D
330
C
100
AcDbDictionary
281
    1
  0
PLOTSETTINGS
  5
1BA
100
AcDbPlotSettings
  6
1x1
 40
0
 41
0
 42
0
 43
0
  0
ENDSEC
  0
EOF
