  0
SECTION
  2
HEADER
  9
$ANGBASE
  50
0.0
  9
$ANGDIR
  70
1
  9
$MEASUREMENT
  70
0
  0
ENDSEC
  0
SECTION
  2
TABLES
  0
TABLE
  2
LTYPE
  70
4
  0
LTYPE
  5
40F
  2
CONTINUOUS
  70
0
  3
Solid line
  72
65
  73
0
  40
0.0
  0
LTYPE
  5
410
  2
DASHDOT
 70
0
  3
Dash Dot ____ _ ____ _
 72
65
 73
4
 40
2.0
 49
1.25
 49
-0.25
 49
0.25
 49
-0.25
  0
LTYPE
  5
411
  2
DASHED
 70
0
  3
Dashed __ __ __ __ __
 72
65
 73
2
 40
0.75
 49
0.5
 49
-0.25
  0
LTYPE
  5
43B
  2
DOTTED
 70
0
  3
Dotted .  .  .  .
 72
65
 73
2
 40
0.2
 49
0.0
 49
-0.2
  0
ENDTAB
  0
TABLE
  2
STYLE
  70
4
  0
STYLE
  2
KICAD
  70
0
  40
0
  41
1
  42
1
  50
0
  71
0
  3
isocp.shx
  0
STYLE
  2
KICADB
  70
0
  40
0
  41
1
  42
1
  50
0
  71
0
  3
isocp.shx
  0
STYLE
  2
KICADI
  70
0
  40
0
  41
1
  42
1
  50
15
  71
0
  3
isocp.shx
  0
STYLE
  2
KICADBI
  70
0
  40
0
  41
1
  42
1
  50
15
  71
0
  3
isocp.shx
  0
ENDTAB
  0
TABLE
  2
LAYER
  70
1
  0
LAYER
  2
BLACK
  70
0
  62
7
  6
CONTINUOUS
  0
ENDTAB
  0
ENDSEC
  0
SECTION
  2
ENTITIES
0
LINE
8
BLACK
6
CONTINUOUS
10
8.4517548425196853
20
-2.670268464566929
11
8.4623662598425202
21
-2.672682834645669
0
LINE
8
BLACK
6
CONTINUOUS
10
8.4623662598425202
20
-2.672682834645669
11
8.4726146456692906
21
-2.6763436220472441
0
LINE
8
BLACK
6
CONTINUOUS
10
8.4726146456692906
20
-2.6763436220472441
11
8.4823541732283463
21
-2.6811987795275591
0
LINE
8
BLACK
6
CONTINUOUS
10
8.4823541732283463
20
-2.6811987795275591
11
8.4914462204724401
21
-2.6871792125984251
0
LINE
8
BLACK
6
CONTINUOUS
10
8.4914462204724401
20
-2.6871792125984251
11
8.4997613779527565
21
-2.6941998031496062
0
LINE
8
BLACK
6
CONTINUOUS
10
8.4997613779527565
20
-2.6941998031496062
11
8.5071813779527563
21
-2.7021606299212597
0
LINE
8
BLACK
6
CONTINUOUS
10
8.5071813779527563
20
-2.7021606299212597
11
8.5136005511811028
21
-2.7109484251968503
0
LINE
8
BLACK
6
CONTINUOUS
10
8.5136005511811028
20
-2.7109484251968503
11
8.5135991338582677
21
-2.7109493307086612
0
LINE
8
BLACK
6
CONTINUOUS
10
8.5135991338582677
20
-2.7109493307086612
11
8.5136209055118108
21
-2.7110322047244093
0
LINE
8
BLACK
6
CONTINUOUS
10
8.5136209055118108
20
-2.7110322047244093
11
8.5137166929133858
21
-2.7111594881889762
0
LINE
8
BLACK
6
CONTINUOUS
10
8.5137166929133858
20
-2.7111594881889762
11
8.5489338976377951
21
-2.7842913385826771
0
LINE
8
BLACK
6
CONTINUOUS
10
8.5489338976377951
20
-2.7842913385826771
11
9.0815319291338579
21
-2.7842913385826771
0
LINE
8
BLACK
6
CONTINUOUS
10
9.0815319291338579
20
-2.7842913385826771
11
9.1217251181102359
21
-2.7110664173228347
0
LINE
8
BLACK
6
CONTINUOUS
10
9.1217251181102359
20
-2.7110664173228347
11
9.1217820078740157
21
-2.7109985826771652
0
LINE
8
BLACK
6
CONTINUOUS
10
9.1217820078740157
20
-2.7109985826771652
11
9.1217949606299218
21
-2.7109494488188974
0
LINE
8
BLACK
6
CONTINUOUS
10
9.1217949606299218
20
-2.7109494488188974
11
9.1217949606299218
21
-2.7109494881889762
0
LINE
8
BLACK
6
CONTINUOUS
10
9.1217949606299218
20
-2.7109494881889762
11
9.1282141338582683
21
-2.7021619291338581
0
LINE
8
BLACK
6
CONTINUOUS
10
9.1282141338582683
20
-2.7021619291338581
11
9.135633976377953
21
-2.6942012598425196
0
LINE
8
BLACK
6
CONTINUOUS
10
9.135633976377953
20
-2.6942012598425196
11
9.1439490157480314
21
-2.6871807874015747
0
LINE
8
BLACK
6
CONTINUOUS
10
9.1439490157480314
20
-2.6871807874015747
11
9.1530408267716528
21
-2.6812003937007876
0
LINE
8
BLACK
6
CONTINUOUS
10
9.1530408267716528
20
-2.6812003937007876
11
9.1627800787401572
21
-2.676345157480315
0
LINE
8
BLACK
6
CONTINUOUS
10
9.1627800787401572
20
-2.676345157480315
11
9.1730281889763781
21
-2.6726842125984249
0
LINE
8
BLACK
6
CONTINUOUS
10
9.1730281889763781
20
-2.6726842125984249
11
9.1836393307086617
21
-2.6702696062992124
0
LINE
8
BLACK
6
CONTINUOUS
10
9.1836393307086617
20
-2.6702696062992124
11
9.1944624803149608
21
-2.6691357086614174
0
LINE
8
BLACK
6
CONTINUOUS
10
9.1944624803149608
20
-2.6691357086614174
11
9.2053436614173219
21
-2.6692986614173226
0
LINE
8
BLACK
6
CONTINUOUS
10
9.2053436614173219
20
-2.6692986614173226
11
9.2053437795275581
21
-2.6692968110236222
0
LINE
8
BLACK
6
CONTINUOUS
10
9.2053437795275581
20
-2.6692968110236222
11
9.2055838188976384
21
-2.6693951574803148
0
LINE
8
BLACK
6
CONTINUOUS
10
9.2055838188976384
20
-2.6693951574803148
11
9.2058434251968499
21
-2.669400472440945
0
LINE
8
BLACK
6
CONTINUOUS
10
9.2058434251968499
20
-2.669400472440945
11
9.2058434251968499
21
-2.6694005118110238
0
LINE
8
BLACK
6
CONTINUOUS
10
9.2058434251968499
20
-2.6694005118110238
11
9.2448870472440952
21
-2.6837435826771654
0
LINE
8
BLACK
6
CONTINUOUS
10
9.2448870472440952
20
-2.6837435826771654
11
9.2834058267716539
21
-2.699441771653543
0
LINE
8
BLACK
6
CONTINUOUS
10
9.2834058267716539
20
-2.699441771653543
11
9.3213527165354328
21
-2.7164759055118108
0
LINE
8
BLACK
6
CONTINUOUS
10
9.3213527165354328
20
-2.7164759055118108
11
9.3586814566929135
21
-2.7348251574803149
0
LINE
8
BLACK
6
CONTINUOUS
10
9.3586814566929135
20
-2.7348251574803149
11
9.3953464566929128
21
-2.7544671653543307
0
LINE
8
BLACK
6
CONTINUOUS
10
9.3953464566929128
20
-2.7544671653543307
11
9.4313029527559049
21
-2.7753779527559055
0
LINE
8
BLACK
6
CONTINUOUS
10
9.4313029527559049
20
-2.7753779527559055
11
9.4665070472440949
21
-2.7975319685039368
0
LINE
8
BLACK
6
CONTINUOUS
10
9.4665070472440949
20
-2.7975319685039368
11
9.5009157874015742
21
-2.8209022047244092
0
LINE
8
BLACK
6
CONTINUOUS
10
9.5009157874015742
20
-2.8209022047244092
11
9.5344872047244085
21
-2.8454601181102364
0
LINE
8
BLACK
6
CONTINUOUS
10
9.5344872047244085
20
-2.8454601181102364
11
9.567180236220473
21
-2.8711757086614171
0
LINE
8
BLACK
6
CONTINUOUS
10
9.567180236220473
20
-2.8711757086614171
11
9.5989550787401576
21
-2.8980176377952755
0
LINE
8
BLACK
6
CONTINUOUS
10
9.5989550787401576
20
-2.8980176377952755
11
9.6297729133858265
21
-2.9259531496062992
0
LINE
8
BLACK
6
CONTINUOUS
10
9.6297729133858265
20
-2.9259531496062992
11
9.6595961023622046
21
-2.9549480708661418
0
LINE
8
BLACK
6
CONTINUOUS
10
9.6595961023622046
20
-2.9549480708661418
11
9.6883882677165349
21
-2.9849670866141733
0
LINE
8
BLACK
6
CONTINUOUS
10
9.6883882677165349
20
-2.9849670866141733
11
9.716114251968504
21
-3.0159735433070867
0
LINE
8
BLACK
6
CONTINUOUS
10
9.716114251968504
20
-3.0159735433070867
11
9.7427401968503933
21
-3.0479295669291337
0
LINE
8
BLACK
6
CONTINUOUS
10
9.7427401968503933
20
-3.0479295669291337
11
9.7682336614173231
21
-3.0807961811023623
0
LINE
8
BLACK
6
CONTINUOUS
10
9.7682336614173231
20
-3.0807961811023623
11
9.7925635039370071
21
-3.1145332283464566
0
LINE
8
BLACK
6
CONTINUOUS
10
9.7925635039370071
20
-3.1145332283464566
11
9.8156999606299209
21
-3.149099566929134
0
LINE
8
BLACK
6
CONTINUOUS
10
9.8156999606299209
20
-3.149099566929134
11
9.8376148818897633
21
-3.1844529921259843
0
LINE
8
BLACK
6
CONTINUOUS
10
9.8376148818897633
20
-3.1844529921259843
11
9.8582814960629914
21
-3.2205503937007873
0
LINE
8
BLACK
6
CONTINUOUS
10
9.8582814960629914
20
-3.2205503937007873
11
9.8776745669291337
21
-3.2573476377952755
0
LINE
8
BLACK
6
CONTINUOUS
10
9.8776745669291337
20
-3.2573476377952755
11
9.8957704330708651
21
-3.2947998818897637
0
LINE
8
BLACK
6
CONTINUOUS
10
9.8957704330708651
20
-3.2947998818897637
11
9.9125469685039374
21
-3.3328613779527556
0
LINE
8
BLACK
6
CONTINUOUS
10
9.9125469685039374
20
-3.3328613779527556
11
9.9279837401574795
21
-3.3714856692913386
0
LINE
8
BLACK
6
CONTINUOUS
10
9.9279837401574795
20
-3.3714856692913386
11
9.9420619291338586
21
-3.4106255905511809
0
LINE
8
BLACK
6
CONTINUOUS
10
9.9420619291338586
20
-3.4106255905511809
11
9.942060590551181
21
-3.4106260236220471
0
LINE
8
BLACK
6
CONTINUOUS
10
9.942060590551181
20
-3.4106260236220471
11
9.9420621259842523
21
-3.4107403937007872
0
LINE
8
BLACK
6
CONTINUOUS
10
9.9420621259842523
20
-3.4107403937007872
11
9.9421654724409443
21
-3.4112598425196849
0
LINE
8
BLACK
6
CONTINUOUS
10
9.9421654724409443
20
-3.4112598425196849
11
9.9421654724409443
21
-3.7962598031496064
0
LINE
8
BLACK
6
CONTINUOUS
10
9.9421654724409443
20
-3.7962598031496064
11
9.9421654724409443
21
-3.7962598425196847
0
LINE
8
BLACK
6
CONTINUOUS
10
9.9421654724409443
20
-3.7962598425196847
11
9.9421654724409443
21
-4.181259842519685
0
LINE
8
BLACK
6
CONTINUOUS
10
9.9421654724409443
20
-4.181259842519685
11
9.9420624803149611
21
-4.1817775196850393
0
LINE
8
BLACK
6
CONTINUOUS
10
9.9420624803149611
20
-4.1817775196850393
11
9.9420609842519685
21
-4.1818925984251969
0
LINE
8
BLACK
6
CONTINUOUS
10
9.9420609842519685
20
-4.1818925984251969
11
9.9279430314960635
21
-4.2211910236220476
0
LINE
8
BLACK
6
CONTINUOUS
10
9.9279430314960635
20
-4.2211910236220476
11
9.9124483858267709
21
-4.259967283464567
0
LINE
8
BLACK
6
CONTINUOUS
10
9.9124483858267709
20
-4.259967283464567
11
9.8955963385826777
21
-4.2981732283464567
0
LINE
8
BLACK
6
CONTINUOUS
10
9.8955963385826777
20
-4.2981732283464567
11
9.8774078346456697
21
-4.3357612598425197
0
LINE
8
BLACK
6
CONTINUOUS
10
9.8774078346456697
20
-4.3357612598425197
11
9.8579054724409438
21
-4.3726846850393697
0
LINE
8
BLACK
6
CONTINUOUS
10
9.8579054724409438
20
-4.3726846850393697
11
9.8371135039370081
21
-4.4088976377952758
0
LINE
8
BLACK
6
CONTINUOUS
10
9.8371135039370081
20
-4.4088976377952758
11
9.8150577952755906
21
-4.4443550393700786
0
LINE
8
BLACK
6
CONTINUOUS
10
9.8150577952755906
20
-4.4443550393700786
11
9.7917657480314961
21
-4.479012834645669
0
LINE
8
BLACK
6
CONTINUOUS
10
9.7917657480314961
20
-4.479012834645669
11
9.7672663385826777
21
-4.512827952755905
0
LINE
8
BLACK
6
CONTINUOUS
10
9.7672663385826777
20
-4.512827952755905
11
9.7415900000000004
21
-4.5457583070866141
0
LINE
8
BLACK
6
CONTINUOUS
10
9.7415900000000004
20
-4.5457583070866141
11
9.7147687007874008
21
-4.5777629921259839
0
LINE
8
BLACK
6
CONTINUOUS
10
9.7147687007874008
20
-4.5777629921259839
11
9.6868357480314966
21
-4.6088022047244097
0
LINE
8
BLACK
6
CONTINUOUS
10
9.6868357480314966
20
-4.6088022047244097
11
9.6578258661417316
21
-4.6388373228346458
0
LINE
8
BLACK
6
CONTINUOUS
10
9.6578258661417316
20
-4.6388373228346458
11
9.627775118110236
21
-4.6678310629921258
0
LINE
8
BLACK
6
CONTINUOUS
10
9.627775118110236
20
-4.6678310629921258
11
9.5967209055118108
21
-4.6957473622047239
0
LINE
8
BLACK
6
CONTINUOUS
10
9.5967209055118108
20
-4.6957473622047239
11
9.564701811023621
21
-4.722551456692913
0
LINE
8
BLACK
6
CONTINUOUS
10
9.564701811023621
20
-4.722551456692913
11
9.5317576771653538
21
-4.7482100787401578
0
LINE
8
BLACK
6
CONTINUOUS
10
9.5317576771653538
20
-4.7482100787401578
11
9.4979294094488189
21
-4.7726913385826775
0
LINE
8
BLACK
6
CONTINUOUS
10
9.4979294094488189
20
-4.7726913385826775
11
9.4632590944881887
21
-4.7959647244094485
0
LINE
8
BLACK
6
CONTINUOUS
10
9.4632590944881887
20
-4.7959647244094485
11
9.4277898425196849
21
-4.818001377952756
0
LINE
8
BLACK
6
CONTINUOUS
10
9.4277898425196849
20
-4.818001377952756
11
9.3915657086614175
21
-4.838773897637795
0
LINE
8
BLACK
6
CONTINUOUS
10
9.3915657086614175
20
-4.838773897637795
11
9.3546318110236211
21
-4.8582564173228349
0
LINE
8
BLACK
6
CONTINUOUS
10
9.3546318110236211
20
-4.8582564173228349
11
9.3170339763779531
21
-4.8764246850393702
0
LINE
8
BLACK
6
CONTINUOUS
10
9.3170339763779531
20
-4.8764246850393702
11
9.2788190157480308
21
-4.8932562204724412
0
LINE
8
BLACK
6
CONTINUOUS
10
9.2788190157480308
20
-4.8932562204724412
11
9.2400344488188981
21
-4.9087300000000003
0
LINE
8
BLACK
6
CONTINUOUS
10
9.2400344488188981
20
-4.9087300000000003
11
9.2016275590551171
21
-4.9225043307086613
0
LINE
8
BLACK
6
CONTINUOUS
10
9.2016275590551171
20
-4.9225043307086613
11
9.2014694881889767
21
-4.9227600787401578
0
LINE
8
BLACK
6
CONTINUOUS
10
9.2014694881889767
20
-4.9227600787401578
11
9.2003436614173228
21
-4.9232212992125985
0
LINE
8
BLACK
6
CONTINUOUS
10
9.2003436614173228
20
-4.9232212992125985
11
9.2003436614173228
21
-4.9232212598425198
0
LINE
8
BLACK
6
CONTINUOUS
10
9.2003436614173228
20
-4.9232212598425198
11
9.1894625196850388
21
-4.9233842519685043
0
LINE
8
BLACK
6
CONTINUOUS
10
9.1894625196850388
20
-4.9233842519685043
11
9.1786394094488184
21
-4.92225031496063
0
LINE
8
BLACK
6
CONTINUOUS
10
9.1786394094488184
20
-4.92225031496063
11
9.1680283070866135
21
-4.91983562992126
0
LINE
8
BLACK
6
CONTINUOUS
10
9.1680283070866135
20
-4.91983562992126
11
9.1577802755905502
21
-4.9161745669291337
0
LINE
8
BLACK
6
CONTINUOUS
10
9.1577802755905502
20
-4.9161745669291337
11
9.1480411417322838
21
-4.9113191732283461
0
LINE
8
BLACK
6
CONTINUOUS
10
9.1480411417322838
20
-4.9113191732283461
11
9.1389494488188969
21
-4.9053385826771656
0
LINE
8
BLACK
6
CONTINUOUS
10
9.1389494488188969
20
-4.9053385826771656
11
9.1306346456692911
21
-4.898317913385827
0
LINE
8
BLACK
6
CONTINUOUS
10
9.1306346456692911
20
-4.898317913385827
11
9.1232150393700788
21
-4.8903570472440947
0
LINE
8
BLACK
6
CONTINUOUS
10
9.1232150393700788
20
-4.8903570472440947
11
9.1167962204724411
21
-4.8815693307086612
0
LINE
8
BLACK
6
CONTINUOUS
10
9.1167962204724411
20
-4.8815693307086612
11
9.1167947244094485
21
-4.8815702755905512
0
LINE
8
BLACK
6
CONTINUOUS
10
9.1167947244094485
20
-4.8815702755905512
11
9.1167729133858266
21
-4.8814873622047239
0
LINE
8
BLACK
6
CONTINUOUS
10
9.1167729133858266
20
-4.8814873622047239
11
9.1166771653543304
21
-4.8813601181102362
0
LINE
8
BLACK
6
CONTINUOUS
10
9.1166771653543304
20
-4.8813601181102362
11
9.0814599212598424
21
-4.8082283070866136
0
LINE
8
BLACK
6
CONTINUOUS
10
9.0814599212598424
20
-4.8082283070866136
11
8.5488618897637796
21
-4.8082283070866136
0
LINE
8
BLACK
6
CONTINUOUS
10
8.5488618897637796
20
-4.8082283070866136
11
8.5086687401574803
21
-4.8814532283464569
0
LINE
8
BLACK
6
CONTINUOUS
10
8.5086687401574803
20
-4.8814532283464569
11
8.5086118503937005
21
-4.881520984251968
0
LINE
8
BLACK
6
CONTINUOUS
10
8.5086118503937005
20
-4.881520984251968
11
8.5085989370078732
21
-4.881570157480315
0
LINE
8
BLACK
6
CONTINUOUS
10
8.5085989370078732
20
-4.881570157480315
11
8.5085989370078732
21
-4.8815701181102362
0
LINE
8
BLACK
6
CONTINUOUS
10
8.5085989370078732
20
-4.8815701181102362
11
8.5021798818897629
21
-4.8903579921259839
0
LINE
8
BLACK
6
CONTINUOUS
10
8.5021798818897629
20
-4.8903579921259839
11
8.4947601181102357
21
-4.8983190157480312
0
LINE
8
BLACK
6
CONTINUOUS
10
8.4947601181102357
20
-4.8983190157480312
11
8.4864451574803148
21
-4.9053398818897636
0
LINE
8
BLACK
6
CONTINUOUS
10
8.4864451574803148
20
-4.9053398818897636
11
8.4773533464566935
21
-4.9113207086614175
0
LINE
8
BLACK
6
CONTINUOUS
10
8.4773533464566935
20
-4.9113207086614175
11
8.467614094488189
21
-4.9161763385826767
0
LINE
8
BLACK
6
CONTINUOUS
10
8.467614094488189
20
-4.9161763385826767
11
8.4573659448818894
21
-4.9198377952755905
0
LINE
8
BLACK
6
CONTINUOUS
10
8.4573659448818894
20
-4.9198377952755905
11
8.4467546850393695
21
-4.9222528346456693
0
LINE
8
BLACK
6
CONTINUOUS
10
8.4467546850393695
20
-4.9222528346456693
11
8.4359313779527554
21
-4.9233872047244089
0
LINE
8
BLACK
6
CONTINUOUS
10
8.4359313779527554
20
-4.9233872047244089
11
8.4250500000000006
21
-4.9232247244094491
0
LINE
8
BLACK
6
CONTINUOUS
10
8.4250500000000006
20
-4.9232247244094491
11
8.4250501574803156
21
-4.923222834645669
0
LINE
8
BLACK
6
CONTINUOUS
10
8.4250501574803156
20
-4.923222834645669
11
8.4248100393700778
21
-4.9231244488188972
0
LINE
8
BLACK
6
CONTINUOUS
10
8.4248100393700778
20
-4.9231244488188972
11
8.4245504330708663
21
-4.9231191732283461
0
LINE
8
BLACK
6
CONTINUOUS
10
8.4245504330708663
20
-4.9231191732283461
11
8.3855068110236211
21
-4.9087760629921258
0
LINE
8
BLACK
6
CONTINUOUS
10
8.3855068110236211
20
-4.9087760629921258
11
8.3469880314960623
21
-4.8930778740157477
0
LINE
8
BLACK
6
CONTINUOUS
10
8.3469880314960623
20
-4.8930778740157477
11
8.3090411023622046
21
-4.8760437401574803
0
LINE
8
BLACK
6
CONTINUOUS
10
8.3090411023622046
20
-4.8760437401574803
11
8.2717123622047239
21
-4.8576944881889759
0
LINE
8
BLACK
6
CONTINUOUS
10
8.2717123622047239
20
-4.8576944881889759
11
8.2350474015748034
21
-4.8380524803149605
0
LINE
8
BLACK
6
CONTINUOUS
10
8.2350474015748034
20
-4.8380524803149605
11
8.1990909055118113
21
-4.8171417322834644
0
LINE
8
BLACK
6
CONTINUOUS
10
8.1990909055118113
20
-4.8171417322834644
11
8.1638868110236213
21
-4.7949877165354327
0
LINE
8
BLACK
6
CONTINUOUS
10
8.1638868110236213
20
-4.7949877165354327
11
8.1294780314960633
21
-4.7716174803149602
0
LINE
8
BLACK
6
CONTINUOUS
10
8.1294780314960633
20
-4.7716174803149602
11
8.0959066535433077
21
-4.747059566929134
0
LINE
8
BLACK
6
CONTINUOUS
10
8.0959066535433077
20
-4.747059566929134
11
8.0632135826771645
21
-4.7213439763779528
0
LINE
8
BLACK
6
CONTINUOUS
10
8.0632135826771645
20
-4.7213439763779528
11
8.0314387401574798
21
-4.6945020078740161
0
LINE
8
BLACK
6
CONTINUOUS
10
8.0314387401574798
20
-4.6945020078740161
11
8.0006209055118109
21
-4.6665665354330708
0
LINE
8
BLACK
6
CONTINUOUS
10
8.0006209055118109
20
-4.6665665354330708
11
7.9707977165354329
21
-4.6375716141732282
0
LINE
8
BLACK
6
CONTINUOUS
10
7.9707977165354329
20
-4.6375716141732282
11
7.9420055511811025
21
-4.6075525984251966
0
LINE
8
BLACK
6
CONTINUOUS
10
7.9420055511811025
20
-4.6075525984251966
11
7.9142795669291335
21
-4.5765461417322832
0
LINE
8
BLACK
6
CONTINUOUS
10
7.9142795669291335
20
-4.5765461417322832
11
7.8876535826771654
21
-4.5445901181102357
0
LINE
8
BLACK
6
CONTINUOUS
10
7.8876535826771654
20
-4.5445901181102357
11
7.8621601181102356
21
-4.5117235039370076
0
LINE
8
BLACK
6
CONTINUOUS
10
7.8621601181102356
20
-4.5117235039370076
11
7.8378303149606294
21
-4.4779864566929133
0
LINE
8
BLACK
6
CONTINUOUS
10
7.8378303149606294
20
-4.4779864566929133
11
7.8146938188976378
21
-4.443420118110236
0
LINE
8
BLACK
6
CONTINUOUS
10
7.8146938188976378
20
-4.443420118110236
11
7.7927788976377954
21
-4.4080666535433073
0
LINE
8
BLACK
6
CONTINUOUS
10
7.7927788976377954
20
-4.4080666535433073
11
7.7721122834645664
21
-4.3719692913385826
0
LINE
8
BLACK
6
CONTINUOUS
10
7.7721122834645664
20
-4.3719692913385826
11
7.752719212598425
21
-4.3351720078740152
0
LINE
8
BLACK
6
CONTINUOUS
10
7.752719212598425
20
-4.3351720078740152
11
7.7346233464566927
21
-4.2977198031496062
0
LINE
8
BLACK
6
CONTINUOUS
10
7.7346233464566927
20
-4.2977198031496062
11
7.7178468110236222
21
-4.2596583070866139
0
LINE
8
BLACK
6
CONTINUOUS
10
7.7178468110236222
20
-4.2596583070866139
11
7.7024100393700783
21
-4.2210340157480317
0
LINE
8
BLACK
6
CONTINUOUS
10
7.7024100393700783
20
-4.2210340157480317
11
7.688331850393701
21
-4.1818940944881886
0
LINE
8
BLACK
6
CONTINUOUS
10
7.688331850393701
20
-4.1818940944881886
11
7.6883332677165352
21
-4.1818936220472436
0
LINE
8
BLACK
6
CONTINUOUS
10
7.6883332677165352
20
-4.1818936220472436
11
7.688331692913386
21
-4.1817792125984248
0
LINE
8
BLACK
6
CONTINUOUS
10
7.688331692913386
20
-4.1817792125984248
11
7.688228385826771
21
-4.1812598031496062
0
LINE
8
BLACK
6
CONTINUOUS
10
7.688228385826771
20
-4.1812598031496062
11
7.688228385826771
21
-3.7962598031496064
0
LINE
8
BLACK
6
CONTINUOUS
10
7.688228385826771
20
-3.7962598031496064
11
7.688228385826771
21
-3.4112598031496062
0
LINE
8
BLACK
6
CONTINUOUS
10
7.688228385826771
20
-3.4112598031496062
11
7.6883313385826773
21
-3.4107420866141731
0
LINE
8
BLACK
6
CONTINUOUS
10
7.6883313385826773
20
-3.4107420866141731
11
7.6883328740157477
21
-3.4106270472440943
0
LINE
8
BLACK
6
CONTINUOUS
10
7.6883328740157477
20
-3.4106270472440943
11
7.7024508267716536
21
-3.371328622047244
0
LINE
8
BLACK
6
CONTINUOUS
10
7.7024508267716536
20
-3.371328622047244
11
7.7179454724409444
21
-3.3325523228346454
0
LINE
8
BLACK
6
CONTINUOUS
10
7.7179454724409444
20
-3.3325523228346454
11
7.7347975196850394
21
-3.2943464173228345
0
LINE
8
BLACK
6
CONTINUOUS
10
7.7347975196850394
20
-3.2943464173228345
11
7.7529860236220474
21
-3.2567583858267715
0
LINE
8
BLACK
6
CONTINUOUS
10
7.7529860236220474
20
-3.2567583858267715
11
7.7724883858267715
21
-3.2198349212598423
0
LINE
8
BLACK
6
CONTINUOUS
10
7.7724883858267715
20
-3.2198349212598423
11
7.7932803149606293
21
-3.1836220078740158
0
LINE
8
BLACK
6
CONTINUOUS
10
7.7932803149606293
20
-3.1836220078740158
11
7.8153360236220468
21
-3.1481645669291338
0
LINE
8
BLACK
6
CONTINUOUS
10
7.8153360236220468
20
-3.1481645669291338
11
7.8386280708661413
21
-3.1135067716535434
0
LINE
8
BLACK
6
CONTINUOUS
10
7.8386280708661413
20
-3.1135067716535434
11
7.8631274803149607
21
-3.079691653543307
0
LINE
8
BLACK
6
CONTINUOUS
10
7.8631274803149607
20
-3.079691653543307
11
7.8888038188976379
21
-3.0467612992125983
0
LINE
8
BLACK
6
CONTINUOUS
10
7.8888038188976379
20
-3.0467612992125983
11
7.9156251574803145
21
-3.0147566141732285
0
LINE
8
BLACK
6
CONTINUOUS
10
7.9156251574803145
20
-3.0147566141732285
11
7.9435581102362205
21
-2.9837174015748031
0
LINE
8
BLACK
6
CONTINUOUS
10
7.9435581102362205
20
-2.9837174015748031
11
7.9725679921259838
21
-2.9536822834645671
0
LINE
8
BLACK
6
CONTINUOUS
10
7.9725679921259838
20
-2.9536822834645671
11
8.0026187007874015
21
-2.9246885433070866
0
LINE
8
BLACK
6
CONTINUOUS
10
8.0026187007874015
20
-2.9246885433070866
11
8.0336729133858267
21
-2.8967722440944881
0
LINE
8
BLACK
6
CONTINUOUS
10
8.0336729133858267
20
-2.8967722440944881
11
8.0656920078740164
21
-2.869968149606299
0
LINE
8
BLACK
6
CONTINUOUS
10
8.0656920078740164
20
-2.869968149606299
11
8.0986361417322836
21
-2.8443094881889763
0
LINE
8
BLACK
6
CONTINUOUS
10
8.0986361417322836
20
-2.8443094881889763
11
8.1324644094488185
21
-2.8198282677165354
0
LINE
8
BLACK
6
CONTINUOUS
10
8.1324644094488185
20
-2.8198282677165354
11
8.1671347244094488
21
-2.7965548425196851
0
LINE
8
BLACK
6
CONTINUOUS
10
8.1671347244094488
20
-2.7965548425196851
11
8.2026040157480313
21
-2.7745181889763777
0
LINE
8
BLACK
6
CONTINUOUS
10
8.2026040157480313
20
-2.7745181889763777
11
8.23882811023622
21
-2.7537456692913387
0
LINE
8
BLACK
6
CONTINUOUS
10
8.23882811023622
20
-2.7537456692913387
11
8.2757620078740164
21
-2.7342631496062992
0
LINE
8
BLACK
6
CONTINUOUS
10
8.2757620078740164
20
-2.7342631496062992
11
8.3133598425196844
21
-2.7160948425196851
0
LINE
8
BLACK
6
CONTINUOUS
10
8.3133598425196844
20
-2.7160948425196851
11
8.3515748031496067
21
-2.6992633464566929
0
LINE
8
BLACK
6
CONTINUOUS
10
8.3515748031496067
20
-2.6992633464566929
11
8.3903593700787393
21
-2.6837895275590551
0
LINE
8
BLACK
6
CONTINUOUS
10
8.3903593700787393
20
-2.6837895275590551
11
8.4287663779527549
21
-2.6700151181102361
0
LINE
8
BLACK
6
CONTINUOUS
10
8.4287663779527549
20
-2.6700151181102361
11
8.4289243307086608
21
-2.6697596062992126
0
LINE
8
BLACK
6
CONTINUOUS
10
8.4289243307086608
20
-2.6697596062992126
11
8.4300500787401571
21
-2.6692983464566931
0
LINE
8
BLACK
6
CONTINUOUS
10
8.4300500787401571
20
-2.6692983464566931
11
8.4300500787401571
21
-2.6692983858267718
0
LINE
8
BLACK
6
CONTINUOUS
10
8.4300500787401571
20
-2.6692983858267718
11
8.4409314566929137
21
-2.6691349606299211
0
LINE
8
BLACK
6
CONTINUOUS
10
8.4409314566929137
20
-2.6691349606299211
11
8.4517548425196853
21
-2.670268464566929
0
LINE
8
BLACK
6
CONTINUOUS
10
8.4312872440944879
20
-2.6731541732283466
11
8.4309289370078737
21
-2.6734214566929135
0
LINE
8
BLACK
6
CONTINUOUS
10
8.4309289370078737
20
-2.6734214566929135
11
8.4112172834645662
21
-2.6801006692913387
0
LINE
8
BLACK
6
CONTINUOUS
10
8.4112172834645662
20
-2.6801006692913387
11
8.3722896456692908
21
-2.6948414173228348
0
LINE
8
BLACK
6
CONTINUOUS
10
8.3722896456692908
20
-2.6948414173228348
11
8.3339059448818897
21
-2.7109453937007872
0
LINE
8
BLACK
6
CONTINUOUS
10
8.3339059448818897
20
-2.7109453937007872
11
8.2961138188976378
21
-2.7283925590551181
0
LINE
8
BLACK
6
CONTINUOUS
10
8.2961138188976378
20
-2.7283925590551181
11
8.2589602755905513
21
-2.7471612204724409
0
LINE
8
BLACK
6
CONTINUOUS
10
8.2589602755905513
20
-2.7471612204724409
11
8.2224915354330701
21
-2.7672280708661416
0
LINE
8
BLACK
6
CONTINUOUS
10
8.2224915354330701
20
-2.7672280708661416
11
8.1867528740157471
21
-2.7885681102362203
0
LINE
8
BLACK
6
CONTINUOUS
10
8.1867528740157471
20
-2.7885681102362203
11
8.1517888188976375
21
-2.8111548818897636
0
LINE
8
BLACK
6
CONTINUOUS
10
8.1517888188976375
20
-2.8111548818897636
11
8.1176427559055124
21
-2.8349602362204722
0
LINE
8
BLACK
6
CONTINUOUS
10
8.1176427559055124
20
-2.8349602362204722
11
8.08435716535433
21
-2.8599546062992127
0
LINE
8
BLACK
6
CONTINUOUS
10
8.08435716535433
20
-2.8599546062992127
11
8.0519734645669292
21
-2.8861069291338581
0
LINE
8
BLACK
6
CONTINUOUS
10
8.0519734645669292
20
-2.8861069291338581
11
8.0205318897637792
21
-2.9133846456692911
0
LINE
8
BLACK
6
CONTINUOUS
10
8.0205318897637792
20
-2.9133846456692911
11
7.9900714960629919
21
-2.941753897637795
0
LINE
8
BLACK
6
CONTINUOUS
10
7.9900714960629919
20
-2.941753897637795
11
7.9606301968503939
21
-2.9711793700787399
0
LINE
8
BLACK
6
CONTINUOUS
10
7.9606301968503939
20
-2.9711793700787399
11
7.9322446062992125
21
-3.0016244881889764
0
LINE
8
BLACK
6
CONTINUOUS
10
7.9322446062992125
20
-3.0016244881889764
11
7.9049499999999995
21
-3.0330514173228345
0
LINE
8
BLACK
6
CONTINUOUS
10
7.9049499999999995
20
-3.0330514173228345
11
7.8787802755905512
21
-3.0654211023622047
0
LINE
8
BLACK
6
CONTINUOUS
10
7.8787802755905512
20
-3.0654211023622047
11
7.8537680314960632
21
-3.0986932283464568
0
LINE
8
BLACK
6
CONTINUOUS
10
7.8537680314960632
20
-3.0986932283464568
11
7.8299443307086616
21
-3.1328264960629921
0
LINE
8
BLACK
6
CONTINUOUS
10
7.8299443307086616
20
-3.1328264960629921
11
7.8073387795275586
21
-3.1677784251968504
0
LINE
8
BLACK
6
CONTINUOUS
10
7.8073387795275586
20
-3.1677784251968504
11
7.7859795275590553
21
-3.2035055905511811
0
LINE
8
BLACK
6
CONTINUOUS
10
7.7859795275590553
20
-3.2035055905511811
11
7.7658931102362203
21
-3.2399635826771651
0
LINE
8
BLACK
6
CONTINUOUS
10
7.7658931102362203
20
-3.2399635826771651
11
7.7471044881889766
21
-3.2771070078740157
0
LINE
8
BLACK
6
CONTINUOUS
10
7.7471044881889766
20
-3.2771070078740157
11
7.7296370078740155
21
-3.3148897637795276
0
LINE
8
BLACK
6
CONTINUOUS
10
7.7296370078740155
20
-3.3148897637795276
11
7.7135124409448821
21
-3.3532648425196849
0
LINE
8
BLACK
6
CONTINUOUS
10
7.7135124409448821
20
-3.3532648425196849
11
7.6987507874015746
21
-3.392184527559055
0
LINE
8
BLACK
6
CONTINUOUS
10
7.6987507874015746
20
-3.392184527559055
11
7.6921653937007877
21
-3.4115848818897638
0
LINE
8
BLACK
6
CONTINUOUS
10
7.6921653937007877
20
-3.4115848818897638
11
7.6921653937007877
21
-3.7962598031496064
0
LINE
8
BLACK
6
CONTINUOUS
10
7.6921653937007877
20
-3.7962598031496064
11
7.6921653937007877
21
-4.180938661417323
0
LINE
8
BLACK
6
CONTINUOUS
10
7.6921653937007877
20
-4.180938661417323
11
7.6987345669291338
21
-4.2002541732283465
0
LINE
8
BLACK
6
CONTINUOUS
10
7.6987345669291338
20
-4.2002541732283465
11
7.7134477165354332
21
-4.239019527559055
0
LINE
8
BLACK
6
CONTINUOUS
10
7.7134477165354332
20
-4.239019527559055
11
7.7295060236220472
21
-4.2772472834645665
0
LINE
8
BLACK
6
CONTINUOUS
10
7.7295060236220472
20
-4.2772472834645665
11
7.7468898818897634
21
-4.3148907874015743
0
LINE
8
BLACK
6
CONTINUOUS
10
7.7468898818897634
20
-4.3148907874015743
11
7.7655780314960632
21
-4.3519040551181103
0
LINE
8
BLACK
6
CONTINUOUS
10
7.7655780314960632
20
-4.3519040551181103
11
7.7855477559055117
21
-4.3882419291338586
0
LINE
8
BLACK
6
CONTINUOUS
10
7.7855477559055117
20
-4.3882419291338586
11
7.8067745669291337
21
-4.4238600393700782
0
LINE
8
BLACK
6
CONTINUOUS
10
7.8067745669291337
20
-4.4238600393700782
11
7.8292326377952755
21
-4.458714960629921
0
LINE
8
BLACK
6
CONTINUOUS
10
7.8292326377952755
20
-4.458714960629921
11
7.8528945275590551
21
-4.4927641338582678
0
LINE
8
BLACK
6
CONTINUOUS
10
7.8528945275590551
20
-4.4927641338582678
11
7.877731377952756
21
-4.5259659448818894
0
LINE
8
BLACK
6
CONTINUOUS
10
7.877731377952756
20
-4.5259659448818894
11
7.9037128346456695
21
-4.5582799212598424
0
LINE
8
BLACK
6
CONTINUOUS
10
7.9037128346456695
20
-4.5582799212598424
11
7.9308072047244096
21
-4.5896666535433068
0
LINE
8
BLACK
6
CONTINUOUS
10
7.9308072047244096
20
-4.5896666535433068
11
7.9589814173228346
21
-4.6200877165354326
0
LINE
8
BLACK
6
CONTINUOUS
10
7.9589814173228346
20
-4.6200877165354326
11
7.9882011023622042
21
-4.6495061023622046
0
LINE
8
BLACK
6
CONTINUOUS
10
7.9882011023622042
20
-4.6495061023622046
11
8.0184305511811029
21
-4.6778858267716537
0
LINE
8
BLACK
6
CONTINUOUS
10
8.0184305511811029
20
-4.6778858267716537
11
8.0496329133858264
21
-4.7051923228346455
0
LINE
8
BLACK
6
CONTINUOUS
10
8.0496329133858264
20
-4.7051923228346455
11
8.0817700787401581
21
-4.7313921653543307
0
LINE
8
BLACK
6
CONTINUOUS
10
8.0817700787401581
20
-4.7313921653543307
11
8.1148027952755903
21
-4.7564534251968507
0
LINE
8
BLACK
6
CONTINUOUS
10
8.1148027952755903
20
-4.7564534251968507
11
8.148690826771654
21
-4.7803455511811022
0
LINE
8
BLACK
6
CONTINUOUS
10
8.148690826771654
20
-4.7803455511811022
11
8.1833927165354332
21
-4.8030393307086614
0
LINE
8
BLACK
6
CONTINUOUS
10
8.1833927165354332
20
-4.8030393307086614
11
8.2188661811023618
21
-4.8245070472440945
0
LINE
8
BLACK
6
CONTINUOUS
10
8.2188661811023618
20
-4.8245070472440945
11
8.2550678740157473
21
-4.8447225590551177
0
LINE
8
BLACK
6
CONTINUOUS
10
8.2550678740157473
20
-4.8447225590551177
11
8.2919536614173222
21
-4.8636611417322833
0
LINE
8
BLACK
6
CONTINUOUS
10
8.2919536614173222
20
-4.8636611417322833
11
8.3294784645669289
21
-4.8812997244094491
0
LINE
8
BLACK
6
CONTINUOUS
10
8.3294784645669289
20
-4.8812997244094491
11
8.3675964960629923
21
-4.8976167322834643
0
LINE
8
BLACK
6
CONTINUOUS
10
8.3675964960629923
20
-4.8976167322834643
11
8.4062612598425197
21
-4.9125922440944878
0
LINE
8
BLACK
6
CONTINUOUS
10
8.4062612598425197
20
-4.9125922440944878
11
8.4256068503937005
21
-4.9193182677165357
0
LINE
8
BLACK
6
CONTINUOUS
10
8.4256068503937005
20
-4.9193182677165357
11
8.4305447637795279
21
-4.9196853543307082
0
LINE
8
BLACK
6
CONTINUOUS
10
8.4305447637795279
20
-4.9196853543307082
11
8.4409655905511816
21
-4.9192187401574801
0
LINE
8
BLACK
6
CONTINUOUS
10
8.4409655905511816
20
-4.9192187401574801
11
8.4512567322834649
21
-4.9175146062992123
0
LINE
8
BLACK
6
CONTINUOUS
10
8.4512567322834649
20
-4.9175146062992123
11
8.4612717322834641
21
-4.9145971653543308
0
LINE
8
BLACK
6
CONTINUOUS
10
8.4612717322834641
20
-4.9145971653543308
11
8.4708680708661408
21
-4.9105079527559052
0
LINE
8
BLACK
6
CONTINUOUS
10
8.4708680708661408
20
-4.9105079527559052
11
8.479909251968504
21
-4.9053051181102365
0
LINE
8
BLACK
6
CONTINUOUS
10
8.479909251968504
20
-4.9053051181102365
11
8.4882665354330715
21
-4.8990627952755901
0
LINE
8
BLACK
6
CONTINUOUS
10
8.4882665354330715
20
-4.8990627952755901
11
8.4958211023622052
21
-4.8918696850393699
0
LINE
8
BLACK
6
CONTINUOUS
10
8.4958211023622052
20
-4.8918696850393699
11
8.5024653937007866
21
-4.8838282283464567
0
LINE
8
BLACK
6
CONTINUOUS
10
8.5024653937007866
20
-4.8838282283464567
11
8.5052520866141723
21
-4.8794956692913383
0
LINE
8
BLACK
6
CONTINUOUS
10
8.5052520866141723
20
-4.8794956692913383
11
8.5459712598425188
21
-4.8053125984251963
0
LINE
8
BLACK
6
CONTINUOUS
10
8.5459712598425188
20
-4.8053125984251963
11
8.546465078740157
21
-4.8047243307086616
0
LINE
8
BLACK
6
CONTINUOUS
10
8.546465078740157
20
-4.8047243307086616
11
8.5467406692913386
21
-4.8046440551181098
0
LINE
8
BLACK
6
CONTINUOUS
10
8.5467406692913386
20
-4.8046440551181098
11
8.5469435826771658
21
-4.8044411811023622
0
LINE
8
BLACK
6
CONTINUOUS
10
8.5469435826771658
20
-4.8044411811023622
11
8.5476968897637793
21
-4.8042913385826767
0
LINE
8
BLACK
6
CONTINUOUS
10
8.5476968897637793
20
-4.8042913385826767
11
9.0826968897637794
21
-4.8042912992125979
0
LINE
8
BLACK
6
CONTINUOUS
10
9.0826968897637794
20
-4.8042912992125979
11
9.0834501968503929
21
-4.8044411417322834
0
LINE
8
BLACK
6
CONTINUOUS
10
9.0834501968503929
20
-4.8044411417322834
11
9.0836893307086619
21
-4.8046802755905507
0
LINE
8
BLACK
6
CONTINUOUS
10
9.0836893307086619
20
-4.8046802755905507
11
9.0840086220472447
21
-4.8047920078740161
0
LINE
8
BLACK
6
CONTINUOUS
10
9.0840086220472447
20
-4.8047920078740161
11
9.0844704724409446
21
-4.805405708661417
0
LINE
8
BLACK
6
CONTINUOUS
10
9.0844704724409446
20
-4.805405708661417
11
9.1201655511811026
21
-4.8795299606299212
0
LINE
8
BLACK
6
CONTINUOUS
10
9.1201655511811026
20
-4.8795299606299212
11
9.1229296850393702
21
-4.8838274015748029
0
LINE
8
BLACK
6
CONTINUOUS
10
9.1229296850393702
20
-4.8838274015748029
11
9.1295737401574808
21
-4.8918687007874011
0
LINE
8
BLACK
6
CONTINUOUS
10
9.1295737401574808
20
-4.8918687007874011
11
9.1371281102362207
21
-4.8990615748031496
0
LINE
8
BLACK
6
CONTINUOUS
10
9.1371281102362207
20
-4.8990615748031496
11
9.1454852755905502
21
-4.9053037007874014
0
LINE
8
BLACK
6
CONTINUOUS
10
9.1454852755905502
20
-4.9053037007874014
11
9.1545262992125984
21
-4.9105062598425198
0
LINE
8
BLACK
6
CONTINUOUS
10
9.1545262992125984
20
-4.9105062598425198
11
9.1641224803149601
21
-4.9145951574803153
0
LINE
8
BLACK
6
CONTINUOUS
10
9.1641224803149601
20
-4.9145951574803153
11
9.1741373228346461
21
-4.9175122440944881
0
LINE
8
BLACK
6
CONTINUOUS
10
9.1741373228346461
20
-4.9175122440944881
11
9.1844282677165356
21
-4.9192159842519683
0
LINE
8
BLACK
6
CONTINUOUS
10
9.1844282677165356
20
-4.9192159842519683
11
9.1948488976377956
21
-4.919682165354331
0
LINE
8
BLACK
6
CONTINUOUS
10
9.1948488976377956
20
-4.919682165354331
11
9.199106653543307
21
-4.9193653937007875
0
LINE
8
BLACK
6
CONTINUOUS
10
9.199106653543307
20
-4.9193653937007875
11
9.1994649212598425
21
-4.9190981889763776
0
LINE
8
BLACK
6
CONTINUOUS
10
9.1994649212598425
20
-4.9190981889763776
11
9.1994648818897637
21
-4.9190980708661414
0
LINE
8
BLACK
6
CONTINUOUS
10
9.1994648818897637
20
-4.9190980708661414
11
9.2191765354330713
21
-4.9124188582677162
0
LINE
8
BLACK
6
CONTINUOUS
10
9.2191765354330713
20
-4.9124188582677162
11
9.2581041732283467
21
-4.8976781102362201
0
LINE
8
BLACK
6
CONTINUOUS
10
9.2581041732283467
20
-4.8976781102362201
11
9.2964878740157477
21
-4.8815741338582672
0
LINE
8
BLACK
6
CONTINUOUS
10
9.2964878740157477
20
-4.8815741338582672
11
9.3342799999999997
21
-4.864127007874016
0
LINE
8
BLACK
6
CONTINUOUS
10
9.3342799999999997
20
-4.864127007874016
11
9.3714335433070861
21
-4.8453583464566927
0
LINE
8
BLACK
6
CONTINUOUS
10
9.3714335433070861
20
-4.8453583464566927
11
9.4079023228346461
21
-4.8252914960629925
0
LINE
8
BLACK
6
CONTINUOUS
10
9.4079023228346461
20
-4.8252914960629925
11
9.4436409448818903
21
-4.8039514566929133
0
LINE
8
BLACK
6
CONTINUOUS
10
9.4436409448818903
20
-4.8039514566929133
11
9.4786050393700787
21
-4.7813646850393701
0
LINE
8
BLACK
6
CONTINUOUS
10
9.4786050393700787
20
-4.7813646850393701
11
9.512751062992125
21
-4.757559330708661
0
LINE
8
BLACK
6
CONTINUOUS
10
9.512751062992125
20
-4.757559330708661
11
9.5460366535433074
21
-4.7325649606299214
0
LINE
8
BLACK
6
CONTINUOUS
10
9.5460366535433074
20
-4.7325649606299214
11
9.5784203543307083
21
-4.7064126771653543
0
LINE
8
BLACK
6
CONTINUOUS
10
9.5784203543307083
20
-4.7064126771653543
11
9.609861968503937
21
-4.6791349606299208
0
LINE
8
BLACK
6
CONTINUOUS
10
9.609861968503937
20
-4.6791349606299208
11
9.6403223228346455
21
-4.6507657086614174
0
LINE
8
BLACK
6
CONTINUOUS
10
9.6403223228346455
20
-4.6507657086614174
11
9.6697636220472436
21
-4.6213402362204725
0
LINE
8
BLACK
6
CONTINUOUS
10
9.6697636220472436
20
-4.6213402362204725
11
9.6981492519685037
21
-4.590895118110236
0
LINE
8
BLACK
6
CONTINUOUS
10
9.6981492519685037
20
-4.590895118110236
11
9.7254438582677167
21
-4.5594681889763775
0
LINE
8
BLACK
6
CONTINUOUS
10
9.7254438582677167
20
-4.5594681889763775
11
9.7516135433070872
21
-4.5270985433070869
0
LINE
8
BLACK
6
CONTINUOUS
10
9.7516135433070872
20
-4.5270985433070869
11
9.776625826771653
21
-4.4938263779527556
0
LINE
8
BLACK
6
CONTINUOUS
10
9.776625826771653
20
-4.4938263779527556
11
9.8004495275590546
21
-4.4596931496062995
0
LINE
8
BLACK
6
CONTINUOUS
10
9.8004495275590546
20
-4.4596931496062995
11
9.8230550393700788
21
-4.4247411811023625
0
LINE
8
BLACK
6
CONTINUOUS
10
9.8230550393700788
20
-4.4247411811023625
11
9.8444143307086609
21
-4.3890140157480317
0
LINE
8
BLACK
6
CONTINUOUS
10
9.8444143307086609
20
-4.3890140157480317
11
9.8645007480314959
21
-4.3525560629921261
0
LINE
8
BLACK
6
CONTINUOUS
10
9.8645007480314959
20
-4.3525560629921261
11
9.8832893700787405
21
-4.3154126377952755
0
LINE
8
BLACK
6
CONTINUOUS
10
9.8832893700787405
20
-4.3154126377952755
11
9.9007568503936998
21
-4.277629881889764
0
LINE
8
BLACK
6
CONTINUOUS
10
9.9007568503936998
20
-4.277629881889764
11
9.9168814173228341
21
-4.2392548031496062
0
LINE
8
BLACK
6
CONTINUOUS
10
9.9168814173228341
20
-4.2392548031496062
11
9.9316430708661407
21
-4.2003351181102362
0
LINE
8
BLACK
6
CONTINUOUS
10
9.9316430708661407
20
-4.2003351181102362
11
9.9382284645669294
21
-4.1809347244094486
0
LINE
8
BLACK
6
CONTINUOUS
10
9.9382284645669294
20
-4.1809347244094486
11
9.9382284645669294
21
-3.7962598425196847
0
LINE
8
BLACK
6
CONTINUOUS
10
9.9382284645669294
20
-3.7962598425196847
11
9.9382284645669294
21
-3.7962598031496064
0
LINE
8
BLACK
6
CONTINUOUS
10
9.9382284645669294
20
-3.7962598031496064
11
9.9382284645669294
21
-3.411581181102362
0
LINE
8
BLACK
6
CONTINUOUS
10
9.9382284645669294
20
-3.411581181102362
11
9.9316592125984258
21
-3.3922654724409447
0
LINE
8
BLACK
6
CONTINUOUS
10
9.9316592125984258
20
-3.3922654724409447
11
9.9169460629921264
21
-3.3535001181102362
0
LINE
8
BLACK
6
CONTINUOUS
10
9.9169460629921264
20
-3.3535001181102362
11
9.9008877559055115
21
-3.3152723622047242
0
LINE
8
BLACK
6
CONTINUOUS
10
9.9008877559055115
20
-3.3152723622047242
11
9.8835038976377945
21
-3.2776288976377952
0
LINE
8
BLACK
6
CONTINUOUS
10
9.8835038976377945
20
-3.2776288976377952
11
9.8648157480314964
21
-3.2406156299212596
0
LINE
8
BLACK
6
CONTINUOUS
10
9.8648157480314964
20
-3.2406156299212596
11
9.8448460629921257
21
-3.2042777559055118
0
LINE
8
BLACK
6
CONTINUOUS
10
9.8448460629921257
20
-3.2042777559055118
11
9.823619212598425
21
-3.1686596456692913
0
LINE
8
BLACK
6
CONTINUOUS
10
9.823619212598425
20
-3.1686596456692913
11
9.8011611417322833
21
-3.1338047244094489
0
LINE
8
BLACK
6
CONTINUOUS
10
9.8011611417322833
20
-3.1338047244094489
11
9.7774992519685036
21
-3.0997555511811021
0
LINE
8
BLACK
6
CONTINUOUS
10
9.7774992519685036
20
-3.0997555511811021
11
9.7526624409448814
21
-3.0665537401574801
0
LINE
8
BLACK
6
CONTINUOUS
10
9.7526624409448814
20
-3.0665537401574801
11
9.7266809842519688
21
-3.0342397637795275
0
LINE
8
BLACK
6
CONTINUOUS
10
9.7266809842519688
20
-3.0342397637795275
11
9.6995866141732279
21
-3.0028530314960631
0
LINE
8
BLACK
6
CONTINUOUS
10
9.6995866141732279
20
-3.0028530314960631
11
9.6714124015748038
21
-2.9724319291338581
0
LINE
8
BLACK
6
CONTINUOUS
10
9.6714124015748038
20
-2.9724319291338581
11
9.6421927165354333
21
-2.9430135826771653
0
LINE
8
BLACK
6
CONTINUOUS
10
9.6421927165354333
20
-2.9430135826771653
11
9.6119632677165345
21
-2.9146338188976375
0
LINE
8
BLACK
6
CONTINUOUS
10
9.6119632677165345
20
-2.9146338188976375
11
9.580760905511811
21
-2.8873273622047244
0
LINE
8
BLACK
6
CONTINUOUS
10
9.580760905511811
20
-2.8873273622047244
11
9.5486237401574794
21
-2.8611275196850392
0
LINE
8
BLACK
6
CONTINUOUS
10
9.5486237401574794
20
-2.8611275196850392
11
9.5155910236220471
21
-2.8360662204724409
0
LINE
8
BLACK
6
CONTINUOUS
10
9.5155910236220471
20
-2.8360662204724409
11
9.4817029921259834
21
-2.8121741338582678
0
LINE
8
BLACK
6
CONTINUOUS
10
9.4817029921259834
20
-2.8121741338582678
11
9.4470011023622043
21
-2.7894803543307085
0
LINE
8
BLACK
6
CONTINUOUS
10
9.4470011023622043
20
-2.7894803543307085
11
9.4115276377952757
21
-2.7680125984251966
0
LINE
8
BLACK
6
CONTINUOUS
10
9.4115276377952757
20
-2.7680125984251966
11
9.3753259448818902
21
-2.7477971259842517
0
LINE
8
BLACK
6
CONTINUOUS
10
9.3753259448818902
20
-2.7477971259842517
11
9.3384401968503941
21
-2.7288585039370079
0
LINE
8
BLACK
6
CONTINUOUS
10
9.3384401968503941
20
-2.7288585039370079
11
9.3009153937007873
21
-2.7112199606299212
0
LINE
8
BLACK
6
CONTINUOUS
10
9.3009153937007873
20
-2.7112199606299212
11
9.2627973622047239
21
-2.6949029527559056
0
LINE
8
BLACK
6
CONTINUOUS
10
9.2627973622047239
20
-2.6949029527559056
11
9.2241325984251965
21
-2.6799274015748029
0
LINE
8
BLACK
6
CONTINUOUS
10
9.2241325984251965
20
-2.6799274015748029
11
9.2048008661417313
21
-2.673206181102362
0
LINE
8
BLACK
6
CONTINUOUS
10
9.2048008661417313
20
-2.673206181102362
11
9.1998488582677158
21
-2.6728377952755906
0
LINE
8
BLACK
6
CONTINUOUS
10
9.1998488582677158
20
-2.6728377952755906
11
9.1894281889763771
21
-2.6733039370078742
0
LINE
8
BLACK
6
CONTINUOUS
10
9.1894281889763771
20
-2.6733039370078742
11
9.1791372047244089
21
-2.6750076377952756
0
LINE
8
BLACK
6
CONTINUOUS
10
9.1791372047244089
20
-2.6750076377952756
11
9.1691222834645671
21
-2.6779246456692913
0
LINE
8
BLACK
6
CONTINUOUS
10
9.1691222834645671
20
-2.6779246456692913
11
9.1595259842519692
21
-2.6820134251968502
0
LINE
8
BLACK
6
CONTINUOUS
10
9.1595259842519692
20
-2.6820134251968502
11
9.1504848425196847
21
-2.6872158267716535
0
LINE
8
BLACK
6
CONTINUOUS
10
9.1504848425196847
20
-2.6872158267716535
11
9.1421274803149597
21
-2.6934577952755907
0
LINE
8
BLACK
6
CONTINUOUS
10
9.1421274803149597
20
-2.6934577952755907
11
9.1345728740157472
21
-2.7006505118110238
0
LINE
8
BLACK
6
CONTINUOUS
10
9.1345728740157472
20
-2.7006505118110238
11
9.1279285039370084
21
-2.7086916141732282
0
LINE
8
BLACK
6
CONTINUOUS
10
9.1279285039370084
20
-2.7086916141732282
11
9.1251415748031501
21
-2.713024212598425
0
LINE
8
BLACK
6
CONTINUOUS
10
9.1251415748031501
20
-2.713024212598425
11
9.0844225984251974
21
-2.7872070472440944
0
LINE
8
BLACK
6
CONTINUOUS
10
9.0844225984251974
20
-2.7872070472440944
11
9.0839287795275592
21
-2.78779531496063
0
LINE
8
BLACK
6
CONTINUOUS
10
9.0839287795275592
20
-2.78779531496063
11
9.0836531889763776
21
-2.7878755511811022
0
LINE
8
BLACK
6
CONTINUOUS
10
9.0836531889763776
20
-2.7878755511811022
11
9.0834502755905504
21
-2.7880785039370077
0
LINE
8
BLACK
6
CONTINUOUS
10
9.0834502755905504
20
-2.7880785039370077
11
9.0826969685039369
21
-2.7882283464566928
0
LINE
8
BLACK
6
CONTINUOUS
10
9.0826969685039369
20
-2.7882283464566928
11
8.5476969685039368
21
-2.7882283464566928
0
LINE
8
BLACK
6
CONTINUOUS
10
8.5476969685039368
20
-2.7882283464566928
11
8.5469436614173233
21
-2.7880785039370077
0
LINE
8
BLACK
6
CONTINUOUS
10
8.5469436614173233
20
-2.7880785039370077
11
8.5467044488188968
21
-2.7878392913385825
0
LINE
8
BLACK
6
CONTINUOUS
10
8.5467044488188968
20
-2.7878392913385825
11
8.5463852362204715
21
-2.7877275984251968
0
LINE
8
BLACK
6
CONTINUOUS
10
8.5463852362204715
20
-2.7877275984251968
11
8.5459233858267716
21
-2.7871138976377954
0
LINE
8
BLACK
6
CONTINUOUS
10
8.5459233858267716
20
-2.7871138976377954
11
8.5102159055118101
21
-2.71296405511811
0
LINE
8
BLACK
6
CONTINUOUS
10
8.5102159055118101
20
-2.71296405511811
11
8.5074669685039375
21
-2.7086903937007873
0
LINE
8
BLACK
6
CONTINUOUS
10
8.5074669685039375
20
-2.7086903937007873
11
8.5008225590551181
21
-2.7006490944881891
0
LINE
8
BLACK
6
CONTINUOUS
10
8.5008225590551181
20
-2.7006490944881891
11
8.4932678346456694
21
-2.6934562598425198
0
LINE
8
BLACK
6
CONTINUOUS
10
8.4932678346456694
20
-2.6934562598425198
11
8.4849103149606293
21
-2.6872142519685038
0
LINE
8
BLACK
6
CONTINUOUS
10
8.4849103149606293
20
-2.6872142519685038
11
8.4758689370078741
21
-2.6820118897637797
0
LINE
8
BLACK
6
CONTINUOUS
10
8.4758689370078741
20
-2.6820118897637797
11
8.4662723622047249
21
-2.6779231889763779
0
LINE
8
BLACK
6
CONTINUOUS
10
8.4662723622047249
20
-2.6779231889763779
11
8.4562572440944876
21
-2.6750064173228347
0
LINE
8
BLACK
6
CONTINUOUS
10
8.4562572440944876
20
-2.6750064173228347
11
8.4459659842519681
21
-2.6733030314960629
0
LINE
8
BLACK
6
CONTINUOUS
10
8.4459659842519681
20
-2.6733030314960629
11
8.4355451574803144
21
-2.6728372440944881
0
LINE
8
BLACK
6
CONTINUOUS
10
8.4355451574803144
20
-2.6728372440944881
11
8.4312872440944879
21
-2.6731541732283466
0
LINE
8
BLACK
6
CONTINUOUS
10
6.8248031889763778
20
-4.0066929527559054
11
6.856299212598425
21
-4.0066929527559054
0
LINE
8
BLACK
6
CONTINUOUS
10
6.856299212598425
20
-4.0066929527559054
11
6.8600098425196849
21
-4.0072806692913385
0
LINE
8
BLACK
6
CONTINUOUS
10
6.8600098425196849
20
-4.0072806692913385
11
6.8633572440944883
21
-4.0089862598425192
0
LINE
8
BLACK
6
CONTINUOUS
10
6.8633572440944883
20
-4.0089862598425192
11
6.8660137795275586
21
-4.0116427952755904
0
LINE
8
BLACK
6
CONTINUOUS
10
6.8660137795275586
20
-4.0116427952755904
11
6.8677193700787402
21
-4.0149901968503938
0
LINE
8
BLACK
6
CONTINUOUS
10
6.8677193700787402
20
-4.0149901968503938
11
6.8683070078740158
21
-4.0187005511811025
0
LINE
8
BLACK
6
CONTINUOUS
10
6.8683070078740158
20
-4.0187005511811025
11
6.8683070866141733
21
-4.0187008267716537
0
LINE
8
BLACK
6
CONTINUOUS
10
6.8683070866141733
20
-4.0187008267716537
11
6.8677193700787402
21
-4.0224114566929137
0
LINE
8
BLACK
6
CONTINUOUS
10
6.8677193700787402
20
-4.0224114566929137
11
6.8660137795275586
21
-4.0257588582677162
0
LINE
8
BLACK
6
CONTINUOUS
10
6.8660137795275586
20
-4.0257588582677162
11
6.8633572834645671
21
-4.0284153543307086
0
LINE
8
BLACK
6
CONTINUOUS
10
6.8633572834645671
20
-4.0284153543307086
11
6.8600098818897637
21
-4.0301209448818893
0
LINE
8
BLACK
6
CONTINUOUS
10
6.8600098818897637
20
-4.0301209448818893
11
6.8563001968503938
21
-4.0307085039370074
0
LINE
8
BLACK
6
CONTINUOUS
10
6.8563001968503938
20
-4.0307085039370074
11
6.8562992519685038
21
-4.0307087007874012
0
LINE
8
BLACK
6
CONTINUOUS
10
6.8562992519685038
20
-4.0307087007874012
11
6.8248031496062991
21
-4.0307087007874012
0
LINE
8
BLACK
6
CONTINUOUS
10
6.8248031496062991
20
-4.0307087007874012
11
6.8210925196850392
21
-4.0301209842519681
0
LINE
8
BLACK
6
CONTINUOUS
10
6.8210925196850392
20
-4.0301209842519681
11
6.817745078740157
21
-4.0284153937007874
0
LINE
8
BLACK
6
CONTINUOUS
10
6.817745078740157
20
-4.0284153937007874
11
6.8150885433070867
21
-4.0257588582677162
0
LINE
8
BLACK
6
CONTINUOUS
10
6.8150885433070867
20
-4.0257588582677162
11
6.8133829527559051
21
-4.0224114173228349
0
LINE
8
BLACK
6
CONTINUOUS
10
6.8133829527559051
20
-4.0224114173228349
11
6.812795236220472
21
-4.018700787401575
0
LINE
8
BLACK
6
CONTINUOUS
10
6.812795236220472
20
-4.018700787401575
11
6.8127952755905508
21
-4.018700787401575
0
LINE
8
BLACK
6
CONTINUOUS
10
6.8127952755905508
20
-4.018700787401575
11
6.8133829921259839
21
-4.0149901574803151
0
LINE
8
BLACK
6
CONTINUOUS
10
6.8133829921259839
20
-4.0149901574803151
11
6.8150885826771654
21
-4.0116427165354329
0
LINE
8
BLACK
6
CONTINUOUS
10
6.8150885826771654
20
-4.0116427165354329
11
6.8177451181102358
21
-4.0089861811023617
0
LINE
8
BLACK
6
CONTINUOUS
10
6.8177451181102358
20
-4.0089861811023617
11
6.8210925590551179
21
-4.0072806299212598
0
LINE
8
BLACK
6
CONTINUOUS
10
6.8210925590551179
20
-4.0072806299212598
11
6.8248031889763778
21
-4.0066929133858267
0
LINE
8
BLACK
6
CONTINUOUS
10
6.8248031889763778
20
-4.0066929133858267
11
6.8248031889763778
21
-4.0066929527559054
0
LINE
8
BLACK
6
CONTINUOUS
10
6.8194647244094488
20
-4.0082235039370078
11
6.8164883464566923
21
-4.0103859448818895
0
LINE
8
BLACK
6
CONTINUOUS
10
6.8164883464566923
20
-4.0103859448818895
11
6.8143258661417319
21
-4.013362322834646
0
LINE
8
BLACK
6
CONTINUOUS
10
6.8143258661417319
20
-4.013362322834646
11
6.813188976377953
21
-4.0168612992125983
0
LINE
8
BLACK
6
CONTINUOUS
10
6.813188976377953
20
-4.0168612992125983
11
6.813188976377953
21
-4.018700787401575
0
LINE
8
BLACK
6
CONTINUOUS
10
6.813188976377953
20
-4.018700787401575
11
6.8131889370078742
21
-4.0187008661417325
0
LINE
8
BLACK
6
CONTINUOUS
10
6.8131889370078742
20
-4.0187008661417325
11
6.8131889370078742
21
-4.0205403149606296
0
LINE
8
BLACK
6
CONTINUOUS
10
6.8131889370078742
20
-4.0205403149606296
11
6.8143258267716531
21
-4.024039251968504
0
LINE
8
BLACK
6
CONTINUOUS
10
6.8143258267716531
20
-4.024039251968504
11
6.8164883070866145
21
-4.0270156299212596
0
LINE
8
BLACK
6
CONTINUOUS
10
6.8164883070866145
20
-4.0270156299212596
11
6.8194646850393701
21
-4.0291781102362201
0
LINE
8
BLACK
6
CONTINUOUS
10
6.8194646850393701
20
-4.0291781102362201
11
6.8229636220472436
21
-4.0303149999999999
0
LINE
8
BLACK
6
CONTINUOUS
10
6.8229636220472436
20
-4.0303149999999999
11
6.8248031496062991
21
-4.0303149999999999
0
LINE
8
BLACK
6
CONTINUOUS
10
6.8248031496062991
20
-4.0303149999999999
11
6.8562992519685038
21
-4.0303149999999999
0
LINE
8
BLACK
6
CONTINUOUS
10
6.8562992519685038
20
-4.0303149999999999
11
6.8562992519685038
21
-4.0303149606299211
0
LINE
8
BLACK
6
CONTINUOUS
10
6.8562992519685038
20
-4.0303149606299211
11
6.8581387401574805
21
-4.0303149606299211
0
LINE
8
BLACK
6
CONTINUOUS
10
6.8581387401574805
20
-4.0303149606299211
11
6.861637677165354
21
-4.0291780708661413
0
LINE
8
BLACK
6
CONTINUOUS
10
6.861637677165354
20
-4.0291780708661413
11
6.8646140551181105
21
-4.0270156299212596
0
LINE
8
BLACK
6
CONTINUOUS
10
6.8646140551181105
20
-4.0270156299212596
11
6.8667764960629922
21
-4.024039251968504
0
LINE
8
BLACK
6
CONTINUOUS
10
6.8667764960629922
20
-4.024039251968504
11
6.8679133858267711
21
-4.0205403149606296
0
LINE
8
BLACK
6
CONTINUOUS
10
6.8679133858267711
20
-4.0205403149606296
11
6.8679133858267711
21
-4.0187008267716537
0
LINE
8
BLACK
6
CONTINUOUS
10
6.8679133858267711
20
-4.0187008267716537
11
6.8679133464566924
21
-4.0187008267716537
0
LINE
8
BLACK
6
CONTINUOUS
10
6.8679133464566924
20
-4.0187008267716537
11
6.8679133464566924
21
-4.016861338582677
0
LINE
8
BLACK
6
CONTINUOUS
10
6.8679133464566924
20
-4.016861338582677
11
6.8667764960629922
21
-4.0133624015748026
0
LINE
8
BLACK
6
CONTINUOUS
10
6.8667764960629922
20
-4.0133624015748026
11
6.8646140157480318
21
-4.010386023622047
0
LINE
8
BLACK
6
CONTINUOUS
10
6.8646140157480318
20
-4.010386023622047
11
6.8616376377952752
21
-4.0082235433070865
0
LINE
8
BLACK
6
CONTINUOUS
10
6.8616376377952752
20
-4.0082235433070865
11
6.8581387007874017
21
-4.0070866535433067
0
LINE
8
BLACK
6
CONTINUOUS
10
6.8581387007874017
20
-4.0070866535433067
11
6.856299212598425
21
-4.0070866535433067
0
LINE
8
BLACK
6
CONTINUOUS
10
6.856299212598425
20
-4.0070866535433067
11
6.8248031889763778
21
-4.0070866535433067
0
LINE
8
BLACK
6
CONTINUOUS
10
6.8248031889763778
20
-4.0070866535433067
11
6.8248029921259841
21
-4.007086614173228
0
LINE
8
BLACK
6
CONTINUOUS
10
6.8248029921259841
20
-4.007086614173228
11
6.8229637007874011
21
-4.007086614173228
0
LINE
8
BLACK
6
CONTINUOUS
10
6.8229637007874011
20
-4.007086614173228
11
6.8194647244094488
21
-4.0082235039370078
0
LINE
8
BLACK
6
CONTINUOUS
10
6.6547244094488187
20
-4.0066929527559054
11
6.6980315354330706
21
-4.0066929921259842
0
LINE
8
BLACK
6
CONTINUOUS
10
6.6980315354330706
20
-4.0066929921259842
11
6.7017421653543305
21
-4.0072807086614173
0
LINE
8
BLACK
6
CONTINUOUS
10
6.7017421653543305
20
-4.0072807086614173
11
6.7050895275590552
21
-4.008986299212598
0
LINE
8
BLACK
6
CONTINUOUS
10
6.7050895275590552
20
-4.008986299212598
11
6.7077460629921255
21
-4.0116428346456692
0
LINE
8
BLACK
6
CONTINUOUS
10
6.7077460629921255
20
-4.0116428346456692
11
6.7094516141732283
21
-4.0149902362204726
0
LINE
8
BLACK
6
CONTINUOUS
10
6.7094516141732283
20
-4.0149902362204726
11
6.7100392125984252
21
-4.0187003543307087
0
LINE
8
BLACK
6
CONTINUOUS
10
6.7100392125984252
20
-4.0187003543307087
11
6.7100393700787402
21
-4.0187008661417325
0
LINE
8
BLACK
6
CONTINUOUS
10
6.7100393700787402
20
-4.0187008661417325
11
6.7094516535433071
21
-4.0224114960629924
0
LINE
8
BLACK
6
CONTINUOUS
10
6.7094516535433071
20
-4.0224114960629924
11
6.7077460629921255
21
-4.0257588582677162
0
LINE
8
BLACK
6
CONTINUOUS
10
6.7077460629921255
20
-4.0257588582677162
11
6.7050895275590552
21
-4.0284153543307086
0
LINE
8
BLACK
6
CONTINUOUS
10
6.7050895275590552
20
-4.0284153543307086
11
6.7017421653543305
21
-4.0301209448818893
0
LINE
8
BLACK
6
CONTINUOUS
10
6.7017421653543305
20
-4.0301209448818893
11
6.6980315354330706
21
-4.0307086614173224
0
LINE
8
BLACK
6
CONTINUOUS
10
6.6980315354330706
20
-4.0307086614173224
11
6.65472437007874
21
-4.0307086614173224
0
LINE
8
BLACK
6
CONTINUOUS
10
6.65472437007874
20
-4.0307086614173224
11
6.65101374015748
21
-4.0301209448818893
0
LINE
8
BLACK
6
CONTINUOUS
10
6.65101374015748
20
-4.0301209448818893
11
6.6476663385826766
21
-4.0284153543307086
0
LINE
8
BLACK
6
CONTINUOUS
10
6.6476663385826766
20
-4.0284153543307086
11
6.6450098425196851
21
-4.0257588582677162
0
LINE
8
BLACK
6
CONTINUOUS
10
6.6450098425196851
20
-4.0257588582677162
11
6.6433042519685035
21
-4.0224114566929137
0
LINE
8
BLACK
6
CONTINUOUS
10
6.6433042519685035
20
-4.0224114566929137
11
6.6427165354330704
21
-4.0187008267716537
0
LINE
8
BLACK
6
CONTINUOUS
10
6.6427165354330704
20
-4.0187008267716537
11
6.6427165354330704
21
-4.018700787401575
0
LINE
8
BLACK
6
CONTINUOUS
10
6.6427165354330704
20
-4.018700787401575
11
6.6433042519685035
21
-4.0149901968503938
0
LINE
8
BLACK
6
CONTINUOUS
10
6.6433042519685035
20
-4.0149901968503938
11
6.6450098031496063
21
-4.0116427559055117
0
LINE
8
BLACK
6
CONTINUOUS
10
6.6450098031496063
20
-4.0116427559055117
11
6.6476663385826766
21
-4.0089862204724405
0
LINE
8
BLACK
6
CONTINUOUS
10
6.6476663385826766
20
-4.0089862204724405
11
6.6510137795275588
21
-4.0072806299212598
0
LINE
8
BLACK
6
CONTINUOUS
10
6.6510137795275588
20
-4.0072806299212598
11
6.6547244094488187
21
-4.0066929133858267
0
LINE
8
BLACK
6
CONTINUOUS
10
6.6547244094488187
20
-4.0066929133858267
11
6.6547244094488187
21
-4.0066929527559054
0
LINE
8
BLACK
6
CONTINUOUS
10
6.6493859448818897
20
-4.0082235039370078
11
6.6464095669291341
21
-4.0103859842519682
0
LINE
8
BLACK
6
CONTINUOUS
10
6.6464095669291341
20
-4.0103859842519682
11
6.6442471259842515
21
-4.0133623622047248
0
LINE
8
BLACK
6
CONTINUOUS
10
6.6442471259842515
20
-4.0133623622047248
11
6.6431102362204726
21
-4.016861338582677
0
LINE
8
BLACK
6
CONTINUOUS
10
6.6431102362204726
20
-4.016861338582677
11
6.6431102362204726
21
-4.018700787401575
0
LINE
8
BLACK
6
CONTINUOUS
10
6.6431102362204726
20
-4.018700787401575
11
6.6431102362204726
21
-4.0187008267716537
0
LINE
8
BLACK
6
CONTINUOUS
10
6.6431102362204726
20
-4.0187008267716537
11
6.6431102362204726
21
-4.0205403149606296
0
LINE
8
BLACK
6
CONTINUOUS
10
6.6431102362204726
20
-4.0205403149606296
11
6.6442471259842515
21
-4.024039251968504
0
LINE
8
BLACK
6
CONTINUOUS
10
6.6442471259842515
20
-4.024039251968504
11
6.6464095669291341
21
-4.0270156299212596
0
LINE
8
BLACK
6
CONTINUOUS
10
6.6464095669291341
20
-4.0270156299212596
11
6.6493859448818897
21
-4.0291780708661413
0
LINE
8
BLACK
6
CONTINUOUS
10
6.6493859448818897
20
-4.0291780708661413
11
6.6528848818897632
21
-4.0303149606299211
0
LINE
8
BLACK
6
CONTINUOUS
10
6.6528848818897632
20
-4.0303149606299211
11
6.65472437007874
21
-4.0303149606299211
0
LINE
8
BLACK
6
CONTINUOUS
10
6.65472437007874
20
-4.0303149606299211
11
6.6980315354330706
21
-4.0303149606299211
0
LINE
8
BLACK
6
CONTINUOUS
10
6.6980315354330706
20
-4.0303149606299211
11
6.6998710236220473
21
-4.0303149606299211
0
LINE
8
BLACK
6
CONTINUOUS
10
6.6998710236220473
20
-4.0303149606299211
11
6.7033699606299209
21
-4.0291780708661413
0
LINE
8
BLACK
6
CONTINUOUS
10
6.7033699606299209
20
-4.0291780708661413
11
6.7063462992125986
21
-4.0270156299212596
0
LINE
8
BLACK
6
CONTINUOUS
10
6.7063462992125986
20
-4.0270156299212596
11
6.7085087795275591
21
-4.024039251968504
0
LINE
8
BLACK
6
CONTINUOUS
10
6.7085087795275591
20
-4.024039251968504
11
6.709645669291338
21
-4.0205403543307083
0
LINE
8
BLACK
6
CONTINUOUS
10
6.709645669291338
20
-4.0205403543307083
11
6.709645669291338
21
-4.0187008661417325
0
LINE
8
BLACK
6
CONTINUOUS
10
6.709645669291338
20
-4.0187008661417325
11
6.7096455905511814
21
-4.0187008661417325
0
LINE
8
BLACK
6
CONTINUOUS
10
6.7096455905511814
20
-4.0187008661417325
11
6.7096455905511814
21
-4.0168613779527558
0
LINE
8
BLACK
6
CONTINUOUS
10
6.7096455905511814
20
-4.0168613779527558
11
6.7085087401574803
21
-4.0133624409448814
0
LINE
8
BLACK
6
CONTINUOUS
10
6.7085087401574803
20
-4.0133624409448814
11
6.7063462992125986
21
-4.0103860629921257
0
LINE
8
BLACK
6
CONTINUOUS
10
6.7063462992125986
20
-4.0103860629921257
11
6.7033699606299209
21
-4.0082235826771653
0
LINE
8
BLACK
6
CONTINUOUS
10
6.7033699606299209
20
-4.0082235826771653
11
6.6998710236220473
21
-4.0070866929133855
0
LINE
8
BLACK
6
CONTINUOUS
10
6.6998710236220473
20
-4.0070866929133855
11
6.6980315354330706
21
-4.0070866929133855
0
LINE
8
BLACK
6
CONTINUOUS
10
6.6980315354330706
20
-4.0070866929133855
11
6.6547244094488187
21
-4.0070866535433067
0
LINE
8
BLACK
6
CONTINUOUS
10
6.6547244094488187
20
-4.0070866535433067
11
6.6547242125984249
21
-4.007086614173228
0
LINE
8
BLACK
6
CONTINUOUS
10
6.6547242125984249
20
-4.007086614173228
11
6.652884921259842
21
-4.007086614173228
0
LINE
8
BLACK
6
CONTINUOUS
10
6.652884921259842
20
-4.007086614173228
11
6.6493859448818897
21
-4.0082235039370078
0
LINE
8
BLACK
6
CONTINUOUS
10
6.6980314960629919
20
-3.6661417716535434
11
6.7017421259842518
21
-3.6667294881889765
0
LINE
8
BLACK
6
CONTINUOUS
10
6.7017421259842518
20
-3.6667294881889765
11
6.7050895669291339
21
-3.6684350787401576
0
LINE
8
BLACK
6
CONTINUOUS
10
6.7050895669291339
20
-3.6684350787401576
11
6.7077460629921255
21
-3.6710916141732284
0
LINE
8
BLACK
6
CONTINUOUS
10
6.7077460629921255
20
-3.6710916141732284
11
6.7094516535433071
21
-3.6744390551181101
0
LINE
8
BLACK
6
CONTINUOUS
10
6.7094516535433071
20
-3.6744390551181101
11
6.7100392519685039
21
-3.6781491732283462
0
LINE
8
BLACK
6
CONTINUOUS
10
6.7100392519685039
20
-3.6781491732283462
11
6.7100394094488189
21
-3.67814968503937
0
LINE
8
BLACK
6
CONTINUOUS
10
6.7100394094488189
20
-3.67814968503937
11
6.7094516929133858
21
-3.6818603149606299
0
LINE
8
BLACK
6
CONTINUOUS
10
6.7094516929133858
20
-3.6818603149606299
11
6.7077460629921255
21
-3.6852077165354329
0
LINE
8
BLACK
6
CONTINUOUS
10
6.7077460629921255
20
-3.6852077165354329
11
6.7050895275590552
21
-3.6878642125984249
0
LINE
8
BLACK
6
CONTINUOUS
10
6.7050895275590552
20
-3.6878642125984249
11
6.7017421259842518
21
-3.689569803149606
0
LINE
8
BLACK
6
CONTINUOUS
10
6.7017421259842518
20
-3.689569803149606
11
6.6980324409448819
21
-3.6901573622047241
0
LINE
8
BLACK
6
CONTINUOUS
10
6.6980324409448819
20
-3.6901573622047241
11
6.6980314960629919
21
-3.6901575590551179
0
LINE
8
BLACK
6
CONTINUOUS
10
6.6980314960629919
20
-3.6901575590551179
11
6.6547244094488187
21
-3.6901574409448816
0
LINE
8
BLACK
6
CONTINUOUS
10
6.6547244094488187
20
-3.6901574409448816
11
6.6510137795275588
21
-3.6895697244094485
0
LINE
8
BLACK
6
CONTINUOUS
10
6.6510137795275588
20
-3.6895697244094485
11
6.6476663779527554
21
-3.6878641732283466
0
LINE
8
BLACK
6
CONTINUOUS
10
6.6476663779527554
20
-3.6878641732283466
11
6.6450098818897638
21
-3.6852076377952754
0
LINE
8
BLACK
6
CONTINUOUS
10
6.6450098818897638
20
-3.6852076377952754
11
6.6433042913385822
21
-3.6818602755905512
0
LINE
8
BLACK
6
CONTINUOUS
10
6.6433042913385822
20
-3.6818602755905512
11
6.6427165748031491
21
-3.6781498818897638
0
LINE
8
BLACK
6
CONTINUOUS
10
6.6427165748031491
20
-3.6781498818897638
11
6.6427165354330704
21
-3.6781496456692913
0
LINE
8
BLACK
6
CONTINUOUS
10
6.6427165354330704
20
-3.6781496456692913
11
6.6433042519685035
21
-3.6744390157480313
0
LINE
8
BLACK
6
CONTINUOUS
10
6.6433042519685035
20
-3.6744390157480313
11
6.6450098031496063
21
-3.6710915748031496
0
LINE
8
BLACK
6
CONTINUOUS
10
6.6450098031496063
20
-3.6710915748031496
11
6.6476663385826766
21
-3.6684350393700789
0
LINE
8
BLACK
6
CONTINUOUS
10
6.6476663385826766
20
-3.6684350393700789
11
6.6510137795275588
21
-3.6667294488188977
0
LINE
8
BLACK
6
CONTINUOUS
10
6.6510137795275588
20
-3.6667294488188977
11
6.6547244094488187
21
-3.6661417322834646
0
LINE
8
BLACK
6
CONTINUOUS
10
6.6547244094488187
20
-3.6661417322834646
11
6.6980314960629919
21
-3.6661417716535434
0
LINE
8
BLACK
6
CONTINUOUS
10
6.652884921259842
20
-3.6665354330708659
11
6.6493859448818897
21
-3.6676723228346457
0
LINE
8
BLACK
6
CONTINUOUS
10
6.6493859448818897
20
-3.6676723228346457
11
6.6464095669291341
21
-3.6698348031496062
0
LINE
8
BLACK
6
CONTINUOUS
10
6.6464095669291341
20
-3.6698348031496062
11
6.6442471259842515
21
-3.6728111811023623
0
LINE
8
BLACK
6
CONTINUOUS
10
6.6442471259842515
20
-3.6728111811023623
11
6.6431102362204726
21
-3.676310157480315
0
LINE
8
BLACK
6
CONTINUOUS
10
6.6431102362204726
20
-3.676310157480315
11
6.6431102362204726
21
-3.6781496456692913
0
LINE
8
BLACK
6
CONTINUOUS
10
6.6431102362204726
20
-3.6781496456692913
11
6.6431102755905513
21
-3.6781496456692913
0
LINE
8
BLACK
6
CONTINUOUS
10
6.6431102755905513
20
-3.6781496456692913
11
6.6431102755905513
21
-3.6799891338582675
0
LINE
8
BLACK
6
CONTINUOUS
10
6.6431102755905513
20
-3.6799891338582675
11
6.6442471653543302
21
-3.6834880708661415
0
LINE
8
BLACK
6
CONTINUOUS
10
6.6442471653543302
20
-3.6834880708661415
11
6.6464096456692916
21
-3.6864644094488188
0
LINE
8
BLACK
6
CONTINUOUS
10
6.6464096456692916
20
-3.6864644094488188
11
6.6493859842519685
21
-3.6886268503937005
0
LINE
8
BLACK
6
CONTINUOUS
10
6.6493859842519685
20
-3.6886268503937005
11
6.652884921259842
21
-3.6897637401574803
0
LINE
8
BLACK
6
CONTINUOUS
10
6.652884921259842
20
-3.6897637401574803
11
6.6547244094488187
21
-3.6897637401574803
0
LINE
8
BLACK
6
CONTINUOUS
10
6.6547244094488187
20
-3.6897637401574803
11
6.6980314960629919
21
-3.6897638582677166
0
LINE
8
BLACK
6
CONTINUOUS
10
6.6980314960629919
20
-3.6897638582677166
11
6.6980314960629919
21
-3.6897638188976378
0
LINE
8
BLACK
6
CONTINUOUS
10
6.6980314960629919
20
-3.6897638188976378
11
6.6998709842519686
21
-3.6897638188976378
0
LINE
8
BLACK
6
CONTINUOUS
10
6.6998709842519686
20
-3.6897638188976378
11
6.7033699212598421
21
-3.688626929133858
0
LINE
8
BLACK
6
CONTINUOUS
10
6.7033699212598421
20
-3.688626929133858
11
6.7063463385826774
21
-3.6864644881889763
0
LINE
8
BLACK
6
CONTINUOUS
10
6.7063463385826774
20
-3.6864644881889763
11
6.7085087795275591
21
-3.6834881102362202
0
LINE
8
BLACK
6
CONTINUOUS
10
6.7085087795275591
20
-3.6834881102362202
11
6.709645669291338
21
-3.6799891732283463
0
LINE
8
BLACK
6
CONTINUOUS
10
6.709645669291338
20
-3.6799891732283463
11
6.7096457086614167
21
-3.67814968503937
0
LINE
8
BLACK
6
CONTINUOUS
10
6.7096457086614167
20
-3.67814968503937
11
6.7096456299212601
21
-3.67814968503937
0
LINE
8
BLACK
6
CONTINUOUS
10
6.7096456299212601
20
-3.67814968503937
11
6.7096456299212601
21
-3.6763101968503937
0
LINE
8
BLACK
6
CONTINUOUS
10
6.7096456299212601
20
-3.6763101968503937
11
6.7085087795275591
21
-3.672811220472441
0
LINE
8
BLACK
6
CONTINUOUS
10
6.7085087795275591
20
-3.672811220472441
11
6.7063463385826774
21
-3.6698348425196849
0
LINE
8
BLACK
6
CONTINUOUS
10
6.7063463385826774
20
-3.6698348425196849
11
6.7033699606299209
21
-3.6676723622047245
0
LINE
8
BLACK
6
CONTINUOUS
10
6.7033699606299209
20
-3.6676723622047245
11
6.6998709842519686
21
-3.6665354724409447
0
LINE
8
BLACK
6
CONTINUOUS
10
6.6998709842519686
20
-3.6665354724409447
11
6.6980314960629919
21
-3.6665354724409447
0
LINE
8
BLACK
6
CONTINUOUS
10
6.6980314960629919
20
-3.6665354724409447
11
6.6547244094488187
21
-3.6665354330708659
0
LINE
8
BLACK
6
CONTINUOUS
10
6.6547244094488187
20
-3.6665354330708659
11
6.652884921259842
21
-3.6665354330708659
0
LINE
8
BLACK
6
CONTINUOUS
10
6.8248031102362203
20
-3.6661417716535434
11
6.856299212598425
21
-3.6661417716535434
0
LINE
8
BLACK
6
CONTINUOUS
10
6.856299212598425
20
-3.6661417716535434
11
6.8600098425196849
21
-3.6667294881889765
0
LINE
8
BLACK
6
CONTINUOUS
10
6.8600098425196849
20
-3.6667294881889765
11
6.8633572834645671
21
-3.6684350787401576
0
LINE
8
BLACK
6
CONTINUOUS
10
6.8633572834645671
20
-3.6684350787401576
11
6.8660137795275586
21
-3.6710916141732284
0
LINE
8
BLACK
6
CONTINUOUS
10
6.8660137795275586
20
-3.6710916141732284
11
6.8677193700787402
21
-3.6744390551181101
0
LINE
8
BLACK
6
CONTINUOUS
10
6.8677193700787402
20
-3.6744390551181101
11
6.8683070078740158
21
-3.6781494094488187
0
LINE
8
BLACK
6
CONTINUOUS
10
6.8683070078740158
20
-3.6781494094488187
11
6.8683070866141733
21
-3.67814968503937
0
LINE
8
BLACK
6
CONTINUOUS
10
6.8683070866141733
20
-3.67814968503937
11
6.8677193700787402
21
-3.6818603149606299
0
LINE
8
BLACK
6
CONTINUOUS
10
6.8677193700787402
20
-3.6818603149606299
11
6.8660137401574799
21
-3.6852077165354329
0
LINE
8
BLACK
6
CONTINUOUS
10
6.8660137401574799
20
-3.6852077165354329
11
6.8633572047244096
21
-3.6878642125984249
0
LINE
8
BLACK
6
CONTINUOUS
10
6.8633572047244096
20
-3.6878642125984249
11
6.8600098031496062
21
-3.689569803149606
0
LINE
8
BLACK
6
CONTINUOUS
10
6.8600098031496062
20
-3.689569803149606
11
6.8563001181102363
21
-3.6901573228346454
0
LINE
8
BLACK
6
CONTINUOUS
10
6.8563001181102363
20
-3.6901573228346454
11
6.8562991732283463
21
-3.6901575196850391
0
LINE
8
BLACK
6
CONTINUOUS
10
6.8562991732283463
20
-3.6901575196850391
11
6.8248031496062991
21
-3.6901575196850391
0
LINE
8
BLACK
6
CONTINUOUS
10
6.8248031496062991
20
-3.6901575196850391
11
6.8210925196850392
21
-3.689569803149606
0
LINE
8
BLACK
6
CONTINUOUS
10
6.8210925196850392
20
-3.689569803149606
11
6.817745078740157
21
-3.6878642125984249
0
LINE
8
BLACK
6
CONTINUOUS
10
6.817745078740157
20
-3.6878642125984249
11
6.8150885433070867
21
-3.6852077165354329
0
LINE
8
BLACK
6
CONTINUOUS
10
6.8150885433070867
20
-3.6852077165354329
11
6.8133829527559051
21
-3.6818602755905512
0
LINE
8
BLACK
6
CONTINUOUS
10
6.8133829527559051
20
-3.6818602755905512
11
6.812795236220472
21
-3.6781496456692913
0
LINE
8
BLACK
6
CONTINUOUS
10
6.812795236220472
20
-3.6781496456692913
11
6.8127952755905508
21
-3.6781496456692913
0
LINE
8
BLACK
6
CONTINUOUS
10
6.8127952755905508
20
-3.6781496456692913
11
6.8133829527559051
21
-3.6744390157480313
0
LINE
8
BLACK
6
CONTINUOUS
10
6.8133829527559051
20
-3.6744390157480313
11
6.8150885433070867
21
-3.6710915748031496
0
LINE
8
BLACK
6
CONTINUOUS
10
6.8150885433070867
20
-3.6710915748031496
11
6.817745078740157
21
-3.6684350393700789
0
LINE
8
BLACK
6
CONTINUOUS
10
6.817745078740157
20
-3.6684350393700789
11
6.8210924803149604
21
-3.6667294488188977
0
LINE
8
BLACK
6
CONTINUOUS
10
6.8210924803149604
20
-3.6667294488188977
11
6.8248031102362203
21
-3.6661417322834646
0
LINE
8
BLACK
6
CONTINUOUS
10
6.8248031102362203
20
-3.6661417322834646
11
6.8248031102362203
21
-3.6661417716535434
0
LINE
8
BLACK
6
CONTINUOUS
10
6.8194646850393701
20
-3.6676723228346457
11
6.8164883070866145
21
-3.6698348031496062
0
LINE
8
BLACK
6
CONTINUOUS
10
6.8164883070866145
20
-3.6698348031496062
11
6.8143258267716531
21
-3.6728111811023623
0
LINE
8
BLACK
6
CONTINUOUS
10
6.8143258267716531
20
-3.6728111811023623
11
6.813188976377953
21
-3.676310157480315
0
LINE
8
BLACK
6
CONTINUOUS
10
6.813188976377953
20
-3.676310157480315
11
6.813188976377953
21
-3.6781496456692913
0
LINE
8
BLACK
6
CONTINUOUS
10
6.813188976377953
20
-3.6781496456692913
11
6.8131889370078742
21
-3.6781497637795275
0
LINE
8
BLACK
6
CONTINUOUS
10
6.8131889370078742
20
-3.6781497637795275
11
6.8131889370078742
21
-3.6799891338582675
0
LINE
8
BLACK
6
CONTINUOUS
10
6.8131889370078742
20
-3.6799891338582675
11
6.8143258267716531
21
-3.6834881102362202
0
LINE
8
BLACK
6
CONTINUOUS
10
6.8143258267716531
20
-3.6834881102362202
11
6.8164883070866145
21
-3.6864644881889763
0
LINE
8
BLACK
6
CONTINUOUS
10
6.8164883070866145
20
-3.6864644881889763
11
6.8194646850393701
21
-3.688626929133858
0
LINE
8
BLACK
6
CONTINUOUS
10
6.8194646850393701
20
-3.688626929133858
11
6.8229636614173224
21
-3.6897638188976378
0
LINE
8
BLACK
6
CONTINUOUS
10
6.8229636614173224
20
-3.6897638188976378
11
6.8248031496062991
21
-3.6897638188976378
0
LINE
8
BLACK
6
CONTINUOUS
10
6.8248031496062991
20
-3.6897638188976378
11
6.8562991732283463
21
-3.6897638188976378
0
LINE
8
BLACK
6
CONTINUOUS
10
6.8562991732283463
20
-3.6897638188976378
11
6.8562991732283463
21
-3.6897637795275591
0
LINE
8
BLACK
6
CONTINUOUS
10
6.8562991732283463
20
-3.6897637795275591
11
6.858138661417323
21
-3.6897637795275591
0
LINE
8
BLACK
6
CONTINUOUS
10
6.858138661417323
20
-3.6897637795275591
11
6.8616375984251965
21
-3.688626929133858
0
LINE
8
BLACK
6
CONTINUOUS
10
6.8616375984251965
20
-3.688626929133858
11
6.864613976377953
21
-3.6864644881889763
0
LINE
8
BLACK
6
CONTINUOUS
10
6.864613976377953
20
-3.6864644881889763
11
6.8667764566929135
21
-3.6834881102362202
0
LINE
8
BLACK
6
CONTINUOUS
10
6.8667764566929135
20
-3.6834881102362202
11
6.8679133464566924
21
-3.6799891732283463
0
LINE
8
BLACK
6
CONTINUOUS
10
6.8679133464566924
20
-3.6799891732283463
11
6.8679133858267711
21
-3.67814968503937
0
LINE
8
BLACK
6
CONTINUOUS
10
6.8679133858267711
20
-3.67814968503937
11
6.8679133464566924
21
-3.67814968503937
0
LINE
8
BLACK
6
CONTINUOUS
10
6.8679133464566924
20
-3.67814968503937
11
6.8679133464566924
21
-3.6763101968503937
0
LINE
8
BLACK
6
CONTINUOUS
10
6.8679133464566924
20
-3.6763101968503937
11
6.8667764960629922
21
-3.672811220472441
0
LINE
8
BLACK
6
CONTINUOUS
10
6.8667764960629922
20
-3.672811220472441
11
6.8646140551181105
21
-3.6698348425196849
0
LINE
8
BLACK
6
CONTINUOUS
10
6.8646140551181105
20
-3.6698348425196849
11
6.861637677165354
21
-3.6676723622047245
0
LINE
8
BLACK
6
CONTINUOUS
10
6.861637677165354
20
-3.6676723622047245
11
6.8581387007874017
21
-3.6665354724409447
0
LINE
8
BLACK
6
CONTINUOUS
10
6.8581387007874017
20
-3.6665354724409447
11
6.856299212598425
21
-3.6665354724409447
0
LINE
8
BLACK
6
CONTINUOUS
10
6.856299212598425
20
-3.6665354724409447
11
6.8248031102362203
21
-3.6665354724409447
0
LINE
8
BLACK
6
CONTINUOUS
10
6.8248031102362203
20
-3.6665354724409447
11
6.8248029133858266
21
-3.6665354330708659
0
LINE
8
BLACK
6
CONTINUOUS
10
6.8248029133858266
20
-3.6665354330708659
11
6.8229636220472436
21
-3.6665354330708659
0
LINE
8
BLACK
6
CONTINUOUS
10
6.8229636220472436
20
-3.6665354330708659
11
6.8194646850393701
21
-3.6676723228346457
  0
ENDSEC
  0
EOF
